<svg width="510" height="510" viewBox="0 0 510 510" fill="none" xmlns="http://www.w3.org/2000/svg">
<g id="Frame 7">
<path id="Union" d="M230 205H330V305H230V455H55V55H230V205ZM455 455H260C260 442.524 265.044 430.171 274.844 418.646C284.643 407.12 299.007 396.647 317.114 387.825C335.222 379.004 356.718 372.006 380.377 367.231C404.035 362.457 429.392 360 455 360V455ZM455 150C429.392 150 404.035 147.543 380.377 142.769C356.718 137.994 335.222 130.996 317.114 122.175C299.007 113.353 284.643 102.88 274.844 91.3545C265.044 79.8286 260 67.4755 260 55H455V150Z" fill="#A77C6B"/>
</g>
</svg>
