<svg width="975" height="1080" viewBox="0 0 975 1080" fill="none" xmlns="http://www.w3.org/2000/svg">
<g id="Frame 5" clip-path="url(#clip0_30_2)">
<rect width="975" height="1080" fill="none"/>
<path id="Union" d="M808 259L788 279V989L808 1009H168L188 989V279L168 259H808ZM208 989H768V279H208V989Z" fill="black"/>
<path id="Union_2" d="M248 1080H188V1050H248V1080ZM788 1080H728V1050H788V1080ZM808 1040H168V1020H808V1040ZM808 249H168V229H808V249Z" fill="black"/>
<g id="spider-plant (1) 1">
<path id="Vector" d="M207.631 37.4063C207.895 37.4063 208.159 37.4063 208.432 37.4063C211.981 47.4117 215.521 57.4201 219.042 67.4356C221.573 74.6371 224.114 81.8353 226.665 89.0297C228.465 94.1054 230.259 99.1833 232.044 104.264C232.85 106.561 233.658 108.857 234.469 111.153C235.847 115.054 237.221 118.955 238.549 122.874C239.081 124.441 239.621 126.007 240.162 127.571C240.409 128.294 240.653 129.017 240.893 129.742C242.554 134.992 242.554 134.992 246.469 138.705C246.601 138.837 246.733 138.969 246.869 139.106C246.635 136.064 246.238 133.083 245.729 130.076C241.822 106.183 241.782 84.2408 256.231 63.6585C258.519 60.5296 260.941 57.3271 264.086 55.0235C263.858 59.1976 263.028 63.2657 262.259 67.3652C262.117 68.1322 261.975 68.8992 261.833 69.6663C261.461 71.6749 261.087 73.6831 260.712 75.6912C260.111 78.9087 259.514 82.1267 258.917 85.3449C258.709 86.4637 258.5 87.5823 258.291 88.7009C258.163 89.3907 258.035 90.0805 257.906 90.7704C257.849 91.0777 257.791 91.385 257.731 91.7016C256.958 95.8778 256.783 99.9808 256.779 104.222C256.778 104.536 256.778 104.85 256.778 105.174C256.782 109.79 256.975 114.185 258.08 118.686C258.196 119.188 258.312 119.69 258.432 120.207C259.115 122.958 259.983 125.614 260.938 128.281C261.048 128.592 261.159 128.903 261.273 129.224C261.542 129.982 261.813 130.74 262.084 131.498C262.086 131.264 262.089 131.029 262.091 130.788C262.117 128.292 262.151 125.797 262.189 123.302C262.202 122.377 262.213 121.452 262.223 120.527C262.391 104.129 265.503 88.3444 272.494 73.4415C272.652 73.102 272.81 72.7625 272.973 72.4127C279.552 58.3997 289.342 46.182 304.199 40.6063C310.559 38.3412 316.583 37.1636 323.344 37.4063C322.807 38.9115 322.136 40.0442 321.167 41.3101C302.875 66.0166 291.186 96.4695 284.506 142.709C284.701 142.247 284.895 141.785 285.096 141.309C294.577 118.829 294.577 118.829 298.56 109.518C298.899 108.724 299.238 107.93 299.577 107.137C306.029 92.0558 314.418 78.5459 325.746 66.6348C326.128 66.2178 326.509 65.8008 326.891 65.3836C331.195 60.7729 337.091 56.9793 343.559 56.5606C352.362 56.4189 359.522 57.622 366.186 63.8321C370.173 67.7106 372.708 72.6589 374.594 77.8458C374.594 78.2422 374.594 78.6385 374.594 79.0469C373.115 78.4956 371.803 77.8222 370.449 77.0121C370.042 76.7709 369.635 76.5296 369.215 76.281C368.372 75.778 367.53 75.2744 366.688 74.7701C360.819 71.2968 355.586 68.9598 348.62 70.3103C341.658 72.1355 337.558 76.4225 333.544 82.1406C333.335 82.4383 333.125 82.7361 332.91 83.0429C330.636 86.2859 328.418 89.565 326.222 92.8604C326.014 93.1716 325.806 93.4828 325.593 93.8035C322.001 99.1979 318.575 104.663 315.336 110.277C315.121 110.645 314.907 111.013 314.686 111.392C310.782 118.097 307.243 124.986 303.725 131.899C305.181 131.208 306.256 130.354 307.478 129.296C317.981 120.414 328.304 116.753 342.162 117.484C351.665 118.525 360.248 124.051 366.448 131.124C370.046 135.627 373.694 142.11 374.594 147.914C374.472 148.451 374.34 148.985 374.193 149.516C373.891 149.207 373.589 148.898 373.277 148.581C372.134 147.415 370.987 146.255 369.839 145.095C369.346 144.596 368.854 144.097 368.364 143.596C361.669 136.761 354.597 131.308 344.668 130.699C336.604 130.689 329.427 133.518 323.445 138.943C322.339 140.124 321.458 141.376 320.541 142.709C320.783 142.715 321.024 142.721 321.273 142.727C330.705 142.981 338.206 144.598 345.035 151.611C346.635 153.463 347.812 155.462 348.891 157.649C349.099 158.068 349.099 158.068 349.311 158.496C350.788 161.514 352.077 164.601 353.348 167.708C353.606 168.335 353.865 168.961 354.123 169.586C354.667 170.903 355.21 172.219 355.751 173.537C356.973 176.507 358.205 179.474 359.436 182.441C359.856 183.454 360.276 184.467 360.696 185.481C362.996 191.029 365.302 196.573 367.612 202.117C367.778 202.516 367.945 202.916 368.116 203.327C368.441 204.108 368.766 204.888 369.091 205.668C369.404 206.418 369.716 207.169 370.028 207.919C370.789 209.749 371.56 211.573 372.352 213.389C372.504 213.74 372.656 214.091 372.812 214.453C373.099 215.115 373.389 215.775 373.682 216.434C374.639 218.649 374.639 218.649 374.193 219.984C371.776 216.731 369.405 213.453 367.119 210.106C365.647 207.949 364.156 205.807 362.657 203.669C362.421 203.332 362.186 202.996 361.943 202.649C361.462 201.963 360.981 201.277 360.499 200.591C359.324 198.915 358.15 197.238 356.977 195.561C356.509 194.893 356.042 194.226 355.575 193.559C351.371 187.553 347.167 181.547 342.963 175.541C342.961 175.869 342.96 176.197 342.958 176.534C342.943 179.65 342.92 182.765 342.889 185.88C342.874 187.48 342.861 189.081 342.854 190.682C342.848 192.232 342.834 193.782 342.815 195.332C342.81 195.918 342.806 196.504 342.806 197.09C342.8 202.4 341.958 207.391 339.434 212.127C339.297 212.393 339.16 212.659 339.019 212.933C337.884 215.073 336.541 216.952 334.955 218.783C334.716 219.101 334.477 219.418 334.231 219.745C329.575 225.265 322.007 228.91 314.88 229.687C312.693 229.83 310.504 229.812 308.313 229.801C307.589 229.803 306.864 229.806 306.139 229.81C304.188 229.817 302.238 229.814 300.287 229.809C298.235 229.805 296.182 229.809 294.13 229.811C290.685 229.814 287.24 229.81 283.795 229.803C279.826 229.794 275.857 229.797 271.888 229.806C268.465 229.813 265.043 229.814 261.62 229.81C259.582 229.807 257.545 229.807 255.507 229.812C253.59 229.817 251.674 229.813 249.757 229.804C249.058 229.802 248.36 229.803 247.661 229.806C242.063 229.832 236.931 229.144 231.905 226.466C231.638 226.328 231.372 226.191 231.098 226.049C228.958 224.914 227.073 223.579 225.248 221.986C224.86 221.677 224.473 221.368 224.073 221.05C218.649 216.522 214.992 208.779 214.348 201.799C214.216 199.212 214.253 196.625 214.281 194.036C214.284 193.209 214.286 192.383 214.288 191.557C214.294 189.402 214.31 187.248 214.328 185.094C214.344 182.887 214.351 180.681 214.359 178.474C214.376 174.16 214.405 169.846 214.438 165.531C218.666 165.531 222.894 165.531 227.25 165.531C228.119 159.368 228.119 159.368 226.653 153.376C225.098 151.863 223.236 150.903 221.299 149.958C220.11 149.343 219.133 148.554 218.116 147.689C217.601 147.256 217.601 147.256 217.076 146.815C215.089 145.086 213.141 143.324 211.234 141.508C210.995 141.28 210.755 141.051 210.508 140.816C207.2 137.643 204.183 134.386 201.438 130.715C200.741 129.786 200.034 128.864 199.326 127.943C196.489 124.248 193.692 120.526 190.943 116.765C189.661 115.016 188.36 113.284 187.039 111.565C186.743 111.179 186.446 110.794 186.141 110.396C185.562 109.645 184.981 108.894 184.399 108.146C184.009 107.639 184.009 107.639 183.611 107.123C183.378 106.823 183.145 106.523 182.905 106.215C182.406 105.473 182.406 105.473 182.406 104.672C183.874 104.921 185.137 105.329 186.503 105.917C186.913 106.093 187.324 106.269 187.747 106.45C188.189 106.641 188.631 106.833 189.086 107.03C189.549 107.229 190.012 107.428 190.489 107.633C191.734 108.169 192.979 108.706 194.224 109.244C195.507 109.799 196.791 110.351 198.075 110.904C200.559 111.973 203.042 113.045 205.525 114.118C206.99 114.751 208.456 115.382 209.922 116.014C211.252 116.586 212.582 117.16 213.912 117.735C214.354 117.925 214.796 118.116 215.251 118.312C218.204 119.593 221.129 120.929 224.047 122.289C223.857 121.934 223.857 121.934 223.663 121.571C210.744 97.3164 205.767 72.5155 207.23 45.1138C207.269 44.3595 207.308 43.6051 207.346 42.8507C207.439 41.0358 207.534 39.221 207.631 37.4063ZM312.934 155.922C310.865 159.025 309.436 162.116 307.729 165.531C316.845 165.531 325.962 165.531 335.355 165.531C330.7 160.099 324.231 156.844 317.072 156.188C315.693 156.086 314.314 155.997 312.934 155.922ZM248.07 164.33C247.938 164.727 247.806 165.123 247.67 165.531C248.991 165.531 250.312 165.531 251.674 165.531C250.398 164.68 249.566 164.53 248.07 164.33Z" fill="#48813E"/>
<path id="Vector_2" d="M214.437 165.531C218.798 165.531 223.158 165.531 227.65 165.531C227.931 167.563 228.212 169.594 228.501 171.687C230.405 184.912 234.131 197.011 239.662 209.174C239.666 208.914 239.67 208.653 239.673 208.385C239.853 198.252 240.842 188.366 243.241 178.519C243.306 178.25 243.371 177.982 243.438 177.705C245.623 168.825 245.623 168.825 247.27 165.531C258.81 165.457 270.351 165.4 281.892 165.365C282.959 165.362 284.026 165.359 285.092 165.355C285.357 165.355 285.622 165.354 285.895 165.353C289.92 165.34 293.944 165.317 297.968 165.29C302.639 165.258 307.309 165.237 311.979 165.23C314.452 165.226 316.925 165.216 319.398 165.193C321.726 165.171 324.054 165.164 326.382 165.169C327.236 165.168 328.09 165.162 328.944 165.15C335.384 165.062 335.384 165.062 337.231 166.185C337.958 166.998 338.45 167.773 338.959 168.734C339.299 169.149 339.648 169.556 340.007 169.954C342.668 173.401 343.074 176.269 342.971 180.543C342.968 181.167 342.967 181.792 342.967 182.416C342.963 183.718 342.948 185.018 342.922 186.319C342.891 187.969 342.882 189.618 342.881 191.268C342.879 192.556 342.868 193.843 342.855 195.131C342.849 195.738 342.844 196.345 342.842 196.953C342.808 202.301 341.985 207.34 339.434 212.127C339.297 212.393 339.16 212.659 339.019 212.933C337.884 215.073 336.541 216.952 334.955 218.783C334.716 219.101 334.477 219.418 334.231 219.745C329.575 225.265 322.007 228.91 314.88 229.687C312.693 229.83 310.504 229.812 308.313 229.801C307.589 229.803 306.864 229.806 306.139 229.81C304.188 229.817 302.238 229.814 300.287 229.809C298.235 229.805 296.182 229.809 294.13 229.811C290.685 229.814 287.24 229.81 283.795 229.803C279.826 229.794 275.857 229.797 271.888 229.806C268.465 229.813 265.043 229.814 261.62 229.81C259.582 229.807 257.545 229.807 255.507 229.812C253.59 229.817 251.674 229.813 249.757 229.804C249.058 229.802 248.36 229.803 247.661 229.806C242.063 229.832 236.931 229.144 231.905 226.466C231.505 226.26 231.505 226.26 231.098 226.049C228.958 224.914 227.073 223.579 225.248 221.986C224.86 221.677 224.473 221.368 224.073 221.05C218.649 216.522 214.992 208.779 214.348 201.799C214.216 199.212 214.253 196.625 214.281 194.036C214.284 193.209 214.286 192.383 214.288 191.557C214.294 189.403 214.31 187.248 214.328 185.094C214.344 182.887 214.351 180.681 214.359 178.474C214.376 174.16 214.404 169.846 214.437 165.531Z" fill="#674D41"/>
<path id="Vector_3" d="M207.631 37.4062C207.895 37.4062 208.159 37.4062 208.432 37.4062C211.981 47.4117 215.521 57.42 219.042 67.4355C221.573 74.637 224.114 81.8352 226.665 89.0296C228.465 94.1054 230.259 99.1832 232.044 104.264C232.85 106.561 233.658 108.857 234.469 111.153C235.847 115.054 237.221 118.955 238.549 122.874C239.081 124.441 239.621 126.006 240.162 127.571C240.409 128.294 240.653 129.017 240.893 129.742C242.599 134.956 242.599 134.956 246.469 138.705C247.267 139.462 248.006 140.269 248.746 141.082C248.946 141.301 249.147 141.521 249.353 141.746C254.095 146.99 258.318 152.552 261.984 158.599C262.125 158.832 262.266 159.065 262.412 159.305C263.613 161.326 264.655 163.42 265.688 165.531C263.758 165.551 261.828 165.566 259.898 165.575C259.243 165.579 258.588 165.585 257.933 165.592C251.233 165.661 251.233 165.661 248.07 164.73C241.397 178.325 240.354 195.122 240.062 209.975C239.118 208.808 238.509 207.684 237.939 206.298C237.772 205.896 237.605 205.495 237.434 205.081C237.261 204.656 237.088 204.231 236.909 203.794C236.64 203.136 236.64 203.136 236.365 202.466C236.014 201.605 235.663 200.743 235.314 199.882C234.966 199.031 234.61 198.184 234.249 197.339C230.492 188.278 229.055 178.38 227.65 168.734C227.589 168.332 227.589 168.332 227.526 167.921C227.28 166.203 227.265 164.656 227.45 162.935C228.032 157.989 228.032 157.989 226.655 153.39C225.097 151.871 223.241 150.906 221.299 149.958C220.11 149.343 219.133 148.554 218.116 147.689C217.601 147.256 217.601 147.256 217.076 146.815C215.089 145.086 213.141 143.324 211.234 141.508C210.995 141.279 210.755 141.051 210.508 140.816C207.2 137.643 204.183 134.385 201.438 130.715C200.741 129.786 200.034 128.864 199.326 127.943C196.489 124.247 193.692 120.526 190.943 116.765C189.661 115.016 188.36 113.284 187.039 111.565C186.743 111.179 186.446 110.793 186.141 110.396C185.562 109.645 184.981 108.894 184.399 108.146C184.009 107.639 184.009 107.639 183.611 107.123C183.378 106.823 183.145 106.523 182.905 106.215C182.406 105.473 182.406 105.473 182.406 104.672C183.874 104.921 185.137 105.329 186.503 105.917C186.913 106.093 187.324 106.269 187.747 106.45C188.189 106.641 188.631 106.833 189.086 107.03C189.549 107.229 190.012 107.428 190.489 107.633C191.734 108.168 192.979 108.706 194.224 109.244C195.507 109.798 196.791 110.351 198.075 110.904C200.559 111.973 203.042 113.045 205.525 114.118C206.99 114.751 208.456 115.382 209.922 116.014C211.252 116.586 212.582 117.16 213.912 117.735C214.354 117.925 214.796 118.116 215.251 118.312C218.204 119.593 221.129 120.929 224.047 122.289C223.857 121.934 223.857 121.934 223.663 121.571C210.744 97.3164 205.767 72.5155 207.23 45.1138C207.269 44.3594 207.308 43.605 207.346 42.8506C207.439 41.0357 207.534 39.221 207.631 37.4062Z" fill="#437A3B"/>
<path id="Vector_4" d="M360.089 125.115C366.899 130.466 373.221 139.063 374.594 147.914C374.472 148.451 374.34 148.985 374.193 149.516C373.891 149.207 373.589 148.898 373.277 148.58C372.134 147.415 370.987 146.254 369.839 145.095C369.346 144.596 368.854 144.096 368.364 143.596C361.669 136.761 354.597 131.308 344.668 130.699C336.604 130.689 329.427 133.518 323.445 138.943C322.339 140.124 321.458 141.376 320.541 142.709C320.783 142.715 321.024 142.721 321.273 142.727C330.705 142.981 338.206 144.598 345.035 151.611C346.635 153.463 347.812 155.461 348.891 157.648C349.029 157.928 349.168 158.208 349.311 158.496C350.788 161.513 352.077 164.6 353.348 167.708C353.606 168.334 353.865 168.96 354.123 169.586C354.667 170.903 355.21 172.219 355.751 173.536C356.973 176.507 358.205 179.474 359.436 182.44C359.856 183.454 360.276 184.467 360.696 185.48C362.996 191.028 365.302 196.573 367.612 202.117C367.778 202.516 367.945 202.916 368.116 203.327C368.441 204.108 368.766 204.888 369.091 205.668C369.404 206.418 369.716 207.169 370.028 207.919C370.789 209.749 371.56 211.573 372.352 213.389C372.58 213.916 372.58 213.916 372.812 214.453C373.099 215.114 373.389 215.775 373.682 216.434C374.639 218.649 374.639 218.649 374.193 219.984C371.776 216.73 369.405 213.453 367.119 210.106C365.647 207.949 364.156 205.806 362.657 203.668C362.421 203.332 362.186 202.996 361.943 202.649C361.462 201.963 360.981 201.277 360.499 200.591C359.324 198.915 358.15 197.238 356.977 195.56C356.509 194.893 356.042 194.226 355.575 193.559C354.641 192.224 353.707 190.889 352.772 189.555C352.541 189.224 352.31 188.894 352.071 188.553C351.606 187.888 351.14 187.222 350.675 186.557C349.485 184.856 348.293 183.158 347.097 181.462C345.005 178.495 342.926 175.532 340.986 172.463C336.111 164.835 329.544 159.25 320.541 157.123C316.493 156.193 316.493 156.193 312.533 156.723C311.869 157.59 311.869 157.59 311.326 158.689C311.135 159.045 310.944 159.402 310.747 159.769C310.51 160.226 310.274 160.682 310.031 161.152C309.271 162.597 308.511 164.042 307.729 165.531C301.254 165.531 294.78 165.531 288.109 165.531C291.338 157.69 291.338 157.69 292.825 154.358C292.991 153.984 293.157 153.609 293.328 153.224C293.675 152.445 294.022 151.666 294.369 150.887C294.89 149.718 295.41 148.548 295.929 147.378C296.762 145.502 297.601 143.63 298.446 141.76C298.757 141.068 299.067 140.377 299.375 139.684C299.795 138.743 300.221 137.804 300.648 136.866C300.769 136.592 300.889 136.319 301.013 136.038C302.28 133.294 304.337 131.659 306.677 129.846C306.921 129.658 307.164 129.469 307.415 129.274C307.928 128.878 308.442 128.483 308.956 128.089C309.464 127.699 309.969 127.307 310.473 126.914C325.205 115.422 344.648 113.654 360.089 125.115Z" fill="#2F5A25"/>
<path id="Vector_5" d="M214.437 165.531C218.798 165.531 223.158 165.531 227.65 165.531C227.931 167.563 228.212 169.594 228.501 171.687C230.407 184.924 234.156 196.991 239.662 209.174C239.794 207.324 239.926 205.474 240.062 203.568C241.349 204.655 242.622 205.742 243.849 206.895C251.744 214.305 261.246 218.989 271.693 221.586C272.256 221.728 272.256 221.728 272.83 221.874C279.277 223.333 286.241 222.871 292.8 222.914C293.869 222.922 294.937 222.93 296.006 222.939C298.515 222.959 301.025 222.977 303.535 222.994C306.396 223.014 309.258 223.036 312.119 223.058C317.996 223.104 323.873 223.146 329.75 223.188C328.275 224.717 326.924 225.744 324.995 226.616C324.291 226.951 324.291 226.951 323.572 227.293C318.465 229.365 313.757 229.829 308.313 229.801C307.589 229.803 306.864 229.806 306.139 229.809C304.188 229.817 302.238 229.814 300.287 229.809C298.235 229.805 296.182 229.809 294.13 229.811C290.685 229.814 287.24 229.81 283.795 229.803C279.826 229.794 275.857 229.797 271.888 229.805C268.465 229.813 265.043 229.814 261.62 229.81C259.582 229.807 257.545 229.807 255.507 229.812C253.59 229.817 251.674 229.813 249.757 229.804C249.058 229.802 248.36 229.803 247.661 229.806C242.063 229.832 236.931 229.144 231.905 226.466C231.505 226.26 231.505 226.26 231.098 226.049C228.958 224.914 227.073 223.579 225.248 221.986C224.86 221.677 224.473 221.368 224.073 221.049C218.649 216.522 214.992 208.779 214.348 201.799C214.216 199.212 214.253 196.625 214.281 194.036C214.284 193.209 214.286 192.383 214.288 191.557C214.294 189.402 214.31 187.248 214.328 185.094C214.344 182.887 214.351 180.681 214.359 178.474C214.376 174.16 214.404 169.846 214.437 165.531Z" fill="#564138"/>
<path id="Vector_6" d="M264.086 55.0234C263.858 59.1975 263.028 63.2657 262.259 67.3652C262.117 68.1321 261.975 68.8992 261.833 69.6662C261.461 71.6749 261.087 73.6831 260.712 75.6912C260.111 78.9086 259.514 82.1266 258.917 85.3448C258.709 86.4636 258.5 87.5822 258.291 88.7008C258.163 89.3906 258.035 90.0805 257.906 90.7703C257.849 91.0776 257.791 91.3849 257.731 91.7015C256.958 95.8778 256.783 99.9807 256.779 104.221C256.778 104.536 256.778 104.85 256.778 105.173C256.782 109.791 256.981 114.182 258.08 118.686C258.178 119.137 258.275 119.588 258.376 120.053C260.822 130.325 265.369 140.236 269.343 149.989C270.406 152.599 271.466 155.209 272.525 157.821C272.892 158.725 273.26 159.629 273.629 160.532C273.851 161.078 274.073 161.625 274.294 162.171C274.586 162.886 274.586 162.886 274.883 163.615C275.297 164.73 275.297 164.73 275.297 165.531C272.134 166.084 268.789 166.559 265.687 165.531C263.382 163.573 262.277 160.589 261.05 157.89C260.201 156.144 259.126 154.606 257.98 153.044C257.781 152.767 257.581 152.491 257.376 152.206C254.868 148.754 252.136 145.525 249.25 142.385C247.801 140.753 247.117 139.697 246.766 137.503C246.686 137.015 246.605 136.527 246.523 136.023C246.44 135.488 246.358 134.952 246.276 134.417C246.188 133.859 246.1 133.301 246.011 132.743C245.729 130.945 245.46 129.144 245.192 127.344C245.147 127.039 245.101 126.734 245.054 126.42C241.592 103.271 242.855 81.9517 257.129 62.4307C262.857 55.0234 262.857 55.0234 264.086 55.0234Z" fill="#5B9C51"/>
<path id="Vector_7" d="M207.631 37.4062C207.895 37.4062 208.159 37.4062 208.432 37.4062C211.981 47.4117 215.521 57.42 219.042 67.4355C221.573 74.6366 224.114 81.8344 226.665 89.0284C228.307 93.6573 229.943 98.2879 231.571 102.922C231.733 103.382 231.895 103.842 232.062 104.317C232.712 106.169 233.363 108.021 234.013 109.874C235.653 114.551 237.302 119.225 239.001 123.881C239.135 124.251 239.27 124.621 239.408 125.002C240.032 126.718 240.66 128.432 241.294 130.144C241.512 130.738 241.729 131.333 241.946 131.928C242.046 132.195 242.147 132.461 242.25 132.736C242.911 134.565 242.911 134.565 242.465 135.902C242.255 135.698 242.045 135.494 241.828 135.283C239.747 133.33 237.583 131.597 235.258 129.947C234.969 129.739 234.679 129.531 234.382 129.317C232.902 128.277 231.446 127.362 229.81 126.589C223.605 123.555 221.511 118.357 218.842 112.279C218.503 111.548 218.163 110.817 217.822 110.087C208.401 89.5032 206.037 67.4585 207.23 45.1138C207.269 44.3594 207.308 43.605 207.346 42.8506C207.439 41.0357 207.534 39.221 207.631 37.4062Z" fill="#2F5A25"/>
<path id="Vector_8" d="M322.103 142.989C322.491 142.985 322.878 142.981 323.277 142.977C331.502 143.023 338.079 144.873 344.164 150.717C346.185 152.792 347.613 155.059 348.891 157.649C349.029 157.928 349.168 158.208 349.311 158.496C350.788 161.513 352.077 164.6 353.348 167.708C353.606 168.334 353.865 168.96 354.123 169.586C354.667 170.903 355.21 172.219 355.751 173.537C356.973 176.507 358.205 179.474 359.436 182.44C359.856 183.454 360.276 184.467 360.696 185.48C362.996 191.028 365.302 196.573 367.612 202.117C367.778 202.516 367.945 202.916 368.116 203.327C368.441 204.108 368.766 204.888 369.091 205.668C369.404 206.418 369.716 207.169 370.028 207.919C370.789 209.749 371.56 211.573 372.352 213.389C372.58 213.916 372.58 213.916 372.812 214.453C373.099 215.115 373.389 215.775 373.682 216.434C374.639 218.649 374.639 218.649 374.193 219.984C371.776 216.73 369.405 213.453 367.119 210.106C365.647 207.949 364.156 205.806 362.657 203.668C362.421 203.332 362.186 202.996 361.943 202.649C361.462 201.963 360.981 201.277 360.499 200.591C359.324 198.915 358.15 197.238 356.977 195.561C356.509 194.893 356.042 194.226 355.575 193.559C354.641 192.224 353.707 190.889 352.772 189.555C352.541 189.224 352.31 188.894 352.071 188.553C351.606 187.888 351.14 187.222 350.675 186.557C349.485 184.856 348.293 183.158 347.097 181.462C345.005 178.495 342.926 175.532 340.986 172.463C336.12 164.849 329.537 159.225 320.541 157.123C317.887 156.616 315.213 156.257 312.533 155.922C314.107 152.698 315.704 149.49 317.463 146.363C317.717 145.909 317.972 145.456 318.234 144.989C319.324 143.322 320.197 143.008 322.103 142.989Z" fill="#447A3A"/>
<path id="Vector_9" d="M250.294 149.902C251.21 150.665 252.049 151.46 252.875 152.318C252.192 154.535 251.273 156.627 250.348 158.75C243.228 175.264 240.414 192.06 240.062 209.975C239.118 208.808 238.509 207.684 237.939 206.298C237.772 205.896 237.605 205.495 237.434 205.081C237.261 204.656 237.088 204.231 236.909 203.794C236.64 203.136 236.64 203.136 236.365 202.466C236.014 201.605 235.663 200.744 235.313 199.882C234.966 199.031 234.61 198.184 234.249 197.339C229.643 186.233 223.998 165.682 227.514 153.829C228.212 152.363 229.215 151.34 230.453 150.317C230.721 150.071 230.99 149.826 231.266 149.574C237.124 144.681 244.542 145.55 250.294 149.902Z" fill="#508B44"/>
<path id="Vector_10" d="M224.447 165.531C225.504 165.531 226.561 165.531 227.65 165.531C227.698 165.889 227.747 166.247 227.796 166.616C229.168 178.85 229.168 178.85 232.485 190.61C232.895 191.657 232.919 192.445 232.855 193.559C227.13 186.504 223.792 174.488 224.447 165.531Z" fill="#674E41"/>
</g>
<g id="urn-plant 1">
<path id="Vector_11" d="M607.002 74.2188C609.313 75.2401 610.954 77.2237 611.995 79.4834C612.502 80.8476 612.629 82.1445 612.73 83.5962C612.771 84.1689 612.771 84.1689 612.813 84.7531C612.833 85.044 612.853 85.335 612.873 85.6348C613.047 85.4767 613.221 85.3186 613.401 85.1557C614.197 84.4388 615.001 83.7305 615.809 83.0254C616.067 82.7992 616.326 82.573 616.592 82.3399C619.169 80.1763 622.122 78.1328 625.594 78.1328C626.95 78.3588 627.652 78.5716 628.652 79.519C629.579 81.0888 629.601 82.4829 629.182 84.2281C628.282 87.5269 626.238 90.0114 623.963 92.4844C623.587 92.9178 623.214 93.3526 622.842 93.7891C622.566 94.112 622.29 94.4349 622.006 94.7676C622.408 94.7802 622.408 94.7802 622.819 94.7931C626.755 94.9931 629.312 95.8961 632.117 98.6816C632.521 99.0752 632.521 99.0752 632.933 99.4767C633.094 99.6449 633.256 99.813 633.422 99.9863C632.401 102.297 630.417 103.938 628.157 104.98C626.697 105.522 625.265 105.626 623.718 105.715C623.491 105.729 623.263 105.743 623.029 105.757C622.471 105.792 621.912 105.825 621.354 105.857C621.489 106.188 621.489 106.188 621.627 106.525C621.746 106.816 621.864 107.107 621.985 107.407C622.103 107.694 622.22 107.982 622.341 108.278C622.869 109.679 623.024 110.833 623.016 112.335C623.015 112.699 623.014 113.062 623.013 113.437C623.01 113.815 623.008 114.193 623.005 114.583C623.003 114.966 623.002 115.349 623 115.743C622.996 116.688 622.991 117.633 622.984 118.578C619.399 118.213 616.236 116.455 613.818 113.813C611.029 110.301 610.136 106.991 609.611 102.596C606.636 109.876 604.594 117.325 603.414 125.102C603.378 125.339 603.341 125.577 603.304 125.822C602.201 133.272 602.389 140.875 602.413 148.387C602.417 149.555 602.418 150.723 602.42 151.891C602.423 154.16 602.429 156.429 602.436 158.697C602.647 158.232 602.647 158.232 602.863 157.757C603.4 156.579 603.942 155.403 604.486 154.228C604.718 153.724 604.949 153.22 605.179 152.715C607.217 148.229 609.582 144.015 612.873 140.309C613.037 140.122 613.202 139.935 613.371 139.742C618.899 133.538 626.145 129.63 634.074 127.385C634.459 127.273 634.843 127.162 635.239 127.047C641.228 125.632 649.046 125.68 654.949 127.385C655.173 127.446 655.396 127.507 655.627 127.571C661.261 129.143 666.429 131.803 670.932 135.539C671.216 135.772 671.216 135.772 671.506 136.011C672.745 137.03 673.981 138.051 675.172 139.127C675.172 139.235 675.172 139.342 675.172 139.453C673.151 139.313 671.158 139.122 669.158 138.801C655.979 136.889 642.59 139.779 631.754 147.659C629.797 149.135 628.01 150.801 626.246 152.5C626.507 152.568 626.767 152.635 627.036 152.705C631.422 153.936 634.657 155.904 637.662 159.35C637.77 159.565 637.877 159.78 637.988 160.002C638.457 160.007 638.457 160.007 638.935 160.011C640.105 160.024 641.274 160.046 642.444 160.07C642.948 160.079 643.452 160.086 643.956 160.09C647.214 160.122 649.63 160.216 652.258 162.367C654.1 164.618 654.52 166.412 654.419 169.35C654.142 171.816 653.016 173.184 651.226 174.829C649.947 175.592 648.553 175.927 647.121 176.311C647.229 176.494 647.338 176.678 647.449 176.867C653.269 186.771 656.226 196.12 653.4 207.542C650.916 216.119 645.406 223.437 637.639 227.908C636.959 228.28 636.274 228.637 635.583 228.987C635.374 229.094 635.164 229.2 634.949 229.31C632.636 230.432 630.413 230.88 627.848 230.868C627.596 230.87 627.344 230.871 627.084 230.873C626.245 230.877 625.407 230.877 624.568 230.876C623.964 230.878 623.36 230.88 622.756 230.883C621.12 230.888 619.484 230.89 617.847 230.89C616.823 230.891 615.799 230.892 614.775 230.894C611.199 230.9 607.622 230.903 604.045 230.902C600.718 230.902 597.392 230.909 594.065 230.919C591.203 230.927 588.341 230.931 585.479 230.931C583.773 230.93 582.066 230.932 580.359 230.939C578.753 230.945 577.146 230.945 575.54 230.941C574.953 230.94 574.366 230.942 573.779 230.946C565.745 230.996 559.707 227.674 553.938 222.219C546.907 214.842 544.515 205.959 544.611 195.987C544.683 193.183 545.126 190.704 546.008 188.053C546.118 187.7 546.229 187.347 546.343 186.984C547.657 183.202 549.808 179.721 551.879 176.311C551.674 176.266 551.469 176.222 551.257 176.177C548.588 175.505 546.652 174.265 545.192 171.887C544.283 169.805 544.349 167.251 544.907 165.079C545.757 163.133 547.437 161.57 549.323 160.628C550.484 160.252 551.462 160.267 552.682 160.285C553.156 160.285 553.631 160.284 554.106 160.282C554.848 160.283 555.589 160.287 556.33 160.302C559.218 160.441 559.218 160.441 561.824 159.437C562.394 158.783 562.84 158.129 563.295 157.393C565.679 154.841 569.345 153.114 572.754 152.5C564.736 143.56 551.977 138.853 540.218 138.21C535.645 138.014 531.082 138.453 526.592 139.333C525.662 139.471 524.767 139.472 523.828 139.453C524.806 138.126 525.915 137.111 527.212 136.11C527.413 135.954 527.614 135.799 527.821 135.639C535.722 129.605 544.308 126.253 554.325 126.284C554.554 126.284 554.783 126.285 555.019 126.285C566.645 126.333 576.92 130.911 585.148 139.127C589.056 143.394 591.786 148.229 594.159 153.458C594.395 153.97 594.632 154.482 594.869 154.994C595.438 156.227 596.003 157.461 596.564 158.697C596.566 158.364 596.567 158.031 596.568 157.688C596.58 154.499 596.599 151.31 596.624 148.121C596.637 146.483 596.648 144.845 596.653 143.207C596.706 127.405 598.721 112.657 605.045 98.0293C604.728 97.9927 604.411 97.9561 604.084 97.9184C599.395 97.3577 595.61 95.7555 592.3 92.3124C590.55 90.0658 589.348 87.4956 589.062 84.6562C590.354 84.6275 591.645 84.6103 592.936 84.5951C593.478 84.5828 593.478 84.5828 594.032 84.5702C596.881 84.5451 599.249 84.9648 601.783 86.2871C601.792 85.9718 601.8 85.6564 601.809 85.3315C601.988 81.2184 602.752 78.4897 605.697 75.5234C605.96 75.2543 606.222 74.9853 606.492 74.708C606.66 74.5466 606.829 74.3851 607.002 74.2188Z" fill="#705548"/>
<path id="Vector_12" d="M607.002 74.2188C609.313 75.2401 610.954 77.2237 611.995 79.4834C612.502 80.8476 612.629 82.1445 612.73 83.5962C612.771 84.1689 612.771 84.1689 612.813 84.7531C612.833 85.044 612.853 85.335 612.873 85.6348C613.047 85.4767 613.221 85.3186 613.401 85.1557C614.197 84.4388 615.001 83.7305 615.809 83.0254C616.067 82.7992 616.326 82.573 616.592 82.3399C619.169 80.1763 622.122 78.1328 625.594 78.1328C626.95 78.3588 627.652 78.5716 628.652 79.519C629.579 81.0888 629.601 82.4829 629.182 84.2281C628.282 87.5269 626.238 90.0114 623.963 92.4844C623.587 92.9178 623.214 93.3526 622.842 93.7891C622.566 94.112 622.29 94.4349 622.006 94.7676C622.408 94.7802 622.408 94.7802 622.819 94.7931C626.755 94.9931 629.312 95.8961 632.117 98.6816C632.521 99.0752 632.521 99.0752 632.933 99.4767C633.094 99.6449 633.256 99.813 633.422 99.9863C632.401 102.297 630.417 103.938 628.157 104.98C626.697 105.522 625.265 105.626 623.718 105.715C623.491 105.729 623.263 105.743 623.029 105.757C622.471 105.792 621.912 105.825 621.354 105.857C621.489 106.188 621.489 106.188 621.627 106.525C621.746 106.816 621.864 107.107 621.985 107.407C622.103 107.694 622.22 107.982 622.341 108.278C622.869 109.679 623.024 110.833 623.016 112.335C623.015 112.699 623.014 113.062 623.013 113.437C623.01 113.815 623.008 114.193 623.005 114.583C623.003 114.966 623.002 115.349 623 115.743C622.996 116.688 622.991 117.633 622.984 118.578C619.399 118.213 616.236 116.455 613.818 113.813C611.029 110.301 610.136 106.991 609.611 102.596C606.636 109.876 604.594 117.325 603.414 125.102C603.378 125.339 603.341 125.577 603.304 125.822C602.201 133.272 602.389 140.875 602.413 148.387C602.417 149.555 602.418 150.723 602.42 151.891C602.423 154.16 602.429 156.429 602.436 158.697C602.647 158.232 602.647 158.232 602.863 157.757C603.4 156.579 603.942 155.403 604.486 154.228C604.718 153.724 604.949 153.22 605.179 152.715C607.217 148.229 609.582 144.015 612.873 140.309C613.037 140.122 613.202 139.935 613.371 139.742C618.899 133.538 626.145 129.63 634.074 127.385C634.459 127.273 634.843 127.162 635.239 127.047C641.228 125.632 649.046 125.68 654.949 127.385C655.173 127.446 655.396 127.507 655.627 127.571C661.261 129.143 666.429 131.803 670.932 135.539C671.216 135.772 671.216 135.772 671.506 136.011C672.745 137.03 673.981 138.051 675.172 139.127C675.172 139.235 675.172 139.342 675.172 139.453C673.151 139.313 671.158 139.122 669.158 138.801C655.96 136.886 642.575 139.789 631.729 147.682C630.151 148.872 628.694 150.184 627.26 151.543C626.266 152.455 625.681 152.547 624.364 152.617C623.888 152.649 623.888 152.649 623.403 152.681C622.744 152.722 622.085 152.76 621.426 152.793C617.385 153.078 614.382 154.557 611.121 156.881C607.2 159.648 604.171 160.742 599.357 160.593C594.697 160.453 591.648 161.201 587.826 164.035C587.13 164.551 586.419 165.028 585.692 165.5C581.617 168.165 577.83 171.189 574.282 174.518C573.536 175.212 572.777 175.877 572 176.535C570.705 177.663 569.62 178.915 568.514 180.225C568.086 180.707 568.086 180.707 567.65 181.199C561.608 188.041 556.155 196.134 552.857 204.688C552.75 204.688 552.642 204.688 552.531 204.688C552.769 201.04 552.769 201.04 553.163 199.245C553.483 197.773 553.669 196.296 553.836 194.8C554.161 191.907 554.528 189.026 555.141 186.177C555.442 184.732 555.613 183.281 555.773 181.815C556 179.74 556.326 177.71 556.738 175.665C557.002 174.321 557.184 172.991 557.315 171.628C557.856 166.059 559.54 160.706 563.737 156.773C566.431 154.633 569.365 153.164 572.754 152.5C564.736 143.56 551.977 138.853 540.218 138.21C535.645 138.014 531.082 138.453 526.592 139.333C525.662 139.471 524.767 139.472 523.828 139.453C524.806 138.126 525.915 137.111 527.212 136.11C527.413 135.954 527.614 135.799 527.821 135.639C535.722 129.605 544.308 126.253 554.325 126.284C554.554 126.284 554.783 126.285 555.019 126.285C566.645 126.333 576.92 130.911 585.148 139.127C589.056 143.394 591.786 148.229 594.159 153.458C594.395 153.97 594.632 154.482 594.869 154.994C595.438 156.227 596.003 157.461 596.564 158.697C596.566 158.364 596.567 158.031 596.568 157.688C596.58 154.499 596.599 151.31 596.624 148.121C596.637 146.483 596.648 144.845 596.653 143.207C596.706 127.405 598.721 112.657 605.045 98.0293C604.728 97.9927 604.411 97.9561 604.084 97.9184C599.395 97.3577 595.61 95.7555 592.3 92.3124C590.55 90.0658 589.348 87.4956 589.062 84.6562C590.354 84.6275 591.645 84.6103 592.936 84.5951C593.478 84.5828 593.478 84.5828 594.032 84.5702C596.881 84.5451 599.249 84.9648 601.783 86.2871C601.792 85.9718 601.8 85.6564 601.809 85.3315C601.988 81.2184 602.752 78.4897 605.697 75.5234C605.96 75.2543 606.222 74.9853 606.492 74.708C606.66 74.5466 606.829 74.3851 607.002 74.2188Z" fill="#518A47"/>
<path id="Vector_13" d="M622.202 152.436C627.16 152.255 631.582 153.588 635.359 156.938C637.52 159.065 637.52 159.065 637.988 160.002C638.301 160.005 638.613 160.008 638.935 160.011C640.105 160.024 641.274 160.046 642.444 160.07C642.948 160.079 643.452 160.086 643.956 160.09C647.214 160.122 649.63 160.216 652.258 162.367C654.1 164.618 654.52 166.412 654.419 169.35C654.134 171.891 652.97 173.234 651.067 174.861C649.223 176.131 647.558 176.065 645.388 176.025C644.933 176.021 644.933 176.021 644.468 176.016C643.721 176.009 642.975 175.998 642.229 175.984C642.271 176.241 642.314 176.498 642.358 176.762C643.216 181.963 644.035 187.162 644.725 192.388C644.99 194.376 645.298 196.346 645.669 198.317C645.886 199.532 646.04 200.751 646.183 201.976C646.212 202.209 646.24 202.442 646.269 202.681C646.336 203.241 646.403 203.801 646.469 204.361C645.8 203.511 645.271 202.686 644.807 201.709C644.682 201.449 644.557 201.189 644.427 200.921C644.294 200.644 644.16 200.366 644.022 200.08C640.376 192.681 635.67 186.029 630.16 179.898C629.993 179.711 629.825 179.523 629.653 179.33C627.755 177.211 625.831 175.192 623.637 173.375C623.337 173.112 623.038 172.849 622.73 172.579C617.328 167.853 611.266 164.19 605.045 160.654C605.045 160.439 605.045 160.224 605.045 160.002C605.762 159.508 606.476 159.058 607.225 158.617C607.45 158.483 607.674 158.348 607.906 158.21C608.384 157.925 608.863 157.641 609.343 157.359C610.069 156.93 610.792 156.496 611.514 156.062C611.98 155.785 612.446 155.509 612.913 155.233C613.126 155.105 613.339 154.976 613.558 154.844C616.316 153.234 619.036 152.608 622.202 152.436Z" fill="#315A29"/>
<path id="Vector_14" d="M607.002 74.2188C609.313 75.2401 610.954 77.2237 611.995 79.4834C612.502 80.8476 612.629 82.1445 612.73 83.5962C612.758 83.978 612.785 84.3597 612.813 84.7531C612.833 85.044 612.853 85.335 612.873 85.6348C613.047 85.4767 613.221 85.3186 613.401 85.1557C614.197 84.4388 615.001 83.7305 615.809 83.0254C616.196 82.6861 616.196 82.6861 616.592 82.3399C619.169 80.1763 622.122 78.1328 625.594 78.1328C626.95 78.3588 627.652 78.5716 628.652 79.519C629.579 81.0888 629.601 82.4829 629.182 84.2281C628.282 87.5269 626.238 90.0114 623.963 92.4844C623.587 92.9178 623.214 93.3526 622.842 93.7891C622.566 94.112 622.29 94.4349 622.006 94.7676C622.408 94.7802 622.408 94.7802 622.819 94.7931C626.755 94.9931 629.312 95.8961 632.117 98.6816C632.386 98.944 632.655 99.2064 632.933 99.4767C633.094 99.6449 633.256 99.813 633.422 99.9863C632.401 102.297 630.417 103.938 628.157 104.98C626.697 105.522 625.265 105.626 623.718 105.715C623.491 105.729 623.263 105.743 623.029 105.757C622.471 105.792 621.912 105.825 621.354 105.857C621.444 106.078 621.534 106.298 621.627 106.525C621.805 106.961 621.805 106.961 621.985 107.407C622.103 107.694 622.22 107.982 622.341 108.278C622.869 109.679 623.024 110.833 623.016 112.335C623.015 112.881 623.015 112.881 623.013 113.437C623.009 114.004 623.009 114.004 623.005 114.583C623.003 114.966 623.002 115.349 623 115.743C622.996 116.688 622.991 117.633 622.984 118.578C619.399 118.213 616.236 116.455 613.818 113.813C611.745 111.202 609.88 107.941 609.906 104.517C609.907 104.271 609.908 104.025 609.909 103.772C609.913 103.391 609.913 103.391 609.917 103.003C609.919 102.745 609.92 102.486 609.922 102.22C609.925 101.584 609.931 100.948 609.938 100.312C609.076 100.312 608.215 100.312 607.328 100.312C607.328 99.4514 607.328 98.5903 607.328 97.7031C606.966 97.7145 606.603 97.7258 606.23 97.7375C600.855 97.8567 597.068 96.6849 593.072 92.9367C590.961 90.7394 589.062 87.7768 589.062 84.6562C590.354 84.6275 591.645 84.6103 592.936 84.5951C593.297 84.5869 593.659 84.5787 594.032 84.5702C596.881 84.5451 599.249 84.9648 601.783 86.2871C601.796 85.8141 601.796 85.8141 601.809 85.3315C601.988 81.2184 602.752 78.4897 605.697 75.5234C605.96 75.2543 606.222 74.9853 606.492 74.708C606.66 74.5466 606.829 74.3851 607.002 74.2188Z" fill="#BF3E3A"/>
<path id="Vector_15" d="M590.805 158.04C591.28 158.331 591.758 158.615 592.236 158.899C592.821 159.248 593.39 159.622 593.955 160.002C593.955 160.217 593.955 160.433 593.955 160.654C593.775 160.754 593.595 160.854 593.409 160.957C586.483 164.809 580.072 169.086 574.282 174.518C573.536 175.212 572.777 175.877 572 176.535C570.705 177.663 569.62 178.915 568.514 180.225C568.229 180.546 567.944 180.868 567.65 181.199C561.608 188.041 556.155 196.134 552.857 204.688C552.75 204.688 552.642 204.688 552.531 204.688C552.769 201.04 552.769 201.04 553.163 199.245C553.483 197.773 553.669 196.296 553.836 194.801C554.161 191.907 554.528 189.026 555.141 186.177C555.442 184.732 555.613 183.281 555.773 181.815C556 179.74 556.326 177.711 556.738 175.665C557.002 174.321 557.184 172.991 557.315 171.628C557.856 166.059 559.54 160.706 563.737 156.773C572.752 149.61 581.874 152.544 590.805 158.04Z" fill="#315A29"/>
<path id="Vector_16" d="M599.357 159.92C599.599 159.922 599.841 159.923 600.09 159.925C604.479 159.976 607.627 161.044 611.174 163.704C611.87 164.224 612.579 164.703 613.308 165.175C618.103 168.307 622.524 171.936 626.572 175.984C608.705 175.984 590.837 175.984 572.428 175.984C577.324 171.089 582.582 167 588.536 163.455C589.169 163.071 589.791 162.667 590.406 162.254C593.365 160.329 595.857 159.853 599.357 159.92Z" fill="#664D42"/>
<path id="Vector_17" d="M577.32 140.106C577.67 140.387 578.02 140.668 578.37 140.949C583.843 145.391 587.883 150.935 590.693 157.393C590.693 157.608 590.693 157.823 590.693 158.045C589.255 157.536 588.023 156.773 586.739 155.966C583.787 154.153 580.836 152.825 577.313 152.803C573.037 152.773 573.037 152.773 571.694 151.542C571.409 151.234 571.409 151.234 571.119 150.919C570.319 150.053 569.426 149.342 568.493 148.627C568.313 148.488 568.132 148.35 567.946 148.207C556.476 139.577 543.071 137.213 529.047 138.801C530.115 137.581 531.339 136.907 532.777 136.212C533.126 136.042 533.126 136.042 533.481 135.868C536.457 134.436 539.432 133.296 542.644 132.522C542.865 132.469 543.086 132.415 543.313 132.361C554.734 129.776 568.306 132.489 577.32 140.106Z" fill="#5D9A54"/>
<path id="Vector_18" d="M669.953 138.475C669.168 138.867 668.852 138.791 667.991 138.678C654.769 137.095 641.59 140.155 630.94 148.337C629.573 149.413 628.234 150.501 627.023 151.75C625.649 152.891 624.024 152.766 622.312 152.826C617.41 153.139 614.064 154.726 610.015 157.389C608.959 158.045 608.959 158.045 608.307 158.045C609.626 153.654 612.222 149.771 615.156 146.303C615.423 145.979 615.69 145.654 615.965 145.32C629.313 129.873 653.202 127.307 669.953 138.475Z" fill="#5D9A54"/>
<path id="Vector_19" d="M592.324 160.98C592.324 161.196 592.324 161.411 592.324 161.633C592.008 161.803 591.692 161.973 591.366 162.149C585.141 165.547 579.454 169.666 574.282 174.518C573.536 175.211 572.777 175.877 572 176.535C570.705 177.663 569.62 178.914 568.514 180.225C568.219 180.561 567.923 180.898 567.627 181.234C565.256 183.938 563.096 186.754 561.012 189.684C560.604 188.868 560.707 188.5 560.832 187.603C560.873 187.306 560.913 187.01 560.955 186.704C561.001 186.381 561.048 186.059 561.096 185.726C561.143 185.392 561.19 185.058 561.239 184.713C561.341 184.002 561.443 183.291 561.547 182.58C561.702 181.509 561.85 180.438 561.998 179.367C563.002 172.302 564.381 166.075 570.145 161.307C577.001 156.426 585.237 156.641 592.324 160.98Z" fill="#45793D"/>
<path id="Vector_20" d="M589.062 84.6562C590.354 84.6274 591.645 84.6102 592.936 84.595C593.478 84.5827 593.478 84.5827 594.032 84.5702C598.896 84.5272 602.047 86.142 605.567 89.3971C607.405 91.286 609.466 93.8461 609.675 96.5767C609.863 97.4649 609.863 97.4649 610.794 97.8241C611.157 97.9389 611.52 98.0537 611.895 98.1719C616.206 99.6893 619.444 102.507 621.68 106.51C622.559 108.451 623.027 110.21 623.016 112.335C623.015 112.88 623.015 112.88 623.013 113.437C623.009 114.004 623.009 114.004 623.005 114.582C623.003 114.965 623.002 115.349 623 115.743C622.996 116.688 622.991 117.633 622.984 118.578C619.399 118.213 616.236 116.455 613.818 113.813C611.745 111.202 609.88 107.941 609.906 104.517C609.907 104.271 609.908 104.025 609.909 103.772C609.913 103.391 609.913 103.391 609.917 103.003C609.919 102.745 609.92 102.486 609.922 102.22C609.925 101.584 609.931 100.948 609.938 100.312C609.076 100.312 608.215 100.312 607.328 100.312C607.328 99.4513 607.328 98.5902 607.328 97.703C606.966 97.7144 606.603 97.7258 606.23 97.7374C600.855 97.8566 597.068 96.6848 593.072 92.9366C590.961 90.7393 589.062 87.7767 589.062 84.6562Z" fill="#DD5244"/>
<path id="Vector_21" d="M628.448 161.082C628.916 161.476 629.379 161.877 629.834 162.285C630.062 162.487 630.291 162.689 630.526 162.897C635.091 167.177 635.874 172.837 636.724 178.736C636.807 179.291 636.89 179.846 636.973 180.401C637.207 181.972 637.436 183.545 637.662 185.117C637.696 185.356 637.731 185.594 637.766 185.84C637.95 187.121 638.133 188.402 638.314 189.684C637.209 188.595 636.247 187.517 635.338 186.259C631.911 181.631 628.08 177.053 623.637 173.375C623.337 173.112 623.038 172.849 622.73 172.579C617.888 168.343 612.438 164.514 606.676 161.633C606.676 161.417 606.676 161.202 606.676 160.98C613.638 157.221 621.68 155.98 628.448 161.082Z" fill="#45793D"/>
<path id="Vector_22" d="M586.924 170.273C587.867 170.279 588.809 170.274 589.752 170.269C591.978 170.257 594.204 170.262 596.43 170.28C598.716 170.298 601 170.289 603.286 170.266C605.259 170.246 607.231 170.243 609.204 170.251C610.378 170.256 611.551 170.256 612.725 170.242C620.766 170.155 620.766 170.155 623.136 172.138C623.935 172.935 624.596 173.771 625.268 174.68C625.913 175.325 625.913 175.325 626.572 175.984C608.705 175.984 590.837 175.984 572.428 175.984C572.966 175.446 573.504 174.908 574.059 174.353C574.282 174.048 574.505 173.742 574.735 173.426C577.879 169.642 582.384 170.232 586.924 170.273Z" fill="#49352E"/>
<path id="Vector_23" d="M552.762 160.264C553.117 160.266 553.117 160.266 553.479 160.267C554.23 160.271 554.981 160.279 555.732 160.287C556.243 160.291 556.754 160.294 557.265 160.296C558.514 160.303 559.763 160.315 561.012 160.328C560.877 160.614 560.742 160.901 560.604 161.195C560.427 161.574 560.251 161.952 560.069 162.341C559.894 162.715 559.719 163.089 559.539 163.474C558.358 166.145 557.937 168.826 557.663 171.711C557.515 173.205 557.224 174.551 556.771 175.984C555.739 176.023 554.706 176.046 553.673 176.066C553.239 176.082 553.239 176.082 552.796 176.099C550.399 176.134 548.723 175.629 546.907 174.039C546.732 173.826 546.556 173.614 546.375 173.395C546.194 173.184 546.013 172.972 545.827 172.754C544.366 170.634 544.483 168.361 544.703 165.873C545.251 163.701 546.811 162.225 548.617 160.98C549.995 160.289 551.251 160.242 552.762 160.264Z" fill="#49352E"/>
<path id="Vector_24" d="M607.002 99.9863C607.971 100.094 608.939 100.202 609.937 100.312C609.756 102.253 609.165 103.839 608.429 105.633C605.96 111.9 604.423 118.451 603.414 125.102C603.359 125.458 603.359 125.458 603.303 125.822C602.145 133.646 602.399 141.636 602.436 149.524C602.443 151.207 602.45 152.889 602.454 154.572C602.456 155.238 602.46 155.904 602.464 156.57C602.466 157.169 602.466 157.169 602.467 157.78C602.469 158.131 602.471 158.483 602.473 158.845C602.436 159.676 602.436 159.676 602.109 160.328C601.248 160.328 600.387 160.328 599.5 160.328C599.485 156.789 599.473 153.25 599.466 149.711C599.463 148.067 599.458 146.423 599.451 144.779C599.444 143.186 599.44 141.594 599.438 140.001C599.437 139.4 599.435 138.798 599.431 138.196C599.398 132.433 599.785 126.73 600.886 121.065C600.957 120.695 601.028 120.325 601.101 119.944C602.457 113.058 604.554 106.548 607.002 99.9863Z" fill="#467A3E"/>
<path id="Vector_25" d="M637.988 160.328C639.473 160.296 640.958 160.272 642.444 160.257C642.948 160.25 643.452 160.241 643.956 160.23C647.246 160.158 649.597 160.19 652.258 162.367C654.385 164.966 654.465 167.106 654.297 170.44C653.05 170.855 651.881 170.806 650.583 170.798C650.316 170.797 650.05 170.797 649.775 170.796C648.925 170.794 648.074 170.79 647.223 170.786C646.646 170.784 646.069 170.783 645.492 170.782C644.078 170.778 642.664 170.772 641.25 170.766C641.189 170.415 641.128 170.063 641.065 169.702C640.981 169.232 640.897 168.763 640.813 168.294C640.773 168.063 640.734 167.833 640.693 167.596C640.219 164.984 639.172 162.688 637.988 160.328Z" fill="#664C42"/>
<path id="Vector_26" d="M627.877 78.7851C628.777 79.5948 629.103 80.1681 629.467 81.313C629.521 82.7183 629.219 83.9575 628.855 85.3086C628.64 85.3086 628.425 85.3086 628.203 85.3086C628.112 85.6416 628.112 85.6416 628.02 85.9813C626.816 88.4415 624.555 89.9778 622.006 90.8535C620.566 91.093 619.466 91.0133 618.112 90.4662C616.951 89.4454 616.824 88.5509 616.644 87.0413C616.715 84.7167 617.996 82.7144 619.56 81.0683C620.416 80.2716 621.185 79.7503 622.332 79.4375C622.332 79.2222 622.332 79.0069 622.332 78.7851C624.334 78.1298 625.891 77.9604 627.877 78.7851Z" fill="#DD5244"/>
<path id="Vector_27" d="M550.248 160.328C553.8 160.328 557.352 160.328 561.012 160.328C560.366 161.727 559.72 163.127 559.055 164.568C558.405 166.65 557.954 168.6 557.75 170.766C555.309 170.688 553.709 170.135 551.879 168.482C550.534 166.785 549.875 165.281 549.881 163.101C549.88 162.788 549.879 162.475 549.879 162.153C549.922 161.307 549.922 161.307 550.248 160.328Z" fill="#664C42"/>
<path id="Vector_28" d="M653.971 170.439C653.796 171.71 653.488 172.431 652.646 173.395C652.467 173.608 652.288 173.82 652.104 174.039C649.988 175.864 648.064 176.169 645.327 176.066C645.028 176.06 644.728 176.054 644.42 176.048C643.689 176.033 642.959 176.012 642.228 175.984C642.116 175.543 642.009 175.102 641.902 174.659C641.811 174.29 641.811 174.29 641.719 173.914C641.544 172.856 641.555 171.836 641.576 170.766C643.236 170.719 644.897 170.673 646.557 170.626C647.122 170.61 647.687 170.595 648.252 170.579C649.064 170.556 649.875 170.533 650.686 170.511C650.939 170.504 651.193 170.497 651.454 170.489C653.244 170.439 653.244 170.439 653.971 170.439Z" fill="#4A352D"/>
<path id="Vector_29" d="M615.809 83.0254C615.809 84.1677 615.689 84.2262 614.932 85.0028C612.96 87.1948 611.802 89.796 611.845 92.7379C611.907 93.6523 612.07 94.3074 612.547 95.0938C614.005 95.9969 615.45 95.9424 617.113 95.7461C619.047 95.1769 620.682 94.0809 622.318 92.9303C622.956 92.5034 623.596 92.1593 624.289 91.832C622.695 94.4679 620.804 95.583 618.06 96.889C617.234 97.3146 616.569 97.7561 615.849 98.3351C614.83 99.0078 614.83 99.0078 613.913 99.0282C613.398 98.8567 613.398 98.8567 612.873 98.6816C612.605 98.6144 612.336 98.5471 612.06 98.4778C610.777 98.091 609.867 97.8163 609.173 96.6227C608.697 95.1414 608.497 93.9931 608.959 92.4844C609.35 91.7847 609.768 91.099 610.202 90.4254C610.95 89.2587 611.657 88.1163 612.2 86.8375C612.968 85.1927 614.42 84.1409 615.809 83.0254Z" fill="#A62F2A"/>
<path id="Vector_30" d="M607.328 97.7031C608.189 97.7031 609.05 97.7031 609.938 97.7031C609.938 98.5642 609.938 99.4253 609.938 100.312C609.076 100.312 608.215 100.312 607.328 100.312C607.328 99.4514 607.328 98.5903 607.328 97.7031Z" fill="#A1322B"/>
<path id="Vector_31" d="M552.857 200.773C552.965 201.204 553.073 201.635 553.184 202.078C553.399 202.186 553.614 202.293 553.836 202.404C553.513 203.158 553.19 203.911 552.857 204.688C552.75 204.688 552.642 204.688 552.531 204.688C552.639 203.396 552.747 202.104 552.857 200.773Z" fill="#445532"/>
</g>
<g id="peace-lily 1">
<path id="Vector_32" d="M111.953 877.75C112.232 877.75 112.51 877.75 112.797 877.75C112.833 878.067 112.87 878.383 112.907 878.709C113.485 882.92 114.786 886.511 117.859 889.562C119.04 890.423 120.308 891.128 121.584 891.837C123.647 893.066 125.02 894.457 125.875 896.734C126.159 898.545 126.155 900.31 126.112 902.14C126.105 902.645 126.097 903.15 126.089 903.671C125.894 910.944 124.408 919.543 120.076 925.61C118.527 928.765 119.829 932.445 120.812 935.6C120.933 936.003 121.054 936.407 121.178 936.822C121.473 937.805 121.773 938.786 122.078 939.766C123.381 938.63 124.17 937.211 125.028 935.735C125.189 935.461 125.351 935.187 125.517 934.904C125.862 934.317 126.207 933.729 126.552 933.141C127.453 931.601 128.363 930.066 129.271 928.53C129.451 928.225 129.631 927.921 129.817 927.607C136.921 915.588 143.694 905.975 157.759 901.904C160.613 901.237 163.459 901.293 166.375 901.375C165.345 902.411 164.311 903.441 163.255 904.45C155.61 911.837 151.597 920.745 149.755 931.048C149.634 931.703 149.511 932.358 149.388 933.013C149.062 934.761 148.745 936.51 148.43 938.259C148.233 939.35 148.035 940.44 147.837 941.531C147.156 945.276 146.48 949.023 145.808 952.77C145.707 953.33 145.707 953.33 145.604 953.902C145.259 955.826 144.916 957.749 144.575 959.673C144.236 961.585 143.893 963.495 143.547 965.405C143.419 966.119 143.292 966.834 143.166 967.549C142.047 973.935 140.797 979.131 135.326 983.187C133.314 984.459 132.105 984.923 129.672 985.328C129.533 992.15 129.393 998.972 129.25 1006C131.477 1006 133.705 1006 136 1006C136.102 1005.49 136.204 1004.97 136.31 1004.44C136.898 1001.81 137.761 999.273 138.637 996.719C138.793 996.245 138.949 995.77 139.11 995.282C141.13 989.381 144.134 985.266 149.771 982.497C151.881 981.52 153.945 980.948 156.25 980.688C156.282 980.38 156.313 980.072 156.346 979.755C157.654 969.363 162.406 961.303 169.419 953.701C170.191 952.896 170.191 952.896 170.594 952C170.338 951.922 170.083 951.844 169.819 951.764C165.564 950.291 162.456 947.595 160.401 943.581C159.585 941.595 159.545 939.677 159.524 937.552C159.521 937.212 159.518 936.872 159.514 936.521C159.508 935.799 159.504 935.078 159.5 934.356C159.496 933.627 159.487 932.899 159.474 932.17C159.337 924.15 160.964 918.074 166.593 912.059C171.663 907.315 179.141 904.914 186.025 904.704C186.362 904.719 186.699 904.734 187.047 904.75C187.102 905.301 187.102 905.301 187.157 905.864C187.796 911.275 189.889 915.607 192.34 920.387C193.648 923.027 193.469 925.598 193.476 928.476C193.48 929.387 193.493 930.298 193.507 931.209C193.555 937.413 192.378 943.571 188.238 948.439C186.079 950.471 183.778 952 180.719 952C180.605 952.248 180.49 952.496 180.373 952.751C179.118 955.111 177.035 956.962 175.119 958.785C169.116 964.555 166.16 971.085 163.844 979C164.185 978.991 164.527 978.982 164.878 978.973C176.557 978.711 186.034 980.662 196.75 985.328C196.611 985.607 196.472 985.885 196.328 986.172C195.075 986.322 193.841 986.428 192.584 986.515C178.743 987.713 168.831 994.377 158.142 1002.68C156.827 1003.67 155.481 1004.62 154.141 1005.58C158.178 1005.72 162.215 1005.86 166.375 1006C166.375 1012.68 166.375 1019.37 166.375 1026.25C164.147 1026.25 161.92 1026.25 159.625 1026.25C159.562 1027.58 159.562 1027.58 159.497 1028.94C159.206 1033.98 158.507 1038.99 157.87 1044C157.753 1044.93 157.636 1045.86 157.519 1046.79C157.09 1050.21 156.656 1053.63 156.224 1057.05C155.258 1064.7 154.292 1072.36 153.297 1080.25C132.971 1080.25 112.645 1080.25 91.7031 1080.25C90.659 1071.97 89.6148 1063.68 88.539 1055.15C88.2087 1052.54 87.8783 1049.92 87.5379 1047.23C87.1362 1044.03 87.1362 1044.03 86.9485 1042.54C86.8174 1041.49 86.6855 1040.45 86.553 1039.41C86.352 1037.82 86.1537 1036.24 85.9559 1034.66C85.8966 1034.19 85.8373 1033.73 85.7762 1033.25C85.7231 1032.83 85.67 1032.4 85.6152 1031.95C85.5452 1031.4 85.5452 1031.4 85.4738 1030.83C85.3491 1029.31 85.375 1027.78 85.375 1026.25C83.1475 1026.25 80.92 1026.25 78.625 1026.25C78.625 1019.57 78.625 1012.88 78.625 1006C90.1105 1005.79 90.1105 1005.79 101.828 1005.58C100.157 1005.02 98.4868 1004.46 96.7656 1003.89C88.025 1000.16 82.1931 992.572 78.6538 983.949C75.8931 976.721 75.037 969.824 75.25 962.125C76.1113 962.113 76.9726 962.105 77.834 962.099C78.3136 962.094 78.7933 962.089 79.2874 962.084C80.6554 962.123 81.9238 962.288 83.2656 962.547C83.1025 962.036 82.9393 961.524 82.7712 960.998C80.351 953.266 78.543 945.577 78.5838 937.445C78.5844 936.991 78.585 936.537 78.5856 936.069C78.5879 934.63 78.5932 933.19 78.5986 931.75C78.6007 930.769 78.6026 929.789 78.6044 928.808C78.609 926.414 78.6161 924.019 78.625 921.625C79.8106 922.205 80.8569 922.82 81.9192 923.606C82.2301 923.835 82.541 924.064 82.8612 924.3C83.1948 924.549 83.5284 924.797 83.872 925.053C84.2208 925.311 84.5696 925.569 84.929 925.836C89.0447 928.893 93.1235 931.999 97.1875 935.125C97.6966 935.516 97.6966 935.516 98.2161 935.915C100.653 937.796 102.948 939.779 105.203 941.875C105.475 942.119 105.747 942.363 106.027 942.615C109.807 946.165 112.931 950.615 115.75 954.953C117.987 950.048 116.14 945.819 114.59 940.979C114.221 939.793 113.855 938.607 113.494 937.419C113.27 936.685 113.04 935.952 112.805 935.221C112.14 933.089 111.797 931.121 111.708 928.886C111.425 927.39 110.472 926.61 109.437 925.55C102.633 917.846 101.678 907.361 102.25 897.578C102.99 890.644 106.996 882.707 111.953 877.75ZM111.109 1000.52C110.706 1001.59 110.65 1002.09 111.022 1003.2C111.678 1004.32 112.226 1005.15 113.219 1006C114.95 1006.33 116.541 1006.23 118.281 1006C116.311 1003.83 113.956 1002.16 111.531 1000.52C111.392 1000.52 111.253 1000.52 111.109 1000.52Z" fill="#574138"/>
<path id="Vector_33" d="M111.953 877.75C112.232 877.75 112.51 877.75 112.797 877.75C112.833 878.067 112.87 878.383 112.907 878.709C113.485 882.92 114.786 886.511 117.859 889.562C119.04 890.423 120.308 891.128 121.584 891.837C123.647 893.066 125.02 894.457 125.875 896.734C126.159 898.545 126.156 900.31 126.112 902.14C126.105 902.645 126.097 903.15 126.089 903.671C125.894 910.944 124.408 919.543 120.076 925.61C118.527 928.765 119.829 932.445 120.813 935.6C120.933 936.003 121.054 936.407 121.178 936.822C121.473 937.805 121.773 938.786 122.078 939.766C123.381 938.63 124.17 937.211 125.028 935.735C125.189 935.461 125.351 935.187 125.517 934.904C125.862 934.317 126.207 933.729 126.552 933.141C127.453 931.601 128.363 930.066 129.271 928.53C129.451 928.225 129.632 927.921 129.817 927.607C136.921 915.588 143.694 905.975 157.76 901.904C160.613 901.237 163.459 901.293 166.375 901.375C165.345 902.411 164.311 903.441 163.255 904.45C155.61 911.837 151.597 920.745 149.755 931.048C149.634 931.703 149.511 932.358 149.388 933.013C149.062 934.761 148.745 936.51 148.43 938.259C148.233 939.35 148.035 940.44 147.837 941.531C147.156 945.276 146.48 949.023 145.808 952.77C145.707 953.33 145.707 953.33 145.604 953.902C145.259 955.826 144.916 957.749 144.575 959.673C144.236 961.585 143.893 963.495 143.547 965.405C143.419 966.119 143.292 966.834 143.166 967.549C142.047 973.935 140.797 979.131 135.326 983.187C133.314 984.459 132.105 984.923 129.672 985.328C129.533 992.15 129.393 998.972 129.25 1006C117.966 1006.71 117.966 1006.71 113.375 1002.74C112.743 1002.16 112.134 1001.55 111.531 1000.94C111.392 1001.36 111.253 1001.77 111.109 1002.2C111.522 1002.97 111.522 1002.97 112.138 1003.71C113.219 1005.08 113.219 1005.08 113.219 1006C103.912 1006.33 95.676 1005.16 88.5654 998.67C80.4968 990.93 75.4165 979.499 75.1758 968.265C75.1597 966.217 75.1934 964.172 75.25 962.125C76.1113 962.113 76.9726 962.105 77.834 962.099C78.3136 962.094 78.7933 962.089 79.2875 962.084C80.6555 962.123 81.9238 962.288 83.2656 962.547C83.1025 962.036 82.9393 961.524 82.7712 960.998C80.3511 953.266 78.5431 945.577 78.5838 937.445C78.5844 936.991 78.585 936.537 78.5856 936.069C78.588 934.63 78.5933 933.19 78.5986 931.75C78.6008 930.769 78.6027 929.789 78.6044 928.808C78.609 926.414 78.6161 924.019 78.625 921.625C79.8107 922.205 80.857 922.82 81.9193 923.606C82.2301 923.835 82.541 924.064 82.8613 924.3C83.1948 924.549 83.5284 924.797 83.8721 925.053C84.2209 925.311 84.5697 925.569 84.929 925.836C89.0447 928.893 93.1236 931.999 97.1875 935.125C97.6967 935.516 97.6967 935.516 98.2161 935.915C100.653 937.796 102.948 939.779 105.203 941.875C105.475 942.119 105.747 942.363 106.027 942.615C109.807 946.165 112.931 950.615 115.75 954.953C117.987 950.048 116.14 945.819 114.59 940.979C114.221 939.793 113.855 938.607 113.494 937.419C113.27 936.685 113.04 935.952 112.805 935.221C112.14 933.089 111.797 931.121 111.708 928.886C111.425 927.39 110.472 926.61 109.437 925.55C102.633 917.846 101.678 907.361 102.25 897.578C102.99 890.644 106.996 882.707 111.953 877.75Z" fill="#437A3A"/>
<path id="Vector_34" d="M85.375 1026.25C109.877 1026.25 134.38 1026.25 159.625 1026.25C159.375 1030.25 159.122 1034.15 158.613 1038.1C158.525 1038.81 158.525 1038.81 158.435 1039.53C158.249 1041.02 158.059 1042.51 157.87 1044C157.753 1044.93 157.636 1045.86 157.519 1046.79C157.09 1050.21 156.656 1053.63 156.224 1057.05C154.775 1068.53 154.775 1068.53 153.297 1080.25C132.971 1080.25 112.645 1080.25 91.7031 1080.25C90.659 1071.97 89.6148 1063.68 88.539 1055.15C88.0435 1051.23 88.0435 1051.23 87.5379 1047.23C87.1362 1044.03 87.1362 1044.03 86.9485 1042.54C86.8174 1041.49 86.6855 1040.45 86.553 1039.41C86.352 1037.82 86.1537 1036.24 85.9559 1034.66C85.8966 1034.19 85.8373 1033.73 85.7762 1033.25C85.7231 1032.83 85.67 1032.4 85.6152 1031.95C85.5686 1031.58 85.5219 1031.21 85.4738 1030.83C85.3491 1029.31 85.375 1027.78 85.375 1026.25Z" fill="#715447"/>
<path id="Vector_35" d="M78.625 921.625C79.8107 922.205 80.857 922.82 81.9192 923.606C82.2301 923.835 82.541 924.064 82.8613 924.3C83.1948 924.549 83.5284 924.797 83.8721 925.053C84.3953 925.44 84.3953 925.44 84.929 925.836C89.0447 928.893 93.1235 931.999 97.1875 935.125C97.5269 935.386 97.8664 935.646 98.2161 935.915C100.653 937.796 102.948 939.779 105.203 941.875C105.611 942.241 105.611 942.241 106.027 942.615C108.045 944.51 109.717 946.646 111.399 948.836C111.746 949.287 111.746 949.287 112.099 949.746C112.766 950.63 113.415 951.524 114.062 952.422C114.271 952.691 114.48 952.961 114.695 953.238C116.378 955.58 116.399 957.512 116.251 960.332C116.231 961.161 116.214 961.991 116.2 962.82C116.189 963.41 116.189 963.41 116.177 964.011C116.147 970.266 118.862 976.55 122.5 981.531C122.639 981.67 122.778 981.81 122.922 981.953C122.929 983.14 122.91 984.315 122.871 985.501C122.856 986.034 122.856 986.034 122.841 986.578C122.808 987.717 122.773 988.856 122.737 989.995C122.715 990.766 122.693 991.536 122.671 992.306C122.616 994.199 122.559 996.092 122.5 997.984C121.186 997.497 120.092 997.008 118.996 996.132C118.75 995.937 118.504 995.742 118.25 995.54C117.999 995.338 117.749 995.135 117.49 994.926C117.243 994.729 116.995 994.533 116.74 994.331C116.238 993.93 115.738 993.525 115.242 993.115C114.735 992.703 114.216 992.304 113.689 991.918C111.548 990.28 110.867 988.688 110.107 986.146C107.086 977.108 100.104 970.185 91.7033 965.878C90.491 965.335 89.2431 964.963 87.9727 964.58C84.0848 963.396 84.0848 963.396 82.9327 962.156C82.4524 961.026 82.2315 959.958 82 958.75C81.8355 958.162 81.6652 957.576 81.4908 956.992C79.0242 948.484 78.4422 940.264 78.5459 931.434C78.5523 930.476 78.558 929.519 78.5632 928.561C78.5769 926.249 78.5979 923.937 78.625 921.625Z" fill="#5B9C51"/>
<path id="Vector_36" d="M187.047 904.75C187.083 905.118 187.12 905.485 187.157 905.864C187.796 911.275 189.889 915.607 192.34 920.387C193.648 923.027 193.469 925.598 193.476 928.476C193.48 929.387 193.493 930.298 193.507 931.209C193.555 937.413 192.378 943.57 188.238 948.439C184.608 951.856 181.16 952.214 176.342 952.184C175.603 952.197 175.603 952.197 174.849 952.21C169.917 952.207 166.657 950.95 163.086 947.547C160.321 944.478 159.563 941.594 159.524 937.552C159.521 937.212 159.518 936.871 159.514 936.521C159.508 935.799 159.504 935.077 159.5 934.356C159.496 933.627 159.487 932.899 159.475 932.17C159.337 924.15 160.964 918.074 166.593 912.059C171.761 907.223 179.964 904.43 187.047 904.75Z" fill="#ECEDEC"/>
<path id="Vector_37" d="M166.375 901.375C165.345 902.411 164.311 903.441 163.255 904.45C155.61 911.836 151.597 920.745 149.755 931.048C149.634 931.703 149.511 932.358 149.388 933.013C149.062 934.761 148.745 936.509 148.43 938.259C148.233 939.35 148.035 940.44 147.837 941.531C147.156 945.276 146.48 949.023 145.808 952.77C145.741 953.143 145.674 953.517 145.604 953.902C145.259 955.826 144.916 957.749 144.575 959.673C144.236 961.585 143.893 963.495 143.547 965.405C143.419 966.119 143.292 966.834 143.166 967.549C141.706 975.879 141.706 975.879 140.219 978.156C139.083 978.782 138.127 978.918 136.844 979C136.365 979.104 135.887 979.209 135.394 979.316C132.39 978.684 130.835 975.872 129.191 973.453C124.517 965.799 122.354 956.594 124.197 947.707C126.06 940.093 130.445 933.574 134.519 926.989C135.701 925.075 136.859 923.147 138.006 921.211C138.171 920.932 138.337 920.653 138.508 920.365C139.476 918.735 139.476 918.735 140.44 917.101C142.12 914.245 143.862 911.437 145.741 908.705C145.903 908.461 146.065 908.217 146.232 907.965C148.196 905.176 150.996 904.08 154.141 903.062C154.423 902.97 154.705 902.878 154.996 902.783C158.781 901.596 162.394 901.13 166.375 901.375Z" fill="#437A3A"/>
<path id="Vector_38" d="M172.002 951.904C172.404 951.909 172.806 951.913 173.221 951.918C173.873 951.922 173.873 951.922 174.539 951.926C175.223 951.937 175.223 951.937 175.92 951.947C176.379 951.951 176.838 951.955 177.311 951.959C178.447 951.969 179.583 951.983 180.719 952C179.398 954.722 177.297 956.714 175.119 958.785C169.116 964.555 166.16 971.086 163.844 979C164.185 978.991 164.527 978.982 164.878 978.973C176.557 978.712 186.034 980.662 196.75 985.328C196.611 985.607 196.472 985.885 196.328 986.172C195.075 986.322 193.841 986.429 192.584 986.515C178.769 987.711 168.867 994.356 158.19 1002.63C157.828 1002.91 157.466 1003.18 157.094 1003.47C156.853 1003.68 156.611 1003.9 156.363 1004.12C154.095 1006.04 152.439 1006.35 149.513 1006.25C149.125 1006.24 148.736 1006.24 148.336 1006.24C147.106 1006.22 145.878 1006.19 144.648 1006.16C143.81 1006.15 142.972 1006.13 142.134 1006.12C140.089 1006.1 138.045 1006.05 136 1006C136.671 1002.82 137.582 999.793 138.637 996.719C138.793 996.245 138.949 995.77 139.11 995.282C141.13 989.381 144.134 985.266 149.771 982.497C151.881 981.52 153.945 980.948 156.25 980.688C156.282 980.38 156.313 980.072 156.346 979.755C157.405 971.345 160.734 963.421 166.375 957.063C166.714 956.678 167.053 956.294 167.402 955.897C170.863 952.015 170.863 952.015 172.002 951.904Z" fill="#4F8C45"/>
<path id="Vector_39" d="M90.4375 1066.75C111.599 1066.75 132.76 1066.75 154.562 1066.75C154.281 1071.26 153.857 1075.77 153.297 1080.25C132.971 1080.25 112.645 1080.25 91.7031 1080.25C90.4375 1070.12 90.4375 1070.12 90.4375 1066.75Z" fill="#574138"/>
<path id="Vector_40" d="M111.953 877.75C112.232 877.75 112.51 877.75 112.797 877.75C112.833 878.067 112.87 878.383 112.907 878.709C113.485 882.92 114.786 886.511 117.859 889.562C119.04 890.423 120.308 891.128 121.584 891.837C123.647 893.066 125.02 894.457 125.875 896.734C126.159 898.545 126.155 900.31 126.112 902.14C126.105 902.645 126.097 903.15 126.089 903.671C125.845 912.797 123.232 921.751 117.859 929.219C117.515 929.736 117.172 930.254 116.831 930.774C116.614 931.096 116.396 931.418 116.172 931.75C110.227 929.256 106.453 921.623 104.059 916.073C102.553 911.903 102.025 907.766 102.065 903.353C102.069 902.855 102.073 902.357 102.077 901.844C102.249 893.129 105.666 884.037 111.953 877.75Z" fill="#EBECEB"/>
<path id="Vector_41" d="M146.547 906.859C146.965 907.068 146.965 907.068 147.391 907.281C147.169 907.566 146.948 907.85 146.72 908.143C143.777 912.085 141.309 916.274 138.85 920.526C138.538 921.066 138.226 921.606 137.913 922.146C137.757 922.416 137.601 922.686 137.44 922.964C136.028 925.392 134.562 927.784 133.088 930.174C126.925 940.171 122.368 949.439 124.688 961.439C126.204 967.5 128.865 974.538 133.891 978.578C135.385 978.93 135.385 978.93 136.844 978.578C137.392 978.509 137.94 978.439 138.505 978.367C138.931 978.298 139.358 978.228 139.797 978.156C137.869 981.642 134.759 984.162 130.938 985.328C130.52 985.328 130.102 985.328 129.672 985.328C129.533 992.15 129.393 998.972 129.25 1006C127.023 1006 124.795 1006 122.5 1006C122.513 1005.29 122.527 1004.58 122.54 1003.85C122.581 1001.5 122.61 999.145 122.631 996.791C122.644 995.365 122.662 993.939 122.691 992.513C122.722 990.87 122.736 989.228 122.747 987.584C122.76 987.078 122.773 986.571 122.787 986.05C122.788 982.631 122.081 980.801 119.969 978.156C115.248 970.041 114.959 961.02 116.594 952C116.69 951.708 116.786 951.415 116.885 951.114C117.083 949.258 116.496 947.707 115.949 945.942C115.836 945.561 115.723 945.18 115.607 944.787C115.125 943.16 114.632 941.536 114.139 939.913C113.78 938.725 113.428 937.535 113.075 936.344C112.963 935.983 112.851 935.622 112.736 935.249C112.035 932.878 111.847 930.848 111.953 928.375C112.681 929.007 113.409 929.638 114.137 930.27C114.963 930.975 114.963 930.975 116.172 931.75C116.315 931.293 116.315 931.293 116.462 930.827C117.12 929.416 117.987 928.579 119.125 927.531C119.161 927.813 119.198 928.096 119.235 928.387C119.808 932.302 120.908 935.997 122.078 939.766C123.381 938.63 124.17 937.211 125.028 935.735C125.189 935.461 125.351 935.187 125.517 934.904C125.862 934.317 126.207 933.729 126.552 933.141C127.453 931.601 128.363 930.066 129.271 928.53C129.451 928.225 129.632 927.921 129.817 927.607C139.176 911.773 139.176 911.773 146.547 906.859Z" fill="#305B26"/>
<path id="Vector_42" d="M90.0156 1006C115.214 1006 140.413 1006 166.375 1006C166.375 1009.34 166.375 1012.68 166.375 1016.12C157.592 1016.16 148.809 1016.19 140.026 1016.21C135.947 1016.22 131.869 1016.23 127.791 1016.25C124.235 1016.27 120.679 1016.28 117.123 1016.28C115.241 1016.29 113.36 1016.29 111.478 1016.3C109.704 1016.31 107.931 1016.32 106.157 1016.32C105.509 1016.32 104.86 1016.32 104.212 1016.33C100.178 1016.36 96.5283 1016.21 93.2209 1013.65C91.283 1011.27 90.0156 1009.17 90.0156 1006Z" fill="#674C41"/>
<path id="Vector_43" d="M78.625 921.625C82.2885 923.43 86.5107 925.966 88.221 929.789C88.9405 931.309 89.8558 932.668 90.7803 934.07C91.1876 934.694 91.5947 935.318 92.0014 935.942C92.222 936.281 92.4426 936.619 92.6698 936.967C94.0462 939.088 95.4046 941.221 96.7656 943.352C99.3356 947.372 99.3356 947.372 101.923 951.382C102.279 951.93 102.634 952.48 102.988 953.029C104.018 954.628 105.06 956.218 106.116 957.8C106.756 958.762 107.391 959.728 108.024 960.694C108.492 961.402 108.967 962.107 109.442 962.811C109.725 963.244 110.008 963.677 110.3 964.124C110.558 964.511 110.816 964.899 111.081 965.298C111.531 966.344 111.531 966.344 111.243 967.281C110.529 968.245 109.75 968.765 108.736 969.402C108.392 969.622 108.047 969.842 107.692 970.068C107.427 970.231 107.163 970.394 106.891 970.562C105.526 969.99 104.912 969.473 104.171 968.198C103.898 967.737 103.898 967.737 103.62 967.267C103.429 966.936 103.238 966.605 103.041 966.265C102.626 965.566 102.21 964.868 101.794 964.17C101.586 963.822 101.378 963.474 101.165 963.116C100.327 961.738 99.4377 960.4 98.5322 959.066C96.5167 956.085 94.5859 953.053 92.6595 950.014C90.8759 947.201 89.0758 944.399 87.2579 941.607C86.3204 940.165 85.4046 938.717 84.5312 937.234C84.7668 946.378 88.2567 955.969 92.1448 964.142C92.5469 965.078 92.5469 965.078 92.5469 965.922C91.6715 965.63 90.7967 965.336 89.925 965.034C88.735 964.634 88.735 964.634 87.43 964.345C84.1078 963.485 84.1078 963.485 83.0646 962.204C82.5789 961.067 82.2904 959.953 82 958.75C81.8297 958.162 81.657 957.575 81.4825 956.988C81.2932 956.328 81.1053 955.667 80.9189 955.006C80.8352 954.711 80.7515 954.416 80.6653 954.113C78.6957 946.603 78.4552 939.155 78.5459 931.434C78.5523 930.476 78.558 929.519 78.5632 928.561C78.5769 926.249 78.5979 923.937 78.625 921.625Z" fill="#508C45"/>
<path id="Vector_44" d="M75.25 962.125C75.3892 962.125 75.5284 962.125 75.6719 962.125C75.7388 962.595 75.8057 963.065 75.8746 963.549C76.9444 970.701 78.917 976.885 82.4219 983.219C82.6563 983.645 82.8907 984.071 83.1321 984.511C86.7848 990.677 92.1873 994.764 98.875 997.141C98.6516 996.812 98.6516 996.812 98.4237 996.477C97.7459 995.478 97.0712 994.477 96.3965 993.476C96.0449 992.959 96.0449 992.959 95.6862 992.432C95.4605 992.096 95.2349 991.76 95.0023 991.414C94.7947 991.107 94.587 990.8 94.373 990.483C93.8125 989.547 93.8125 989.547 92.9688 987.437C95.2659 985.767 95.2659 985.767 97.6094 984.062C99.5078 985.012 99.5078 985.012 100.34 986.28C100.526 986.559 100.712 986.837 100.903 987.124C101.097 987.425 101.292 987.725 101.492 988.034C101.696 988.342 101.899 988.65 102.109 988.967C102.757 989.949 103.4 990.934 104.043 991.92C104.482 992.587 104.922 993.254 105.361 993.921C106.438 995.554 107.509 997.19 108.578 998.828C109.787 997.619 109.941 996.173 110.318 994.557C110.395 994.239 110.472 993.92 110.551 993.593C110.74 992.807 110.925 992.021 111.109 991.234C111.249 991.234 111.388 991.234 111.531 991.234C111.543 992.43 111.551 993.625 111.558 994.82C111.561 995.154 111.565 995.488 111.568 995.832C111.575 997.479 111.519 999.037 111.254 1000.66C110.989 1002.14 110.989 1002.14 111.53 1003.15C111.73 1003.38 111.931 1003.6 112.138 1003.84C113.219 1005.1 113.219 1005.1 113.219 1006C103.912 1006.33 95.676 1005.16 88.5654 998.67C80.4968 990.93 75.4165 979.499 75.1758 968.265C75.1597 966.217 75.1934 964.172 75.25 962.125Z" fill="#305B26"/>
<path id="Vector_45" d="M192.531 985.328C192.74 985.746 192.74 985.746 192.953 986.172C192.527 986.248 192.527 986.248 192.092 986.325C179.018 988.694 169.128 993.364 159.025 1002.11C155.728 1004.92 153.456 1006.59 149.004 1006.28C148.323 1006.21 147.645 1006.11 146.969 1006C150.677 999.559 156.619 994.459 163.844 992.5C163.661 991.974 163.661 991.974 163.475 991.437C163.318 990.979 163.161 990.52 163 990.048C162.843 989.593 162.687 989.137 162.525 988.668C162.156 987.437 162.156 987.437 162.156 986.172C155.543 988.453 149.664 992.026 145.281 997.562C144.859 996.297 144.859 996.297 145.238 995.292C148.564 989.116 152.873 986.379 159.443 984.376C170.192 981.288 181.992 981.36 192.531 985.328Z" fill="#5B9C51"/>
<path id="Vector_46" d="M178.609 925C180.713 926.052 182.194 927.528 183.25 929.641C183.294 930.325 183.313 931.012 183.318 931.698C183.322 932.126 183.326 932.554 183.33 932.995C183.332 933.459 183.334 933.922 183.336 934.4C183.338 934.874 183.341 935.349 183.343 935.837C183.347 936.842 183.35 937.846 183.351 938.85C183.355 940.392 183.369 941.934 183.382 943.475C183.385 944.449 183.387 945.423 183.388 946.397C183.394 946.861 183.399 947.324 183.404 947.802C183.403 948.23 183.402 948.658 183.4 949.099C183.403 949.665 183.403 949.665 183.405 950.244C183.354 950.545 183.303 950.846 183.25 951.156C181.766 952.145 181.153 952.104 179.399 952.097C178.893 952.096 178.387 952.096 177.865 952.095C177.336 952.09 176.808 952.084 176.263 952.079C175.732 952.079 175.202 952.079 174.655 952.078C170.712 952.059 170.712 952.059 169.75 951.578C169.707 948.5 169.678 945.422 169.657 942.344C169.649 941.298 169.637 940.251 169.623 939.204C169.602 937.698 169.593 936.193 169.585 934.687C169.572 933.986 169.572 933.986 169.559 933.272C169.558 930.654 169.668 929.092 171.438 927.109C173.811 925.018 175.483 924.654 178.609 925Z" fill="#F8D368"/>
<path id="Vector_47" d="M136 934.281C136.897 934.482 137.793 934.685 138.689 934.888C139.438 935.057 139.438 935.057 140.202 935.229C141.484 935.547 141.484 935.547 142.328 935.969C142.049 938.249 141.562 940.409 140.968 942.626C140.873 942.985 140.778 943.343 140.681 943.712C140.37 944.888 140.056 946.064 139.742 947.239C139.525 948.058 139.308 948.876 139.092 949.695C138.522 951.843 137.951 953.991 137.379 956.139C136.796 958.333 136.214 960.528 135.632 962.722C134.491 967.024 133.348 971.325 132.203 975.625C131.785 975.625 131.368 975.625 130.937 975.625C130.198 974.761 130.198 974.761 129.435 973.621C129.182 973.249 128.929 972.877 128.668 972.494C127.177 970.122 127.025 968.693 127.562 965.922C128.14 963.477 128.792 961.054 129.449 958.63C129.638 957.926 129.827 957.222 130.015 956.518C130.509 954.676 131.005 952.835 131.503 950.994C132.011 949.111 132.516 947.227 133.021 945.343C134.011 941.655 135.004 937.968 136 934.281Z" fill="#4F8B44"/>
<path id="Vector_48" d="M172.002 951.904C172.404 951.909 172.806 951.913 173.221 951.918C173.873 951.922 173.873 951.922 174.539 951.926C175.223 951.937 175.223 951.937 175.92 951.947C176.379 951.951 176.838 951.955 177.311 951.959C178.447 951.969 179.583 951.983 180.719 952C179.398 954.722 177.297 956.714 175.119 958.785C169.07 964.599 165.844 971.31 163.844 979.422C161.338 979.84 158.832 980.257 156.25 980.688C157.271 971.906 160.468 963.72 166.375 957.063C166.714 956.678 167.053 956.294 167.402 955.897C170.863 952.015 170.863 952.015 172.002 951.904Z" fill="#437A3A"/>
<path id="Vector_49" d="M115.75 897.578C116.509 898.337 116.357 899.496 116.452 900.525C116.503 901.066 116.553 901.606 116.606 902.164C116.659 902.759 116.713 903.355 116.767 903.951C116.823 904.559 116.879 905.167 116.935 905.775C117.053 907.053 117.17 908.331 117.285 909.609C117.433 911.242 117.583 912.876 117.735 914.51C117.851 915.767 117.966 917.025 118.081 918.283C118.136 918.885 118.192 919.487 118.247 920.089C118.325 920.934 118.401 921.779 118.477 922.624C118.521 923.104 118.565 923.584 118.61 924.079C118.884 928.021 118.884 928.021 117.438 930.01C117.203 930.339 116.968 930.669 116.726 931.008C116.452 931.375 116.452 931.375 116.172 931.75C114.375 931.059 112.93 930.033 111.953 928.375C111.408 926.131 111.225 923.867 111.03 921.572C110.966 920.911 110.901 920.25 110.835 919.589C110.701 918.247 110.574 916.904 110.45 915.56C110.282 913.752 110.088 911.947 109.882 910.142C109.822 909.612 109.762 909.083 109.7 908.537C109.588 907.552 109.476 906.567 109.364 905.582C109.088 903.036 108.946 900.561 109 898C111.262 897.719 113.468 897.483 115.75 897.578Z" fill="#F8D46A"/>
<path id="Vector_50" d="M165.953 912.766C166.375 913.609 166.375 913.609 166.154 914.433C165.976 914.913 165.976 914.913 165.795 915.402C164.565 918.737 164.569 922.106 164.54 925.618C164.533 926.221 164.521 926.824 164.505 927.427C164.391 931.734 164.553 935.995 167.587 939.383C167.853 939.648 168.12 939.914 168.394 940.188C170.021 941.891 170.061 943.324 170.01 945.621C169.985 946.055 169.96 946.49 169.935 946.938C169.921 947.385 169.908 947.833 169.894 948.294C169.86 949.39 169.811 950.483 169.75 951.578C165.474 950.133 162.482 947.646 160.401 943.581C159.585 941.595 159.545 939.677 159.524 937.552C159.521 937.212 159.518 936.872 159.514 936.521C159.508 935.799 159.504 935.078 159.5 934.356C159.496 933.627 159.487 932.899 159.475 932.17C159.344 924.559 160.735 918.598 165.953 912.766Z" fill="#BCBDBC"/>
<path id="Vector_51" d="M103.094 893.781C103.233 893.781 103.372 893.781 103.516 893.781C103.552 894.185 103.588 894.589 103.626 895.006C104.291 901.602 105.789 909.976 110.687 914.875C110.899 915.944 110.899 915.944 111.047 917.283C111.101 917.765 111.155 918.248 111.212 918.745C111.265 919.252 111.318 919.758 111.373 920.28C111.43 920.782 111.486 921.284 111.544 921.801C111.771 923.861 111.989 925.878 111.953 927.953C110.235 926.715 109.086 925.354 107.972 923.576C107.808 923.318 107.645 923.059 107.477 922.793C103.701 916.648 102.016 910.385 102.118 903.168C102.117 902.681 102.115 902.195 102.114 901.693C102.131 898.926 102.38 896.455 103.094 893.781Z" fill="#BCBDBB"/>
<path id="Vector_52" d="M118.703 927.531C118.842 927.531 118.982 927.531 119.125 927.531C119.161 927.813 119.198 928.096 119.235 928.387C119.684 931.454 120.43 934.34 121.371 937.286C122.119 939.681 122.515 941.006 121.37 943.284C121.065 943.793 120.756 944.299 120.443 944.802C119.348 946.588 118.447 948.287 117.859 950.312C117.016 949.891 117.016 949.891 116.722 949.193C116.634 948.89 116.546 948.588 116.455 948.276C116.354 947.934 116.253 947.592 116.148 947.239C116.042 946.865 115.935 946.492 115.826 946.107C115.715 945.723 115.603 945.34 115.489 944.944C115.254 944.129 115.021 943.313 114.789 942.497C114.436 941.257 114.074 940.02 113.711 938.783C113.484 937.99 113.257 937.197 113.031 936.404C112.923 936.037 112.815 935.67 112.703 935.293C112.038 932.912 111.851 930.847 111.953 928.375C113.045 929.323 113.045 929.323 114.137 930.27C114.963 930.975 114.963 930.975 116.172 931.75C116.328 931.293 116.328 931.293 116.488 930.827C117.064 929.531 117.765 928.59 118.703 927.531Z" fill="#447A3A"/>
<path id="Vector_53" d="M111.531 989.969C113.25 991.257 114.968 992.546 116.683 993.84C117.118 994.167 117.118 994.167 117.561 994.501C118.157 994.95 118.752 995.4 119.347 995.849C119.634 996.065 119.921 996.281 120.216 996.503C120.601 996.794 120.601 996.794 120.994 997.09C121.663 997.593 121.663 997.593 122.5 997.984C122.5 1000.63 122.5 1003.27 122.5 1006C119.024 1006.28 117.35 1005.78 114.669 1003.6C114.37 1003.38 114.07 1003.15 113.762 1002.92C111.627 1001.26 111.627 1001.26 111.232 999.935C111.109 998.824 111.099 997.799 111.16 996.684C111.181 996.291 111.201 995.898 111.222 995.493C111.246 995.089 111.27 994.684 111.294 994.267C111.316 993.854 111.338 993.441 111.361 993.015C111.415 991.999 111.472 990.984 111.531 989.969Z" fill="#4F8B44"/>
<path id="Vector_54" d="M169.75 942.297C171.859 943.141 171.859 943.141 173.125 943.8C175.346 944.864 177.586 944.933 180.007 945.065C180.319 945.084 180.632 945.102 180.954 945.121C181.719 945.165 182.484 945.208 183.25 945.25C183.284 946.217 183.309 947.183 183.329 948.15C183.351 948.958 183.351 948.958 183.374 949.782C183.333 950.235 183.292 950.689 183.25 951.156C181.766 952.145 181.153 952.104 179.399 952.097C178.893 952.096 178.387 952.096 177.865 952.095C177.336 952.09 176.808 952.084 176.263 952.079C175.732 952.079 175.202 952.079 174.655 952.078C170.712 952.059 170.712 952.059 169.75 951.578C169.75 948.515 169.75 945.452 169.75 942.297Z" fill="#F6C143"/>
<path id="Vector_55" d="M111.109 916.141C111.786 916.714 112.461 917.291 113.126 917.878C113.791 918.442 114.48 918.978 115.183 919.493C117.36 921.188 118.554 922.409 118.914 925.211C118.937 927.986 117.988 929.713 116.172 931.75C114.404 930.9 112.961 930.103 111.953 928.375C111.007 924.379 110.983 920.228 111.109 916.141Z" fill="#F4C144"/>
<path id="Vector_56" d="M190.844 942.719C190.983 942.997 191.122 943.276 191.266 943.562C190.055 946.917 187.469 949.437 184.478 951.277C183.672 951.578 183.672 951.578 182.406 951.156C182.685 951.156 182.963 951.156 183.25 951.156C183.25 949.207 183.25 947.258 183.25 945.25C184.61 944.962 185.969 944.673 187.329 944.385C188.688 943.998 189.677 943.503 190.844 942.719Z" fill="#BCBDBB"/>
<path id="Vector_57" d="M118.281 922.469C119.117 922.886 119.952 923.304 120.812 923.734C120.285 925.194 119.684 926.328 118.703 927.531C118.289 925.821 118.247 924.224 118.281 922.469Z" fill="#BEBDB7"/>
<path id="Vector_58" d="M111.953 877.75C112.232 877.75 112.51 877.75 112.797 877.75C112.797 878.864 112.797 879.977 112.797 881.125C112.518 880.568 112.24 880.011 111.953 879.438C111.257 879.994 110.561 880.551 109.844 881.125C110.421 879.881 111.058 878.794 111.953 877.75Z" fill="#DEDFDE"/>
<path id="Vector_59" d="M169.328 909.812C169.607 909.952 169.885 910.091 170.172 910.234C169.058 911.348 167.944 912.462 166.797 913.609C166.658 913.192 166.518 912.774 166.375 912.344C167.35 911.508 168.324 910.673 169.328 909.812Z" fill="#E0E0E0"/>
</g>
</g>
<defs>
<clipPath id="clip0_30_2">
<rect width="975" height="1080" fill="white"/>
</clipPath>
</defs>
</svg>
