<svg width="1000" height="1200" viewBox="0 0 1000 1200" fill="none" xmlns="http://www.w3.org/2000/svg">
<g id="Frame 8" clip-path="url(#clip0_48_2)">
<path id="frame-horizontal" d="M800 1143H200V1119H800V1143ZM776 1086C789.255 1086 800 1096.75 800 1110H200C200 1096.75 210.745 1086 224 1086H776ZM800 324C800 337.255 789.255 348 776 348H224C210.745 348 200 337.255 200 324H800ZM800 314H200V290H800V314Z" fill="black"/>
<path id="frame-feet" d="M776 1203H696V1153H776V1203ZM304 1200H224V1150H304V1200Z" fill="black"/>
<path id="frame-vertical" d="M248 1086H224V348H248V1086ZM776 1086H752V348H776V1086Z" fill="black"/>
<g id="spider-plant">
<path id="Vector" d="M241.266 60.75C241.585 60.75 241.905 60.75 242.234 60.75C246.528 72.8542 250.811 84.9618 255.07 97.0782C258.133 105.79 261.206 114.498 264.293 123.202C266.47 129.342 268.64 135.485 270.799 141.632C271.775 144.411 272.752 147.188 273.734 149.965C275.4 154.685 277.063 159.404 278.669 164.145C279.313 166.041 279.966 167.935 280.62 169.828C280.919 170.702 281.214 171.577 281.504 172.454C283.514 178.805 283.514 178.805 288.25 183.297C288.41 183.457 288.57 183.617 288.734 183.781C288.451 180.102 287.971 176.495 287.355 172.858C282.628 143.953 282.58 117.408 300.06 92.5088C302.828 88.7236 305.758 84.8494 309.562 82.0625C309.286 87.1122 308.283 92.0336 307.353 96.993C307.18 97.9209 307.008 98.8488 306.837 99.7767C306.387 102.207 305.934 104.636 305.48 107.065C304.754 110.958 304.031 114.851 303.31 118.744C303.058 120.098 302.805 121.451 302.552 122.804C302.397 123.638 302.242 124.473 302.087 125.308C302.017 125.679 301.947 126.051 301.875 126.434C300.94 131.486 300.727 136.45 300.723 141.58C300.722 141.96 300.722 142.34 300.721 142.732C300.726 148.316 300.96 153.633 302.297 159.078C302.437 159.686 302.578 160.293 302.723 160.919C303.549 164.247 304.599 167.46 305.754 170.686C305.888 171.063 306.021 171.439 306.159 171.827C306.486 172.744 306.813 173.661 307.141 174.578C307.143 174.295 307.146 174.011 307.149 173.719C307.181 170.7 307.222 167.681 307.268 164.662C307.284 163.544 307.297 162.425 307.308 161.306C307.512 141.468 311.277 122.373 319.734 104.344C319.925 103.933 320.117 103.522 320.313 103.099C328.273 86.147 340.116 71.3665 358.089 64.6213C365.784 61.881 373.072 60.4564 381.25 60.75C380.601 62.5709 379.789 63.9413 378.616 65.4727C356.488 95.3616 342.347 132.202 334.266 188.141C334.501 187.582 334.737 187.023 334.98 186.447C346.45 159.252 346.45 159.252 351.268 147.987C351.678 147.027 352.088 146.067 352.498 145.107C360.303 126.863 370.452 110.519 384.156 96.1094C384.618 95.605 385.08 95.1004 385.541 94.5958C390.748 89.018 397.881 84.4286 405.705 83.922C416.355 83.7506 425.017 85.2061 433.078 92.7188C437.902 97.4109 440.969 103.397 443.25 109.672C443.25 110.151 443.25 110.631 443.25 111.125C441.461 110.458 439.873 109.643 438.236 108.663C437.743 108.372 437.251 108.08 436.743 107.779C435.723 107.17 434.704 106.561 433.685 105.951C426.586 101.749 420.256 98.922 411.828 100.556C403.406 102.764 398.446 107.95 393.59 114.868C393.337 115.228 393.083 115.588 392.822 115.959C390.072 119.882 387.389 123.849 384.731 127.836C384.48 128.212 384.229 128.589 383.971 128.977C379.625 135.503 375.482 142.114 371.562 148.906C371.303 149.351 371.044 149.796 370.776 150.255C366.053 158.366 361.772 166.7 357.516 175.063C359.277 174.228 360.579 173.194 362.057 171.914C374.762 161.169 387.251 156.74 404.016 157.625C415.512 158.884 425.896 165.569 433.396 174.126C437.748 179.573 442.161 187.416 443.25 194.438C443.103 195.087 442.943 195.734 442.766 196.375C442.4 196.002 442.034 195.628 441.657 195.244C440.275 193.834 438.887 192.43 437.497 191.027C436.901 190.424 436.307 189.819 435.714 189.213C427.614 180.945 419.059 174.348 407.047 173.611C397.291 173.6 388.61 177.021 381.373 183.585C380.034 185.014 378.969 186.528 377.859 188.141C378.152 188.148 378.444 188.155 378.745 188.162C390.155 188.47 399.229 190.426 407.491 198.91C409.427 201.15 410.85 203.568 412.155 206.214C412.407 206.722 412.407 206.722 412.664 207.24C414.451 210.89 416.01 214.624 417.548 218.384C417.86 219.141 418.173 219.899 418.486 220.656C419.144 222.248 419.8 223.841 420.455 225.434C421.933 229.028 423.424 232.617 424.913 236.206C425.421 237.432 425.93 238.658 426.438 239.884C429.219 246.595 432.01 253.303 434.804 260.01C435.005 260.493 435.206 260.976 435.413 261.474C435.807 262.418 436.2 263.362 436.594 264.306C436.972 265.214 437.349 266.121 437.726 267.029C438.647 269.243 439.58 271.449 440.538 273.647C440.722 274.071 440.906 274.496 441.095 274.933C441.442 275.734 441.793 276.533 442.148 277.33C443.304 280.009 443.304 280.009 442.766 281.625C439.842 277.689 436.973 273.724 434.208 269.674C432.426 267.066 430.623 264.473 428.81 261.887C428.524 261.48 428.239 261.073 427.945 260.654C427.363 259.824 426.781 258.994 426.199 258.164C424.777 256.136 423.357 254.107 421.938 252.078C421.372 251.271 420.807 250.464 420.242 249.656C415.156 242.391 410.07 235.125 404.984 227.859C404.983 228.256 404.981 228.652 404.979 229.061C404.961 232.83 404.933 236.598 404.895 240.367C404.876 242.303 404.861 244.24 404.853 246.176C404.846 248.052 404.829 249.926 404.806 251.801C404.799 252.51 404.795 253.22 404.795 253.929C404.787 260.352 403.769 266.39 400.716 272.119C400.55 272.441 400.384 272.763 400.213 273.094C398.841 275.683 397.215 277.957 395.297 280.172C395.008 280.556 394.719 280.94 394.421 281.336C388.788 288.013 379.633 292.423 371.011 293.363C368.365 293.536 365.717 293.514 363.067 293.501C362.19 293.503 361.313 293.507 360.436 293.511C358.076 293.52 355.717 293.516 353.357 293.51C350.874 293.505 348.391 293.51 345.908 293.513C341.741 293.516 337.573 293.512 333.406 293.503C328.604 293.492 323.803 293.496 319.001 293.506C314.861 293.515 310.72 293.516 306.579 293.511C304.114 293.508 301.649 293.508 299.184 293.514C296.865 293.52 294.547 293.516 292.228 293.505C291.383 293.502 290.538 293.503 289.692 293.507C282.92 293.538 276.711 292.706 270.631 289.466C270.309 289.3 269.987 289.133 269.655 288.962C267.067 287.589 264.786 285.974 262.578 284.047C262.109 283.673 261.64 283.299 261.157 282.914C254.595 277.436 250.171 268.069 249.392 259.625C249.232 256.496 249.277 253.365 249.311 250.233C249.314 249.234 249.317 248.234 249.319 247.235C249.326 244.628 249.345 242.022 249.367 239.416C249.387 236.747 249.396 234.077 249.405 231.408C249.426 226.189 249.46 220.969 249.5 215.75C254.615 215.75 259.73 215.75 265 215.75C266.051 208.294 266.051 208.294 264.278 201.045C262.397 199.214 260.144 198.053 257.801 196.91C256.362 196.166 255.181 195.211 253.95 194.165C253.327 193.642 253.327 193.642 252.692 193.107C250.289 191.016 247.932 188.884 245.625 186.688C245.335 186.411 245.045 186.135 244.746 185.851C240.744 182.012 237.094 178.071 233.774 173.63C232.931 172.506 232.075 171.392 231.219 170.277C227.787 165.807 224.403 161.304 221.077 156.754C219.526 154.639 217.953 152.543 216.354 150.463C215.996 149.997 215.638 149.531 215.268 149.05C214.568 148.141 213.865 147.233 213.161 146.327C212.688 145.715 212.688 145.715 212.207 145.09C211.925 144.727 211.644 144.365 211.354 143.991C210.75 143.094 210.75 143.094 210.75 142.125C212.526 142.426 214.054 142.92 215.706 143.632C216.203 143.844 216.699 144.057 217.211 144.276C217.745 144.508 218.28 144.739 218.831 144.978C219.391 145.219 219.951 145.459 220.528 145.707C222.035 146.355 223.54 147.005 225.046 147.656C226.598 148.327 228.152 148.995 229.706 149.664C232.711 150.958 235.715 152.255 238.718 153.553C240.491 154.318 242.264 155.082 244.038 155.846C245.647 156.539 247.256 157.233 248.864 157.928C249.399 158.158 249.933 158.389 250.484 158.626C254.057 160.176 257.595 161.792 261.125 163.438C260.895 163.007 260.895 163.007 260.661 162.569C245.031 133.227 239.011 103.224 240.781 70.0743C240.828 69.1617 240.875 68.249 240.921 67.3364C241.033 65.1408 241.149 62.9454 241.266 60.75ZM368.656 204.125C366.154 207.878 364.425 211.618 362.359 215.75C373.389 215.75 384.418 215.75 395.781 215.75C390.149 209.179 382.323 205.241 373.663 204.447C371.994 204.323 370.327 204.215 368.656 204.125ZM290.188 214.297C290.028 214.776 289.868 215.256 289.703 215.75C291.302 215.75 292.9 215.75 294.547 215.75C293.003 214.721 291.997 214.538 290.188 214.297Z" fill="#48813E"/>
<path id="Vector_2" d="M249.5 215.75C254.775 215.75 260.05 215.75 265.484 215.75C265.824 218.208 266.164 220.665 266.514 223.197C268.817 239.196 273.324 253.833 280.016 268.547C280.02 268.232 280.025 267.917 280.029 267.592C280.246 255.334 281.443 243.375 284.345 231.462C284.424 231.137 284.503 230.812 284.584 230.477C287.226 219.735 287.226 219.735 289.219 215.75C303.18 215.659 317.142 215.591 331.104 215.549C332.394 215.545 333.684 215.541 334.975 215.537C335.295 215.536 335.616 215.535 335.946 215.534C340.815 215.518 345.683 215.491 350.552 215.458C356.202 215.419 361.851 215.394 367.501 215.385C370.493 215.38 373.485 215.368 376.477 215.34C379.293 215.314 382.109 215.306 384.925 215.312C385.958 215.311 386.992 215.303 388.025 215.288C395.815 215.182 395.815 215.182 398.05 216.541C398.93 217.525 399.524 218.462 400.14 219.625C400.552 220.126 400.974 220.619 401.408 221.1C404.628 225.271 405.119 228.74 404.994 233.91C404.99 234.666 404.989 235.421 404.989 236.177C404.984 237.751 404.966 239.324 404.935 240.898C404.897 242.894 404.886 244.889 404.885 246.885C404.882 248.443 404.87 250 404.853 251.558C404.846 252.293 404.841 253.028 404.838 253.762C404.796 260.232 403.802 266.328 400.716 272.119C400.55 272.441 400.384 272.763 400.213 273.094C398.841 275.683 397.215 277.957 395.297 280.172C395.008 280.556 394.719 280.94 394.421 281.335C388.788 288.013 379.633 292.423 371.011 293.363C368.365 293.536 365.717 293.514 363.067 293.501C362.19 293.503 361.313 293.507 360.436 293.511C358.076 293.52 355.717 293.516 353.357 293.51C350.874 293.505 348.391 293.51 345.908 293.513C341.741 293.516 337.573 293.512 333.406 293.503C328.604 293.492 323.803 293.495 319.001 293.506C314.86 293.515 310.72 293.516 306.579 293.511C304.114 293.508 301.649 293.508 299.184 293.514C296.865 293.52 294.547 293.516 292.228 293.505C291.383 293.502 290.538 293.503 289.692 293.507C282.92 293.538 276.711 292.706 270.631 289.466C270.148 289.216 270.148 289.216 269.655 288.962C267.067 287.589 264.786 285.973 262.578 284.047C262.109 283.673 261.64 283.299 261.157 282.913C254.595 277.436 250.171 268.069 249.392 259.625C249.232 256.496 249.277 253.365 249.311 250.233C249.314 249.234 249.317 248.234 249.319 247.235C249.326 244.628 249.345 242.022 249.367 239.416C249.387 236.747 249.396 234.077 249.405 231.408C249.426 226.189 249.46 220.969 249.5 215.75Z" fill="#674D41"/>
<path id="Vector_3" d="M241.266 60.75C241.585 60.75 241.905 60.75 242.234 60.75C246.528 72.8541 250.811 84.9618 255.07 97.0781C258.133 105.79 261.206 114.498 264.293 123.202C266.47 129.342 268.64 135.485 270.799 141.632C271.775 144.411 272.752 147.188 273.734 149.965C275.4 154.684 277.063 159.404 278.669 164.145C279.313 166.041 279.966 167.935 280.62 169.828C280.919 170.701 281.214 171.577 281.504 172.454C283.569 178.761 283.569 178.761 288.25 183.297C289.216 184.212 290.109 185.189 291.005 186.173C291.247 186.438 291.49 186.703 291.74 186.976C297.475 193.32 302.585 200.048 307.02 207.364C307.19 207.646 307.361 207.928 307.537 208.218C308.991 210.663 310.251 213.196 311.5 215.75C309.165 215.774 306.831 215.792 304.496 215.803C303.704 215.808 302.911 215.815 302.119 215.823C294.013 215.907 294.013 215.907 290.188 214.781C282.114 231.227 280.853 251.547 280.5 269.516C279.358 268.104 278.621 266.744 277.931 265.067C277.729 264.582 277.528 264.096 277.32 263.596C277.111 263.082 276.901 262.568 276.686 262.038C276.36 261.243 276.36 261.243 276.027 260.431C275.602 259.39 275.178 258.348 274.755 257.306C274.335 256.276 273.904 255.252 273.467 254.229C268.922 243.269 267.183 231.294 265.484 219.625C265.41 219.138 265.41 219.138 265.333 218.641C265.037 216.563 265.018 214.692 265.242 212.609C265.946 206.626 265.946 206.626 264.28 201.062C262.395 199.224 260.151 198.056 257.801 196.91C256.362 196.166 255.181 195.211 253.95 194.165C253.327 193.641 253.327 193.641 252.692 193.107C250.289 191.016 247.932 188.884 245.625 186.688C245.335 186.411 245.045 186.135 244.746 185.85C240.744 182.012 237.094 178.071 233.774 173.63C232.931 172.506 232.075 171.392 231.219 170.277C227.787 165.807 224.403 161.304 221.077 156.754C219.526 154.639 217.953 152.543 216.354 150.463C215.996 149.997 215.638 149.531 215.268 149.05C214.568 148.141 213.865 147.233 213.161 146.327C212.688 145.715 212.688 145.715 212.207 145.09C211.925 144.727 211.644 144.365 211.354 143.991C210.75 143.094 210.75 143.094 210.75 142.125C212.526 142.426 214.054 142.92 215.706 143.632C216.203 143.844 216.699 144.057 217.211 144.276C217.745 144.508 218.28 144.739 218.831 144.978C219.391 145.219 219.951 145.459 220.528 145.707C222.035 146.355 223.54 147.005 225.046 147.656C226.598 148.327 228.152 148.995 229.706 149.664C232.711 150.958 235.715 152.255 238.718 153.553C240.491 154.318 242.264 155.082 244.038 155.846C245.647 156.539 247.256 157.233 248.864 157.928C249.399 158.158 249.933 158.389 250.484 158.626C254.057 160.176 257.595 161.792 261.125 163.438C260.895 163.007 260.895 163.007 260.661 162.569C245.031 133.227 239.011 103.224 240.781 70.0742C240.828 69.1616 240.875 68.249 240.921 67.3364C241.033 65.1408 241.149 62.9453 241.266 60.75Z" fill="#437A3B"/>
<path id="Vector_4" d="M425.703 166.856C433.941 173.329 441.59 183.73 443.25 194.437C443.103 195.087 442.943 195.733 442.766 196.375C442.4 196.002 442.034 195.628 441.657 195.244C440.275 193.834 438.887 192.43 437.497 191.027C436.901 190.424 436.307 189.819 435.714 189.213C427.614 180.945 419.059 174.348 407.047 173.611C397.291 173.599 388.61 177.021 381.373 183.584C380.034 185.013 378.969 186.528 377.859 188.141C378.152 188.148 378.444 188.155 378.745 188.162C390.155 188.47 399.229 190.426 407.491 198.91C409.427 201.15 410.85 203.568 412.155 206.214C412.323 206.552 412.491 206.891 412.664 207.239C414.451 210.889 416.01 214.624 417.548 218.384C417.86 219.141 418.173 219.898 418.486 220.656C419.144 222.248 419.8 223.841 420.455 225.434C421.933 229.028 423.424 232.617 424.913 236.206C425.421 237.432 425.93 238.658 426.438 239.884C429.219 246.595 432.01 253.303 434.804 260.01C435.005 260.493 435.206 260.976 435.413 261.474C435.807 262.418 436.2 263.362 436.594 264.306C436.972 265.213 437.349 266.121 437.726 267.029C438.647 269.242 439.58 271.449 440.538 273.646C440.814 274.283 440.814 274.283 441.095 274.933C441.442 275.734 441.793 276.533 442.148 277.33C443.304 280.009 443.304 280.009 442.766 281.625C439.842 277.688 436.973 273.724 434.208 269.674C432.426 267.065 430.623 264.473 428.81 261.887C428.524 261.48 428.239 261.073 427.945 260.654C427.363 259.824 426.781 258.994 426.199 258.164C424.777 256.136 423.357 254.107 421.938 252.078C421.372 251.271 420.807 250.463 420.242 249.656C419.112 248.042 417.982 246.427 416.852 244.812C416.572 244.413 416.292 244.013 416.003 243.601C415.44 242.796 414.877 241.991 414.314 241.186C412.875 239.129 411.433 237.074 409.985 235.023C407.455 231.433 404.939 227.848 402.593 224.136C396.696 214.907 388.751 208.151 377.859 205.578C372.962 204.453 372.962 204.453 368.172 205.094C367.368 206.143 367.368 206.143 366.711 207.472C366.48 207.903 366.249 208.335 366.011 208.78C365.725 209.331 365.439 209.883 365.145 210.452C364.225 212.2 363.306 213.949 362.359 215.75C354.527 215.75 346.695 215.75 338.625 215.75C342.531 206.264 342.531 206.264 344.33 202.233C344.531 201.78 344.732 201.328 344.939 200.861C345.358 199.919 345.777 198.976 346.197 198.034C346.828 196.619 347.456 195.204 348.085 193.788C349.093 191.52 350.108 189.255 351.129 186.992C351.506 186.156 351.881 185.319 352.254 184.481C352.762 183.342 353.277 182.207 353.794 181.072C353.94 180.741 354.085 180.411 354.236 180.07C355.767 176.751 358.256 174.773 361.088 172.58C361.382 172.352 361.677 172.123 361.98 171.888C362.601 171.409 363.222 170.93 363.845 170.453C364.458 169.982 365.07 169.508 365.68 169.032C383.501 155.129 407.023 152.991 425.703 166.856Z" fill="#2F5A25"/>
<path id="Vector_5" d="M249.5 215.75C254.775 215.75 260.05 215.75 265.484 215.75C265.824 218.208 266.164 220.665 266.514 223.197C268.819 239.211 273.354 253.808 280.016 268.547C280.175 266.309 280.335 264.071 280.5 261.766C282.056 263.08 283.596 264.395 285.081 265.79C294.632 274.754 306.127 280.421 318.766 283.562C319.446 283.735 319.446 283.735 320.141 283.911C327.94 285.676 336.364 285.117 344.299 285.169C345.592 285.179 346.885 285.189 348.178 285.199C351.214 285.223 354.25 285.245 357.286 285.266C360.748 285.29 364.209 285.317 367.671 285.344C374.78 285.398 381.89 285.45 389 285.5C387.216 287.35 385.581 288.593 383.248 289.647C382.396 290.053 382.396 290.053 381.526 290.467C375.347 292.973 369.652 293.534 363.067 293.501C362.19 293.503 361.313 293.507 360.436 293.511C358.076 293.52 355.717 293.516 353.357 293.51C350.874 293.505 348.391 293.51 345.908 293.513C341.741 293.516 337.573 293.512 333.406 293.503C328.604 293.492 323.803 293.495 319.001 293.506C314.86 293.515 310.72 293.516 306.579 293.511C304.114 293.508 301.649 293.508 299.184 293.514C296.865 293.52 294.547 293.516 292.228 293.505C291.383 293.502 290.538 293.503 289.692 293.507C282.92 293.538 276.711 292.706 270.631 289.466C270.148 289.216 270.148 289.216 269.655 288.962C267.067 287.589 264.786 285.973 262.578 284.047C262.109 283.673 261.64 283.299 261.157 282.914C254.595 277.436 250.171 268.069 249.392 259.625C249.232 256.496 249.277 253.365 249.311 250.233C249.314 249.234 249.317 248.234 249.319 247.235C249.326 244.628 249.345 242.022 249.367 239.416C249.387 236.747 249.396 234.077 249.405 231.408C249.426 226.189 249.46 220.969 249.5 215.75Z" fill="#564138"/>
<path id="Vector_6" d="M309.562 82.0625C309.286 87.1121 308.283 92.0336 307.352 96.993C307.18 97.9208 307.008 98.8487 306.837 99.7767C306.387 102.207 305.934 104.636 305.48 107.065C304.754 110.958 304.031 114.851 303.31 118.744C303.058 120.097 302.805 121.451 302.552 122.804C302.397 123.638 302.242 124.473 302.087 125.308C302.017 125.679 301.947 126.051 301.875 126.434C300.94 131.486 300.727 136.45 300.723 141.58C300.722 141.96 300.722 142.34 300.721 142.732C300.726 148.318 300.967 153.63 302.297 159.078C302.415 159.624 302.533 160.17 302.654 160.732C305.614 173.159 311.114 185.149 315.922 196.948C317.208 200.105 318.491 203.263 319.771 206.423C320.215 207.516 320.661 208.609 321.107 209.702C321.376 210.363 321.644 211.024 321.912 211.685C322.265 212.55 322.265 212.55 322.624 213.432C323.125 214.781 323.125 214.781 323.125 215.75C319.299 216.419 315.252 216.994 311.5 215.75C308.711 213.381 307.374 209.771 305.89 206.506C304.863 204.394 303.562 202.533 302.176 200.644C301.935 200.309 301.694 199.974 301.445 199.629C298.411 195.454 295.106 191.548 291.614 187.749C289.862 185.775 289.034 184.497 288.609 181.843C288.512 181.252 288.415 180.661 288.316 180.053C288.216 179.405 288.116 178.757 288.017 178.109C287.911 177.434 287.804 176.759 287.697 176.084C287.355 173.908 287.03 171.731 286.706 169.553C286.651 169.184 286.596 168.815 286.539 168.435C282.351 140.43 283.878 114.639 301.146 91.0234C308.076 82.0625 308.076 82.0625 309.562 82.0625Z" fill="#5B9C51"/>
<path id="Vector_7" d="M241.266 60.75C241.585 60.75 241.905 60.75 242.234 60.75C246.528 72.8541 250.811 84.9618 255.07 97.0781C258.133 105.79 261.206 114.497 264.292 123.2C266.278 128.8 268.258 134.402 270.228 140.008C270.424 140.565 270.619 141.122 270.821 141.695C271.608 143.936 272.395 146.177 273.181 148.418C275.165 154.076 277.16 159.73 279.215 165.364C279.378 165.811 279.541 166.259 279.709 166.72C280.464 168.795 281.223 170.869 281.99 172.94C282.253 173.659 282.516 174.379 282.778 175.098C282.9 175.421 283.021 175.744 283.146 176.076C283.946 178.288 283.946 178.288 283.406 179.906C283.152 179.659 282.898 179.412 282.636 179.157C280.118 176.794 277.5 174.698 274.687 172.701C274.338 172.45 273.988 172.198 273.627 171.939C271.838 170.682 270.076 169.574 268.097 168.639C260.591 164.969 258.057 158.681 254.828 151.328C254.418 150.443 254.007 149.559 253.594 148.675C242.198 123.775 239.337 97.1059 240.781 70.0742C240.828 69.1616 240.875 68.249 240.921 67.3364C241.033 65.1408 241.149 62.9453 241.266 60.75Z" fill="#2F5A25"/>
<path id="Vector_8" d="M379.75 188.479C380.218 188.475 380.686 188.47 381.169 188.465C391.12 188.521 399.076 190.759 406.438 197.828C408.882 200.339 410.61 203.081 412.155 206.214C412.323 206.552 412.491 206.891 412.664 207.24C414.451 210.89 416.01 214.624 417.548 218.384C417.86 219.141 418.173 219.899 418.486 220.656C419.144 222.248 419.8 223.841 420.455 225.435C421.933 229.028 423.424 232.617 424.913 236.206C425.421 237.432 425.93 238.658 426.438 239.884C429.219 246.596 432.01 253.303 434.804 260.01C435.005 260.493 435.206 260.976 435.413 261.474C435.807 262.418 436.2 263.362 436.594 264.306C436.972 265.214 437.349 266.121 437.726 267.029C438.647 269.243 439.58 271.449 440.538 273.647C440.814 274.283 440.814 274.283 441.095 274.933C441.442 275.734 441.793 276.533 442.148 277.33C443.304 280.009 443.304 280.009 442.766 281.625C439.842 277.689 436.973 273.724 434.208 269.674C432.426 267.066 430.623 264.473 428.81 261.887C428.524 261.48 428.239 261.073 427.945 260.654C427.363 259.824 426.781 258.994 426.199 258.164C424.777 256.136 423.357 254.107 421.938 252.078C421.372 251.271 420.807 250.464 420.242 249.656C419.112 248.042 417.982 246.427 416.852 244.813C416.572 244.413 416.292 244.013 416.003 243.601C415.44 242.796 414.877 241.991 414.314 241.186C412.875 239.129 411.433 237.074 409.985 235.023C407.455 231.433 404.939 227.849 402.593 224.136C396.707 214.925 388.742 208.121 377.859 205.578C374.649 204.965 371.414 204.53 368.172 204.125C370.076 200.225 372.007 196.344 374.136 192.561C374.444 192.012 374.751 191.464 375.069 190.899C376.387 188.882 377.443 188.502 379.75 188.479Z" fill="#447A3A"/>
<path id="Vector_9" d="M292.878 196.842C293.986 197.765 295.001 198.727 296 199.766C295.174 202.447 294.062 204.978 292.942 207.546C284.329 227.524 280.926 247.843 280.5 269.516C279.358 268.104 278.621 266.744 277.931 265.067C277.729 264.582 277.528 264.096 277.32 263.595C277.111 263.081 276.901 262.568 276.686 262.038C276.36 261.243 276.36 261.243 276.028 260.431C275.602 259.39 275.178 258.348 274.755 257.306C274.335 256.276 273.904 255.252 273.467 254.229C267.895 240.794 261.065 215.933 265.32 201.593C266.164 199.819 267.378 198.582 268.875 197.344C269.2 197.047 269.524 196.75 269.859 196.445C276.945 190.526 285.92 191.578 292.878 196.842Z" fill="#508B44"/>
<path id="Vector_10" d="M261.609 215.75C262.888 215.75 264.167 215.75 265.484 215.75C265.543 216.183 265.601 216.616 265.661 217.062C267.32 231.862 267.32 231.862 271.333 246.089C271.829 247.356 271.858 248.309 271.781 249.656C264.855 241.122 260.817 226.585 261.609 215.75Z" fill="#674E41"/>
</g>
<g id="urn-plant">
<path id="Vector_11" d="M619.559 154.562C621.579 155.455 623.014 157.19 623.924 159.165C624.367 160.358 624.478 161.492 624.567 162.761C624.602 163.261 624.602 163.261 624.639 163.772C624.656 164.027 624.674 164.281 624.691 164.543C624.844 164.405 624.996 164.267 625.153 164.124C625.849 163.497 626.552 162.878 627.258 162.262C627.484 162.064 627.71 161.866 627.943 161.662C630.196 159.771 632.777 157.984 635.812 157.984C636.998 158.182 637.612 158.368 638.486 159.196C639.297 160.569 639.316 161.787 638.949 163.313C638.163 166.197 636.376 168.369 634.387 170.531C634.058 170.91 633.732 171.29 633.406 171.672C633.165 171.954 632.924 172.236 632.676 172.527C633.028 172.538 633.028 172.538 633.386 172.55C636.828 172.724 639.063 173.514 641.516 175.949C641.869 176.293 641.869 176.293 642.229 176.644C642.37 176.791 642.511 176.938 642.656 177.09C641.763 179.11 640.029 180.545 638.054 181.455C636.777 181.93 635.525 182.02 634.173 182.098C633.974 182.11 633.775 182.123 633.57 182.135C633.082 182.165 632.594 182.194 632.105 182.223C632.224 182.512 632.224 182.512 632.345 182.806C632.448 183.061 632.552 183.315 632.658 183.577C632.761 183.829 632.863 184.08 632.969 184.339C633.431 185.563 633.566 186.572 633.559 187.886C633.558 188.204 633.557 188.522 633.556 188.849C633.554 189.18 633.552 189.51 633.549 189.851C633.548 190.185 633.546 190.52 633.545 190.865C633.542 191.691 633.537 192.518 633.531 193.344C630.396 193.025 627.631 191.487 625.518 189.178C623.08 186.107 622.299 183.214 621.84 179.371C619.239 185.736 617.453 192.248 616.422 199.047C616.39 199.255 616.358 199.463 616.325 199.677C615.361 206.19 615.526 212.837 615.547 219.404C615.55 220.425 615.551 221.446 615.552 222.468C615.555 224.451 615.56 226.434 615.566 228.418C615.751 228.011 615.751 228.011 615.94 227.596C616.409 226.566 616.884 225.538 617.359 224.511C617.562 224.07 617.764 223.629 617.964 223.188C619.746 219.266 621.815 215.582 624.691 212.342C624.835 212.179 624.979 212.015 625.127 211.846C629.96 206.423 636.295 203.006 643.227 201.043C643.563 200.946 643.899 200.848 644.245 200.748C649.48 199.511 656.315 199.553 661.477 201.043C661.672 201.097 661.868 201.15 662.069 201.205C666.995 202.58 671.513 204.906 675.449 208.172C675.698 208.376 675.698 208.376 675.951 208.584C677.035 209.475 678.115 210.368 679.156 211.309C679.156 211.403 679.156 211.497 679.156 211.594C677.39 211.471 675.647 211.304 673.899 211.023C662.376 209.352 650.671 211.879 641.198 218.767C639.488 220.059 637.925 221.515 636.383 223C636.611 223.059 636.839 223.118 637.073 223.179C640.908 224.255 643.736 225.976 646.363 228.988C646.457 229.176 646.551 229.365 646.648 229.559C647.058 229.563 647.058 229.563 647.476 229.567C648.499 229.578 649.521 229.597 650.544 229.618C650.984 229.626 651.425 229.632 651.866 229.636C654.714 229.663 656.826 229.746 659.124 231.626C660.735 233.594 661.101 235.162 661.013 237.731C660.771 239.887 659.786 241.083 658.222 242.521C657.103 243.188 655.885 243.481 654.633 243.816C654.728 243.977 654.822 244.137 654.92 244.303C660.007 252.962 662.593 261.135 660.122 271.12C657.951 278.619 653.133 285.017 646.344 288.926C645.749 289.25 645.15 289.563 644.545 289.869C644.363 289.962 644.18 290.055 643.991 290.151C641.969 291.132 640.025 291.524 637.784 291.514C637.563 291.515 637.342 291.516 637.115 291.518C636.382 291.521 635.649 291.521 634.916 291.52C634.388 291.522 633.86 291.524 633.332 291.526C631.901 291.531 630.471 291.533 629.04 291.533C628.145 291.533 627.25 291.535 626.355 291.536C623.228 291.541 620.1 291.544 616.973 291.543C614.065 291.543 611.157 291.549 608.249 291.558C605.747 291.565 603.244 291.568 600.742 291.568C599.25 291.568 597.758 291.569 596.266 291.576C594.862 291.581 593.457 291.581 592.053 291.577C591.54 291.576 591.027 291.578 590.514 291.581C583.489 291.626 578.211 288.721 573.167 283.952C567.021 277.502 564.929 269.736 565.014 261.018C565.076 258.567 565.463 256.4 566.234 254.082C566.331 253.774 566.428 253.465 566.527 253.147C567.676 249.841 569.557 246.798 571.367 243.816C571.188 243.778 571.008 243.739 570.824 243.699C568.49 243.113 566.798 242.028 565.521 239.949C564.727 238.129 564.784 235.896 565.272 233.997C566.015 232.296 567.484 230.93 569.133 230.106C570.147 229.777 571.003 229.79 572.069 229.806C572.484 229.806 572.899 229.805 573.314 229.804C573.963 229.804 574.61 229.808 575.259 229.821C577.784 229.943 577.784 229.943 580.062 229.065C580.56 228.493 580.95 227.922 581.348 227.277C583.432 225.046 586.637 223.536 589.617 223C582.607 215.184 571.453 211.069 561.173 210.507C557.174 210.336 553.185 210.719 549.26 211.489C548.447 211.61 547.664 211.61 546.844 211.594C547.699 210.434 548.668 209.546 549.802 208.671C549.978 208.535 550.153 208.399 550.334 208.259C557.242 202.984 564.748 200.054 573.506 200.081C573.706 200.081 573.906 200.081 574.112 200.081C584.276 200.123 593.26 204.126 600.453 211.309C603.869 215.039 606.256 219.266 608.331 223.838C608.537 224.285 608.744 224.733 608.951 225.18C609.449 226.258 609.943 227.337 610.434 228.418C610.435 228.127 610.436 227.836 610.437 227.536C610.447 224.748 610.464 221.96 610.486 219.172C610.497 217.74 610.506 216.308 610.511 214.876C610.557 201.06 612.319 188.167 617.848 175.379C617.571 175.347 617.293 175.315 617.008 175.282C612.908 174.792 609.6 173.391 606.705 170.381C605.176 168.417 604.125 166.17 603.875 163.687C605.004 163.662 606.132 163.647 607.261 163.634C607.735 163.623 607.735 163.623 608.219 163.612C610.71 163.59 612.781 163.957 614.996 165.113C615.003 164.838 615.011 164.562 615.018 164.278C615.175 160.682 615.843 158.296 618.418 155.703C618.647 155.468 618.877 155.233 619.113 154.99C619.26 154.849 619.407 154.708 619.559 154.562Z" fill="#705548"/>
<path id="Vector_12" d="M619.559 154.562C621.579 155.455 623.014 157.19 623.924 159.165C624.367 160.358 624.478 161.492 624.567 162.761C624.602 163.261 624.602 163.261 624.639 163.772C624.656 164.027 624.674 164.281 624.691 164.543C624.844 164.405 624.996 164.267 625.153 164.124C625.849 163.497 626.552 162.878 627.258 162.262C627.484 162.064 627.71 161.866 627.943 161.662C630.196 159.771 632.777 157.984 635.812 157.984C636.998 158.182 637.612 158.368 638.486 159.196C639.297 160.569 639.316 161.787 638.949 163.313C638.163 166.197 636.376 168.369 634.387 170.531C634.058 170.91 633.732 171.29 633.406 171.672C633.165 171.954 632.924 172.236 632.676 172.527C633.028 172.538 633.028 172.538 633.386 172.55C636.828 172.724 639.063 173.514 641.516 175.949C641.869 176.293 641.869 176.293 642.229 176.644C642.37 176.791 642.511 176.938 642.656 177.09C641.763 179.11 640.029 180.545 638.054 181.455C636.777 181.93 635.525 182.02 634.173 182.098C633.974 182.11 633.775 182.123 633.57 182.135C633.082 182.165 632.594 182.194 632.105 182.223C632.224 182.512 632.224 182.512 632.345 182.806C632.448 183.061 632.552 183.315 632.658 183.577C632.761 183.829 632.863 184.08 632.969 184.339C633.431 185.563 633.566 186.572 633.559 187.886C633.558 188.204 633.557 188.522 633.556 188.849C633.554 189.18 633.552 189.51 633.549 189.851C633.548 190.185 633.546 190.52 633.545 190.865C633.542 191.691 633.537 192.518 633.531 193.344C630.396 193.025 627.631 191.487 625.518 189.178C623.08 186.107 622.299 183.214 621.84 179.371C619.239 185.736 617.453 192.248 616.422 199.047C616.39 199.255 616.358 199.463 616.325 199.677C615.361 206.19 615.526 212.837 615.547 219.404C615.55 220.425 615.551 221.446 615.552 222.468C615.555 224.451 615.56 226.435 615.566 228.418C615.751 228.011 615.751 228.011 615.94 227.596C616.409 226.566 616.884 225.538 617.359 224.511C617.562 224.07 617.764 223.629 617.964 223.188C619.746 219.266 621.815 215.582 624.691 212.342C624.835 212.179 624.979 212.015 625.127 211.846C629.96 206.423 636.295 203.006 643.227 201.043C643.563 200.946 643.899 200.848 644.245 200.748C649.48 199.511 656.315 199.553 661.477 201.043C661.672 201.097 661.868 201.15 662.069 201.205C666.995 202.58 671.513 204.906 675.449 208.172C675.698 208.376 675.698 208.376 675.951 208.584C677.035 209.475 678.115 210.368 679.156 211.309C679.156 211.403 679.156 211.497 679.156 211.594C677.39 211.471 675.647 211.304 673.899 211.023C662.36 209.35 650.658 211.887 641.177 218.788C639.796 219.828 638.523 220.975 637.269 222.163C636.4 222.961 635.889 223.041 634.738 223.102C634.322 223.13 634.322 223.13 633.897 223.158C633.321 223.195 632.745 223.227 632.168 223.256C628.636 223.505 626.011 224.798 623.16 226.83C619.732 229.249 617.084 230.206 612.875 230.075C608.801 229.953 606.135 230.607 602.794 233.085C602.185 233.535 601.564 233.953 600.929 234.365C597.366 236.695 594.055 239.339 590.953 242.249C590.301 242.856 589.637 243.437 588.958 244.012C587.826 244.999 586.878 246.093 585.91 247.238C585.536 247.66 585.536 247.66 585.155 248.09C579.873 254.072 575.106 261.147 572.223 268.625C572.129 268.625 572.034 268.625 571.938 268.625C572.146 265.436 572.146 265.436 572.49 263.866C572.769 262.58 572.932 261.288 573.078 259.981C573.362 257.452 573.683 254.933 574.219 252.442C574.482 251.179 574.631 249.91 574.771 248.628C574.97 246.815 575.255 245.04 575.616 243.252C575.846 242.077 576.005 240.914 576.12 239.723C576.593 234.854 578.064 230.174 581.734 226.736C584.089 224.865 586.655 223.58 589.617 223C582.607 215.184 571.453 211.069 561.173 210.507C557.174 210.336 553.185 210.719 549.26 211.489C548.447 211.61 547.664 211.61 546.844 211.594C547.699 210.434 548.668 209.546 549.802 208.671C549.978 208.535 550.153 208.399 550.334 208.259C557.242 202.984 564.748 200.054 573.506 200.081C573.706 200.081 573.906 200.081 574.112 200.081C584.276 200.123 593.26 204.126 600.453 211.309C603.869 215.039 606.256 219.266 608.331 223.838C608.537 224.285 608.744 224.733 608.951 225.18C609.449 226.258 609.943 227.337 610.434 228.418C610.435 228.127 610.436 227.836 610.437 227.536C610.447 224.748 610.464 221.96 610.486 219.172C610.497 217.74 610.506 216.308 610.511 214.876C610.557 201.06 612.319 188.167 617.848 175.379C617.571 175.347 617.293 175.315 617.008 175.282C612.908 174.792 609.6 173.391 606.705 170.381C605.176 168.417 604.125 166.17 603.875 163.688C605.004 163.662 606.132 163.647 607.261 163.634C607.735 163.623 607.735 163.623 608.219 163.612C610.71 163.59 612.781 163.957 614.996 165.113C615.003 164.838 615.011 164.562 615.018 164.278C615.175 160.682 615.843 158.296 618.418 155.703C618.647 155.468 618.877 155.233 619.113 154.99C619.26 154.849 619.407 154.708 619.559 154.562Z" fill="#518A47"/>
<path id="Vector_13" d="M632.847 222.944C637.182 222.786 641.048 223.951 644.349 226.88C646.239 228.74 646.239 228.74 646.648 229.559C646.922 229.561 647.195 229.564 647.476 229.567C648.499 229.578 649.521 229.597 650.544 229.618C650.984 229.626 651.425 229.632 651.866 229.636C654.714 229.663 656.826 229.746 659.124 231.626C660.735 233.594 661.101 235.162 661.013 237.731C660.764 239.953 659.746 241.126 658.083 242.549C656.47 243.66 655.015 243.602 653.118 243.567C652.72 243.563 652.72 243.563 652.313 243.559C651.661 243.552 651.008 243.543 650.355 243.531C650.393 243.756 650.43 243.98 650.468 244.211C651.219 248.758 651.935 253.304 652.538 257.872C652.77 259.61 653.039 261.332 653.363 263.055C653.553 264.117 653.687 265.183 653.813 266.255C653.838 266.458 653.862 266.662 653.888 266.871C653.947 267.361 654.005 267.85 654.062 268.34C653.478 267.596 653.015 266.875 652.61 266.021C652.5 265.794 652.391 265.566 652.278 265.332C652.161 265.09 652.044 264.847 651.924 264.597C648.736 258.128 644.621 252.313 639.805 246.953C639.658 246.789 639.512 246.625 639.361 246.456C637.702 244.603 636.02 242.838 634.102 241.25C633.84 241.02 633.578 240.791 633.308 240.554C628.586 236.422 623.287 233.22 617.848 230.129C617.848 229.941 617.848 229.752 617.848 229.559C618.475 229.127 619.099 228.734 619.754 228.348C619.95 228.23 620.146 228.113 620.349 227.992C620.767 227.743 621.186 227.495 621.605 227.248C622.24 226.873 622.872 226.494 623.503 226.114C623.911 225.872 624.318 225.631 624.726 225.389C624.912 225.277 625.099 225.165 625.291 225.049C627.701 223.641 630.08 223.094 632.847 222.944Z" fill="#315A29"/>
<path id="Vector_14" d="M619.559 154.562C621.579 155.455 623.014 157.19 623.924 159.165C624.367 160.358 624.478 161.492 624.567 162.761C624.591 163.095 624.614 163.428 624.639 163.772C624.656 164.027 624.674 164.281 624.691 164.543C624.844 164.405 624.996 164.267 625.153 164.124C625.849 163.497 626.552 162.878 627.258 162.262C627.597 161.965 627.597 161.965 627.943 161.662C630.196 159.771 632.777 157.984 635.812 157.984C636.998 158.182 637.612 158.368 638.486 159.196C639.297 160.569 639.316 161.787 638.949 163.313C638.163 166.197 636.376 168.369 634.387 170.531C634.058 170.91 633.732 171.29 633.406 171.672C633.165 171.954 632.924 172.236 632.676 172.527C633.028 172.538 633.028 172.538 633.386 172.55C636.828 172.724 639.063 173.514 641.516 175.949C641.751 176.179 641.986 176.408 642.229 176.644C642.37 176.791 642.511 176.938 642.656 177.09C641.763 179.11 640.029 180.545 638.054 181.455C636.777 181.93 635.525 182.02 634.173 182.098C633.974 182.11 633.775 182.123 633.57 182.135C633.082 182.165 632.594 182.194 632.105 182.223C632.184 182.415 632.264 182.608 632.345 182.806C632.5 183.188 632.5 183.188 632.658 183.577C632.761 183.829 632.863 184.08 632.969 184.339C633.431 185.563 633.566 186.572 633.559 187.886C633.558 188.363 633.558 188.363 633.556 188.849C633.553 189.345 633.553 189.345 633.549 189.851C633.548 190.185 633.546 190.52 633.545 190.865C633.542 191.691 633.537 192.518 633.531 193.344C630.396 193.025 627.631 191.487 625.518 189.178C623.705 186.895 622.074 184.044 622.097 181.051C622.098 180.836 622.099 180.621 622.1 180.399C622.104 180.067 622.104 180.067 622.107 179.728C622.108 179.501 622.11 179.275 622.111 179.042C622.114 178.487 622.12 177.931 622.125 177.375C621.372 177.375 620.619 177.375 619.844 177.375C619.844 176.622 619.844 175.869 619.844 175.094C619.527 175.104 619.21 175.114 618.884 175.124C614.185 175.228 610.874 174.204 607.38 170.927C605.535 169.006 603.875 166.416 603.875 163.688C605.004 163.662 606.132 163.647 607.261 163.634C607.577 163.627 607.893 163.62 608.219 163.612C610.71 163.59 612.781 163.957 614.996 165.113C615.007 164.7 615.007 164.7 615.018 164.278C615.175 160.682 615.843 158.296 618.418 155.703C618.647 155.468 618.877 155.233 619.113 154.99C619.26 154.849 619.407 154.708 619.559 154.562Z" fill="#BF3E3A"/>
<path id="Vector_15" d="M605.398 227.843C605.813 228.097 606.231 228.346 606.65 228.594C607.16 228.9 607.659 229.226 608.152 229.559C608.152 229.747 608.152 229.935 608.152 230.129C607.995 230.216 607.837 230.303 607.675 230.393C601.62 233.761 596.015 237.501 590.953 242.249C590.301 242.856 589.637 243.437 588.958 244.012C587.826 244.999 586.878 246.093 585.91 247.238C585.661 247.52 585.412 247.801 585.155 248.09C579.873 254.072 575.106 261.147 572.223 268.625C572.129 268.625 572.034 268.625 571.938 268.625C572.146 265.436 572.146 265.436 572.49 263.866C572.769 262.58 572.932 261.288 573.078 259.981C573.362 257.452 573.683 254.933 574.219 252.442C574.482 251.179 574.631 249.91 574.771 248.628C574.97 246.815 575.255 245.04 575.616 243.252C575.846 242.077 576.005 240.914 576.12 239.723C576.593 234.854 578.064 230.174 581.734 226.736C589.615 220.473 597.59 223.038 605.398 227.843Z" fill="#315A29"/>
<path id="Vector_16" d="M612.875 229.487C613.087 229.489 613.298 229.49 613.516 229.491C617.353 229.536 620.105 230.469 623.206 232.795C623.814 233.249 624.434 233.668 625.071 234.081C629.264 236.819 633.129 239.992 636.668 243.531C621.047 243.531 605.426 243.531 589.332 243.531C593.612 239.251 598.21 235.677 603.415 232.578C603.968 232.241 604.512 231.889 605.05 231.528C607.636 229.844 609.815 229.428 612.875 229.487Z" fill="#664D42"/>
<path id="Vector_17" d="M593.609 212.164C593.915 212.41 594.221 212.656 594.527 212.901C599.312 216.785 602.844 221.632 605.301 227.277C605.301 227.466 605.301 227.654 605.301 227.848C604.043 227.403 602.966 226.736 601.843 226.03C599.263 224.445 596.683 223.284 593.603 223.265C589.865 223.238 589.865 223.238 588.69 222.162C588.442 221.893 588.442 221.893 588.188 221.618C587.488 220.86 586.708 220.239 585.892 219.614C585.734 219.493 585.577 219.372 585.414 219.247C575.386 211.702 563.667 209.636 551.406 211.023C552.34 209.957 553.41 209.368 554.668 208.76C554.972 208.611 554.972 208.611 555.283 208.46C557.885 207.207 560.486 206.211 563.294 205.534C563.487 205.488 563.68 205.441 563.878 205.393C573.863 203.133 585.729 205.505 593.609 212.164Z" fill="#5D9A54"/>
<path id="Vector_18" d="M674.594 210.738C673.907 211.082 673.631 211.015 672.878 210.916C661.319 209.532 649.797 212.207 640.486 219.36C639.292 220.301 638.121 221.252 637.062 222.344C635.86 223.342 634.44 223.233 632.943 223.285C628.658 223.558 625.733 224.946 622.193 227.274C621.27 227.848 621.27 227.848 620.699 227.848C621.853 224.009 624.122 220.614 626.688 217.582C626.921 217.299 627.154 217.015 627.395 216.723C639.064 203.218 659.949 200.975 674.594 210.738Z" fill="#5D9A54"/>
<path id="Vector_19" d="M606.727 230.414C606.727 230.602 606.727 230.79 606.727 230.984C606.45 231.133 606.174 231.282 605.889 231.435C600.447 234.407 595.475 238.007 590.953 242.249C590.301 242.856 589.637 243.437 588.958 244.012C587.826 244.999 586.877 246.093 585.91 247.238C585.652 247.533 585.394 247.827 585.135 248.12C583.062 250.485 581.174 252.946 579.352 255.508C578.995 254.795 579.085 254.473 579.195 253.689C579.23 253.429 579.265 253.17 579.302 252.903C579.343 252.621 579.383 252.339 579.425 252.048C579.466 251.756 579.508 251.464 579.55 251.163C579.639 250.541 579.729 249.919 579.819 249.297C579.955 248.361 580.085 247.425 580.214 246.489C581.092 240.312 582.297 234.868 587.336 230.699C593.33 226.432 600.53 226.62 606.727 230.414Z" fill="#45793D"/>
<path id="Vector_20" d="M603.875 163.687C605.004 163.662 606.132 163.647 607.261 163.634C607.735 163.623 607.735 163.623 608.219 163.612C612.472 163.575 615.227 164.987 618.304 167.832C619.911 169.484 621.712 171.722 621.896 174.109C622.06 174.886 622.06 174.886 622.874 175.2C623.191 175.3 623.509 175.4 623.836 175.504C627.605 176.83 630.436 179.293 632.391 182.793C633.16 184.49 633.569 186.028 633.559 187.886C633.558 188.363 633.558 188.363 633.556 188.849C633.553 189.345 633.553 189.345 633.549 189.851C633.548 190.185 633.546 190.52 633.545 190.865C633.542 191.691 633.537 192.518 633.531 193.344C630.396 193.025 627.631 191.487 625.518 189.178C623.705 186.895 622.074 184.044 622.097 181.051C622.098 180.836 622.099 180.621 622.1 180.399C622.104 180.067 622.104 180.067 622.107 179.728C622.108 179.501 622.11 179.275 622.111 179.042C622.114 178.487 622.12 177.931 622.125 177.375C621.372 177.375 620.619 177.375 619.844 177.375C619.844 176.622 619.844 175.869 619.844 175.094C619.527 175.104 619.21 175.114 618.884 175.124C614.185 175.228 610.874 174.204 607.38 170.927C605.535 169.006 603.875 166.416 603.875 163.687Z" fill="#DD5244"/>
<path id="Vector_21" d="M638.308 230.503C638.717 230.847 639.121 231.198 639.52 231.555C639.719 231.731 639.919 231.908 640.124 232.089C644.116 235.832 644.8 240.78 645.543 245.937C645.616 246.422 645.688 246.908 645.761 247.393C645.966 248.766 646.165 250.141 646.363 251.516C646.393 251.724 646.423 251.933 646.454 252.147C646.615 253.267 646.775 254.388 646.934 255.508C645.967 254.556 645.126 253.614 644.332 252.514C641.335 248.468 637.986 244.466 634.102 241.25C633.84 241.02 633.578 240.791 633.308 240.554C629.076 236.851 624.311 233.503 619.273 230.984C619.273 230.796 619.273 230.608 619.273 230.414C625.36 227.128 632.391 226.043 638.308 230.503Z" fill="#45793D"/>
<path id="Vector_22" d="M602.005 238.538C602.829 238.544 603.653 238.539 604.477 238.534C606.424 238.524 608.37 238.529 610.316 238.544C612.314 238.56 614.311 238.552 616.31 238.532C618.035 238.515 619.759 238.512 621.484 238.519C622.51 238.524 623.536 238.524 624.562 238.511C631.592 238.435 631.592 238.435 633.664 240.168C634.362 240.866 634.94 241.596 635.527 242.391C636.092 242.955 636.092 242.955 636.668 243.531C621.047 243.531 605.426 243.531 589.332 243.531C589.803 243.061 590.273 242.59 590.758 242.105C590.953 241.838 591.148 241.571 591.349 241.295C594.098 237.986 598.036 238.502 602.005 238.538Z" fill="#49352E"/>
<path id="Vector_23" d="M572.139 229.788C572.449 229.789 572.449 229.789 572.766 229.79C573.423 229.794 574.079 229.801 574.736 229.808C575.183 229.811 575.629 229.814 576.076 229.816C577.168 229.822 578.26 229.832 579.352 229.844C579.234 230.094 579.116 230.344 578.995 230.602C578.841 230.933 578.686 231.263 578.527 231.604C578.374 231.93 578.221 232.257 578.064 232.594C577.031 234.929 576.664 237.273 576.424 239.795C576.295 241.102 576.04 242.278 575.645 243.531C574.742 243.565 573.839 243.585 572.936 243.602C572.556 243.617 572.556 243.617 572.169 243.631C570.073 243.662 568.608 243.221 567.021 241.83C566.867 241.645 566.714 241.459 566.555 241.268C566.397 241.083 566.239 240.898 566.076 240.707C564.799 238.854 564.901 236.867 565.094 234.691C565.573 232.792 566.937 231.502 568.516 230.414C569.72 229.81 570.818 229.768 572.139 229.788Z" fill="#49352E"/>
<path id="Vector_24" d="M619.559 177.09C620.405 177.184 621.252 177.278 622.125 177.375C621.966 179.071 621.45 180.458 620.806 182.027C618.647 187.505 617.304 193.233 616.422 199.047C616.374 199.359 616.374 199.359 616.325 199.677C615.313 206.517 615.534 213.502 615.566 220.398C615.573 221.869 615.579 223.34 615.582 224.812C615.584 225.394 615.588 225.976 615.591 226.558C615.593 227.082 615.593 227.082 615.594 227.616C615.596 227.923 615.597 228.231 615.599 228.547C615.566 229.273 615.566 229.273 615.281 229.844C614.528 229.844 613.776 229.844 613 229.844C612.987 226.75 612.977 223.656 612.97 220.562C612.967 219.124 612.963 217.687 612.957 216.25C612.951 214.857 612.947 213.465 612.946 212.073C612.945 211.547 612.943 211.021 612.94 210.495C612.911 205.457 613.249 200.47 614.212 195.518C614.274 195.195 614.336 194.871 614.4 194.538C615.585 188.518 617.418 182.827 619.559 177.09Z" fill="#467A3E"/>
<path id="Vector_25" d="M646.648 229.844C647.947 229.815 649.245 229.795 650.544 229.781C650.984 229.775 651.425 229.768 651.866 229.758C654.742 229.695 656.798 229.723 659.124 231.626C660.984 233.899 661.054 235.769 660.906 238.684C659.817 239.047 658.794 239.004 657.659 238.997C657.426 238.996 657.193 238.996 656.953 238.995C656.209 238.994 655.466 238.99 654.722 238.987C654.218 238.985 653.713 238.984 653.209 238.983C651.972 238.98 650.736 238.975 649.5 238.969C649.447 238.662 649.393 238.355 649.339 238.038C649.265 237.628 649.192 237.218 649.118 236.808C649.083 236.606 649.049 236.405 649.013 236.197C648.598 233.914 647.683 231.907 646.648 229.844Z" fill="#664C42"/>
<path id="Vector_26" d="M637.809 158.555C638.595 159.263 638.88 159.764 639.199 160.765C639.246 161.993 638.982 163.077 638.664 164.258C638.476 164.258 638.288 164.258 638.094 164.258C638.014 164.549 638.014 164.549 637.933 164.846C636.881 166.997 634.904 168.34 632.676 169.105C631.417 169.315 630.455 169.245 629.272 168.767C628.256 167.874 628.145 167.092 627.989 165.773C628.05 163.74 629.17 161.99 630.537 160.551C631.286 159.854 631.958 159.399 632.961 159.125C632.961 158.937 632.961 158.749 632.961 158.555C634.712 157.982 636.073 157.834 637.809 158.555Z" fill="#DD5244"/>
<path id="Vector_27" d="M569.941 229.844C573.047 229.844 576.152 229.844 579.352 229.844C578.787 231.067 578.222 232.29 577.641 233.551C577.073 235.371 576.679 237.075 576.5 238.969C574.366 238.901 572.967 238.418 571.367 236.973C570.191 235.488 569.616 234.174 569.621 232.268C569.62 231.994 569.619 231.721 569.618 231.439C569.656 230.699 569.656 230.699 569.941 229.844Z" fill="#664C42"/>
<path id="Vector_28" d="M660.621 238.684C660.469 239.794 660.199 240.424 659.463 241.268C659.306 241.453 659.15 241.639 658.989 241.83C657.139 243.426 655.457 243.693 653.064 243.603C652.803 243.597 652.541 243.592 652.271 243.587C651.632 243.574 650.994 243.555 650.355 243.531C650.258 243.146 650.163 242.759 650.07 242.373C649.991 242.05 649.991 242.05 649.91 241.721C649.757 240.796 649.767 239.905 649.785 238.969C651.237 238.928 652.688 238.887 654.14 238.847C654.634 238.833 655.128 238.819 655.622 238.805C656.331 238.786 657.04 238.766 657.749 238.746C657.971 238.74 658.193 238.733 658.421 238.727C659.986 238.684 659.986 238.684 660.621 238.684Z" fill="#4A352D"/>
<path id="Vector_29" d="M627.258 162.262C627.258 163.26 627.154 163.312 626.491 163.99C624.767 165.907 623.755 168.181 623.792 170.753C623.847 171.552 623.99 172.125 624.406 172.812C625.681 173.602 626.944 173.554 628.398 173.383C630.089 172.885 631.518 171.927 632.949 170.921C633.506 170.548 634.066 170.247 634.672 169.961C633.278 172.265 631.625 173.24 629.226 174.382C628.504 174.754 627.923 175.14 627.293 175.646C626.402 176.234 626.402 176.234 625.6 176.252C625.15 176.102 625.15 176.102 624.691 175.949C624.457 175.89 624.222 175.832 623.981 175.771C622.859 175.433 622.063 175.193 621.457 174.149C621.04 172.854 620.866 171.85 621.269 170.531C621.612 169.92 621.976 169.32 622.357 168.731C623.01 167.711 623.629 166.712 624.103 165.594C624.775 164.157 626.044 163.237 627.258 162.262Z" fill="#A62F2A"/>
<path id="Vector_30" d="M619.844 175.094C620.597 175.094 621.349 175.094 622.125 175.094C622.125 175.847 622.125 176.599 622.125 177.375C621.372 177.375 620.619 177.375 619.844 177.375C619.844 176.622 619.844 175.869 619.844 175.094Z" fill="#A1322B"/>
<path id="Vector_31" d="M572.223 265.203C572.317 265.58 572.411 265.956 572.508 266.344C572.696 266.438 572.884 266.532 573.078 266.629C572.796 267.288 572.514 267.946 572.223 268.625C572.129 268.625 572.034 268.625 571.938 268.625C572.032 267.496 572.126 266.367 572.223 265.203Z" fill="#445532"/>
</g>
<g id="peace-lily">
<path id="Vector_32" d="M142.051 950.688C142.409 950.688 142.767 950.688 143.137 950.688C143.184 951.095 143.23 951.502 143.279 951.922C144.023 957.342 145.696 961.963 149.652 965.891C151.171 966.999 152.804 967.905 154.446 968.818C157.101 970.399 158.868 972.191 159.969 975.121C160.334 977.452 160.33 979.723 160.274 982.078C160.264 982.728 160.254 983.378 160.244 984.048C159.994 993.41 158.08 1004.48 152.505 1012.28C150.512 1016.35 152.187 1021.08 153.453 1025.14C153.608 1025.66 153.764 1026.18 153.924 1026.72C154.303 1027.98 154.689 1029.24 155.082 1030.5C156.759 1029.04 157.775 1027.22 158.878 1025.32C159.086 1024.96 159.294 1024.61 159.508 1024.25C159.953 1023.49 160.396 1022.73 160.839 1021.98C162 1020 163.171 1018.02 164.34 1016.04C164.572 1015.65 164.803 1015.26 165.042 1014.85C174.186 999.386 182.902 987.014 201.005 981.775C204.678 980.916 208.34 980.988 212.094 981.094C210.768 982.427 209.438 983.752 208.079 985.051C198.238 994.558 193.074 1006.02 190.704 1019.28C190.547 1020.13 190.389 1020.97 190.231 1021.81C189.812 1024.06 189.403 1026.31 188.998 1028.56C188.745 1029.97 188.49 1031.37 188.235 1032.78C187.358 1037.6 186.489 1042.42 185.623 1047.24C185.493 1047.96 185.493 1047.96 185.361 1048.7C184.917 1051.17 184.475 1053.65 184.036 1056.13C183.6 1058.59 183.159 1061.04 182.713 1063.5C182.548 1064.42 182.384 1065.34 182.223 1066.26C180.782 1074.48 179.174 1081.17 172.132 1086.39C169.542 1088.03 167.987 1088.62 164.855 1089.14C164.676 1097.92 164.497 1106.7 164.312 1115.75C167.179 1115.75 170.046 1115.75 173 1115.75C173.132 1115.09 173.263 1114.43 173.399 1113.75C174.156 1110.35 175.266 1107.09 176.393 1103.8C176.594 1103.19 176.795 1102.58 177.002 1101.96C179.602 1094.36 183.469 1089.06 190.724 1085.5C193.44 1084.24 196.096 1083.51 199.062 1083.17C199.103 1082.78 199.144 1082.38 199.185 1081.97C200.87 1068.6 206.986 1058.22 216.011 1048.44C217.005 1047.4 217.005 1047.4 217.523 1046.25C217.194 1046.15 216.865 1046.05 216.527 1045.95C211.05 1044.05 207.049 1040.58 204.405 1035.41C203.355 1032.86 203.303 1030.39 203.277 1027.66C203.272 1027.22 203.268 1026.78 203.264 1026.33C203.256 1025.4 203.25 1024.47 203.246 1023.54C203.24 1022.6 203.229 1021.67 203.213 1020.73C203.035 1010.41 205.13 1002.59 212.374 994.844C218.9 988.739 228.524 985.649 237.384 985.378C237.818 985.398 238.252 985.417 238.699 985.438C238.769 986.147 238.769 986.147 238.841 986.871C239.663 993.835 242.357 999.411 245.512 1005.56C247.195 1008.96 246.964 1012.27 246.974 1015.97C246.979 1017.15 246.996 1018.32 247.013 1019.49C247.076 1027.48 245.561 1035.4 240.233 1041.67C237.453 1044.28 234.492 1046.25 230.555 1046.25C230.408 1046.57 230.261 1046.89 230.109 1047.22C228.495 1050.25 225.814 1052.64 223.348 1054.98C215.621 1062.41 211.817 1070.81 208.836 1081C209.275 1080.99 209.715 1080.98 210.167 1080.97C225.199 1080.63 237.396 1083.14 251.187 1089.14C251.008 1089.5 250.829 1089.86 250.644 1090.23C249.032 1090.42 247.444 1090.56 245.826 1090.67C228.012 1092.21 215.255 1100.79 201.497 1111.47C199.806 1112.75 198.073 1113.97 196.348 1115.21C201.544 1115.39 206.74 1115.57 212.094 1115.75C212.094 1124.35 212.094 1132.95 212.094 1141.81C209.227 1141.81 206.36 1141.81 203.406 1141.81C203.325 1143.52 203.325 1143.52 203.242 1145.27C202.867 1151.76 201.968 1158.2 201.147 1164.65C200.997 1165.85 200.846 1167.05 200.696 1168.25C200.143 1172.65 199.586 1177.05 199.028 1181.45C197.785 1191.3 196.542 1201.16 195.262 1211.31C169.101 1211.31 142.941 1211.31 115.988 1211.31C114.644 1200.65 113.3 1189.99 111.916 1179.01C111.491 1175.64 111.066 1172.28 110.627 1168.82C110.11 1164.7 110.11 1164.7 109.869 1162.77C109.7 1161.43 109.53 1160.09 109.36 1158.74C109.101 1156.71 108.846 1154.67 108.591 1152.63C108.515 1152.04 108.439 1151.44 108.36 1150.83C108.292 1150.28 108.223 1149.72 108.153 1149.15C108.063 1148.44 108.063 1148.44 107.971 1147.71C107.81 1145.75 107.844 1143.78 107.844 1141.81C104.977 1141.81 102.11 1141.81 99.1562 1141.81C99.1562 1133.21 99.1562 1124.61 99.1562 1115.75C113.938 1115.48 113.938 1115.48 129.019 1115.21C126.869 1114.49 124.719 1113.77 122.504 1113.04C111.254 1108.23 103.748 1098.47 99.1933 1087.37C95.6401 1078.07 94.5383 1069.19 94.8124 1059.28C95.9209 1059.27 97.0295 1059.26 98.1381 1059.25C98.7554 1059.24 99.3728 1059.23 100.009 1059.23C101.769 1059.28 103.402 1059.49 105.129 1059.82C104.919 1059.17 104.709 1058.51 104.493 1057.83C101.378 1047.88 99.0507 1037.98 99.1031 1027.52C99.1039 1026.93 99.1047 1026.35 99.1055 1025.75C99.1085 1023.89 99.1153 1022.04 99.1222 1020.19C99.125 1018.93 99.1274 1017.66 99.1297 1016.4C99.1356 1013.32 99.1447 1010.24 99.1562 1007.16C100.682 1007.9 102.029 1008.69 103.396 1009.71C103.796 1010 104.196 1010.3 104.608 1010.6C105.038 1010.92 105.467 1011.24 105.909 1011.57C106.358 1011.9 106.807 1012.23 107.27 1012.58C112.567 1016.51 117.816 1020.51 123.047 1024.53C123.702 1025.03 123.702 1025.03 124.371 1025.55C127.507 1027.97 130.461 1030.52 133.363 1033.22C133.713 1033.53 134.063 1033.85 134.424 1034.17C139.289 1038.74 143.309 1044.47 146.937 1050.05C149.817 1043.74 147.439 1038.3 145.444 1032.06C144.969 1030.54 144.499 1029.01 144.034 1027.48C143.745 1026.54 143.45 1025.6 143.147 1024.66C142.292 1021.91 141.85 1019.38 141.735 1016.5C141.371 1014.58 140.145 1013.57 138.812 1012.21C130.056 1002.29 128.827 988.798 129.562 976.207C130.515 967.282 135.671 957.067 142.051 950.688ZM140.965 1108.69C140.446 1110.08 140.374 1110.72 140.852 1112.14C141.697 1113.59 142.403 1114.65 143.68 1115.75C145.907 1116.17 147.956 1116.04 150.195 1115.75C147.659 1112.95 144.628 1110.8 141.508 1108.69C141.329 1108.69 141.149 1108.69 140.965 1108.69Z" fill="#574138"/>
<path id="Vector_33" d="M142.051 950.688C142.409 950.688 142.768 950.688 143.137 950.688C143.184 951.095 143.231 951.502 143.279 951.922C144.023 957.342 145.696 961.963 149.652 965.891C151.171 966.999 152.804 967.905 154.446 968.818C157.101 970.399 158.868 972.191 159.969 975.121C160.334 977.452 160.33 979.723 160.274 982.078C160.264 982.728 160.255 983.378 160.245 984.048C159.994 993.41 158.081 1004.48 152.505 1012.28C150.512 1016.35 152.187 1021.08 153.453 1025.14C153.609 1025.66 153.764 1026.18 153.924 1026.72C154.303 1027.98 154.69 1029.24 155.082 1030.5C156.759 1029.04 157.775 1027.22 158.879 1025.32C159.086 1024.96 159.294 1024.61 159.508 1024.25C159.953 1023.49 160.397 1022.73 160.84 1021.98C162 1020 163.171 1018.02 164.34 1016.04C164.572 1015.65 164.804 1015.26 165.042 1014.85C174.186 999.386 182.902 987.014 201.005 981.775C204.678 980.916 208.341 980.988 212.094 981.094C210.768 982.427 209.438 983.752 208.079 985.051C198.238 994.558 193.074 1006.02 190.704 1019.28C190.547 1020.13 190.389 1020.97 190.231 1021.81C189.812 1024.06 189.403 1026.31 188.998 1028.56C188.745 1029.97 188.49 1031.37 188.235 1032.78C187.358 1037.6 186.489 1042.42 185.623 1047.24C185.493 1047.96 185.493 1047.96 185.361 1048.7C184.917 1051.17 184.475 1053.65 184.036 1056.13C183.6 1058.59 183.159 1061.04 182.714 1063.5C182.548 1064.42 182.385 1065.34 182.223 1066.26C180.782 1074.48 179.174 1081.17 172.133 1086.39C169.543 1088.03 167.988 1088.62 164.856 1089.14C164.676 1097.92 164.497 1106.7 164.313 1115.75C149.79 1116.66 149.79 1116.66 143.881 1111.55C143.068 1110.8 142.284 1110.02 141.508 1109.23C141.329 1109.77 141.15 1110.31 140.965 1110.86C141.495 1111.85 141.495 1111.85 142.288 1112.8C143.68 1114.56 143.68 1114.56 143.68 1115.75C131.702 1116.18 121.102 1114.67 111.95 1106.32C101.565 1096.35 95.0268 1081.64 94.7171 1067.18C94.6964 1064.55 94.7397 1061.92 94.8126 1059.28C95.9211 1059.27 97.0297 1059.26 98.1382 1059.25C98.7556 1059.24 99.3729 1059.23 100.009 1059.23C101.77 1059.28 103.402 1059.49 105.129 1059.82C104.919 1059.17 104.709 1058.51 104.493 1057.83C101.378 1047.88 99.0509 1037.98 99.1033 1027.52C99.104 1026.93 99.1048 1026.35 99.1056 1025.75C99.1086 1023.89 99.1154 1022.04 99.1224 1020.19C99.1251 1018.93 99.1276 1017.66 99.1298 1016.4C99.1358 1013.32 99.1448 1010.24 99.1563 1007.16C100.682 1007.9 102.029 1008.69 103.396 1009.71C103.796 1010 104.196 1010.3 104.609 1010.6C105.038 1010.92 105.467 1011.24 105.909 1011.57C106.358 1011.9 106.807 1012.23 107.27 1012.58C112.567 1016.51 117.816 1020.51 123.047 1024.53C123.702 1025.03 123.702 1025.03 124.371 1025.55C127.507 1027.97 130.461 1030.52 133.363 1033.22C133.713 1033.53 134.063 1033.85 134.424 1034.17C139.289 1038.74 143.309 1044.47 146.938 1050.05C149.817 1043.74 147.439 1038.3 145.444 1032.06C144.969 1030.54 144.499 1029.01 144.034 1027.48C143.745 1026.54 143.45 1025.6 143.148 1024.66C142.292 1021.91 141.85 1019.38 141.735 1016.5C141.371 1014.58 140.145 1013.57 138.812 1012.21C130.056 1002.29 128.827 988.798 129.563 976.207C130.516 967.282 135.671 957.067 142.051 950.688Z" fill="#437A3A"/>
<path id="Vector_34" d="M107.844 1141.81C139.379 1141.81 170.915 1141.81 203.406 1141.81C203.085 1146.95 202.759 1151.98 202.104 1157.07C201.991 1157.97 201.991 1157.97 201.875 1158.9C201.635 1160.82 201.391 1162.73 201.147 1164.65C200.997 1165.85 200.846 1167.05 200.696 1168.25C200.143 1172.65 199.586 1177.05 199.029 1181.45C197.164 1196.23 197.164 1196.23 195.262 1211.31C169.101 1211.31 142.941 1211.31 115.988 1211.31C114.644 1200.65 113.301 1189.99 111.916 1179.01C111.278 1173.96 111.278 1173.96 110.627 1168.82C110.11 1164.7 110.11 1164.7 109.869 1162.77C109.7 1161.43 109.53 1160.09 109.36 1158.74C109.101 1156.71 108.846 1154.67 108.591 1152.63C108.515 1152.04 108.439 1151.44 108.36 1150.83C108.292 1150.28 108.223 1149.72 108.153 1149.15C108.093 1148.68 108.033 1148.2 107.971 1147.71C107.81 1145.75 107.844 1143.78 107.844 1141.81Z" fill="#715447"/>
<path id="Vector_35" d="M99.1564 1007.16C100.682 1007.9 102.029 1008.69 103.396 1009.71C103.796 1010 104.196 1010.3 104.609 1010.6C105.038 1010.92 105.467 1011.24 105.91 1011.57C106.583 1012.07 106.583 1012.07 107.27 1012.58C112.567 1016.51 117.817 1020.51 123.047 1024.53C123.484 1024.87 123.921 1025.2 124.371 1025.55C127.507 1027.97 130.462 1030.52 133.363 1033.22C133.888 1033.69 133.888 1033.69 134.424 1034.17C137.021 1036.61 139.173 1039.36 141.338 1042.18C141.784 1042.76 141.784 1042.76 142.238 1043.35C143.097 1044.49 143.933 1045.64 144.766 1046.79C145.034 1047.14 145.303 1047.49 145.58 1047.84C147.746 1050.86 147.773 1053.34 147.582 1056.97C147.557 1058.04 147.535 1059.11 147.517 1060.18C147.502 1060.94 147.502 1060.94 147.487 1061.71C147.448 1069.76 150.943 1077.85 155.625 1084.26C155.804 1084.44 155.983 1084.62 156.168 1084.8C156.177 1086.33 156.152 1087.84 156.102 1089.37C156.083 1090.05 156.083 1090.05 156.063 1090.75C156.022 1092.22 155.976 1093.69 155.931 1095.15C155.902 1096.14 155.873 1097.13 155.845 1098.13C155.774 1100.56 155.701 1103 155.625 1105.43C153.933 1104.81 152.526 1104.18 151.116 1103.05C150.799 1102.8 150.482 1102.55 150.155 1102.29C149.832 1102.03 149.51 1101.77 149.177 1101.5C148.859 1101.24 148.54 1100.99 148.212 1100.73C147.565 1100.22 146.923 1099.69 146.284 1099.17C145.631 1098.64 144.964 1098.12 144.285 1097.63C141.529 1095.52 140.653 1093.47 139.675 1090.2C135.787 1078.57 126.801 1069.65 115.989 1064.11C114.428 1063.41 112.822 1062.93 111.187 1062.44C106.183 1060.92 106.183 1060.92 104.701 1059.32C104.082 1057.87 103.798 1056.49 103.5 1054.94C103.288 1054.18 103.069 1053.43 102.845 1052.67C99.6702 1041.72 98.9211 1031.15 99.0546 1019.78C99.0628 1018.55 99.0702 1017.32 99.0768 1016.08C99.0945 1013.11 99.1216 1010.13 99.1564 1007.16Z" fill="#5B9C51"/>
<path id="Vector_36" d="M238.699 985.437C238.746 985.911 238.793 986.384 238.841 986.871C239.663 993.835 242.357 999.411 245.512 1005.56C247.195 1008.96 246.964 1012.27 246.974 1015.97C246.979 1017.15 246.996 1018.32 247.013 1019.49C247.076 1027.48 245.561 1035.4 240.233 1041.67C235.56 1046.06 231.123 1046.52 224.921 1046.49C223.97 1046.5 223.97 1046.5 223 1046.52C216.652 1046.52 212.457 1044.9 207.86 1040.52C204.302 1036.57 203.327 1032.86 203.277 1027.66C203.273 1027.22 203.268 1026.78 203.264 1026.33C203.256 1025.4 203.25 1024.47 203.246 1023.54C203.24 1022.6 203.229 1021.67 203.213 1020.73C203.035 1010.41 205.13 1002.59 212.374 994.844C219.026 988.621 229.583 985.026 238.699 985.437Z" fill="#ECEDEC"/>
<path id="Vector_37" d="M212.094 981.094C210.768 982.427 209.438 983.752 208.079 985.052C198.238 994.558 193.074 1006.02 190.704 1019.28C190.547 1020.13 190.389 1020.97 190.231 1021.81C189.812 1024.06 189.403 1026.31 188.998 1028.56C188.745 1029.97 188.49 1031.37 188.235 1032.78C187.358 1037.6 186.489 1042.42 185.623 1047.24C185.537 1047.72 185.45 1048.2 185.361 1048.7C184.917 1051.17 184.475 1053.65 184.036 1056.13C183.6 1058.59 183.159 1061.04 182.714 1063.5C182.548 1064.42 182.385 1065.34 182.223 1066.26C180.344 1076.98 180.344 1076.98 178.43 1079.91C176.968 1080.72 175.737 1080.89 174.086 1081C173.47 1081.13 172.854 1081.27 172.219 1081.41C168.354 1080.59 166.353 1076.97 164.236 1073.86C158.22 1064.01 155.437 1052.16 157.81 1040.72C160.207 1030.93 165.851 1022.53 171.094 1014.06C172.615 1011.6 174.105 1009.12 175.581 1006.62C175.795 1006.26 176.008 1005.91 176.228 1005.53C177.474 1003.44 177.474 1003.44 178.714 1001.33C180.877 997.658 183.119 994.044 185.537 990.528C185.746 990.214 185.954 989.899 186.169 989.576C188.697 985.986 192.301 984.575 196.348 983.266C196.711 983.147 197.074 983.028 197.448 982.906C202.32 981.378 206.97 980.778 212.094 981.094Z" fill="#437A3A"/>
<path id="Vector_38" d="M219.336 1046.13C219.854 1046.13 220.371 1046.14 220.904 1046.14C221.744 1046.15 221.744 1046.15 222.601 1046.15C223.481 1046.17 223.481 1046.17 224.378 1046.18C224.969 1046.19 225.56 1046.19 226.169 1046.2C227.631 1046.21 229.093 1046.23 230.555 1046.25C228.855 1049.75 226.15 1052.32 223.348 1054.98C215.621 1062.41 211.817 1070.81 208.836 1081C209.275 1080.99 209.715 1080.98 210.168 1080.97C225.199 1080.63 237.396 1083.14 251.188 1089.14C251.008 1089.5 250.829 1089.86 250.645 1090.23C249.032 1090.42 247.444 1090.56 245.826 1090.67C228.045 1092.21 215.301 1100.76 201.559 1111.41C201.094 1111.77 200.628 1112.12 200.148 1112.49C199.838 1112.77 199.528 1113.05 199.208 1113.33C196.289 1115.8 194.157 1116.2 190.392 1116.07C189.892 1116.06 189.392 1116.06 188.877 1116.05C187.294 1116.04 185.713 1116 184.131 1115.95C183.052 1115.94 181.973 1115.92 180.894 1115.91C178.262 1115.87 175.631 1115.82 173 1115.75C173.863 1111.66 175.037 1107.76 176.394 1103.8C176.594 1103.19 176.795 1102.58 177.002 1101.96C179.602 1094.36 183.469 1089.06 190.724 1085.5C193.44 1084.24 196.096 1083.51 199.062 1083.17C199.103 1082.78 199.144 1082.38 199.186 1081.97C200.548 1071.15 204.833 1060.95 212.094 1052.77C212.53 1052.27 212.966 1051.78 213.415 1051.27C217.87 1046.27 217.87 1046.27 219.336 1046.13Z" fill="#4F8C45"/>
<path id="Vector_39" d="M114.359 1193.94C141.595 1193.94 168.83 1193.94 196.891 1193.94C196.528 1199.74 195.983 1205.54 195.262 1211.31C169.101 1211.31 142.941 1211.31 115.988 1211.31C114.359 1198.28 114.359 1198.28 114.359 1193.94Z" fill="#574138"/>
<path id="Vector_40" d="M142.051 950.688C142.409 950.688 142.768 950.688 143.137 950.688C143.184 951.095 143.231 951.502 143.279 951.922C144.023 957.342 145.696 961.963 149.652 965.891C151.172 966.999 152.804 967.905 154.446 968.818C157.101 970.399 158.868 972.191 159.969 975.121C160.334 977.452 160.33 979.723 160.274 982.078C160.264 982.728 160.255 983.378 160.245 984.048C159.93 995.794 156.568 1007.32 149.652 1016.93C149.209 1017.6 148.767 1018.26 148.329 1018.93C148.049 1019.35 147.769 1019.76 147.481 1020.19C139.829 1016.98 134.972 1007.15 131.891 1000.01C129.953 994.643 129.273 989.319 129.325 983.639C129.33 982.998 129.335 982.358 129.34 981.698C129.562 970.481 133.959 958.779 142.051 950.688Z" fill="#EBECEB"/>
<path id="Vector_41" d="M186.574 988.152C187.112 988.421 187.112 988.421 187.66 988.695C187.375 989.061 187.09 989.427 186.797 989.805C183.01 994.877 179.833 1000.27 176.669 1005.74C176.267 1006.44 175.865 1007.13 175.462 1007.83C175.261 1008.17 175.06 1008.52 174.853 1008.88C173.037 1012 171.15 1015.08 169.253 1018.16C161.32 1031.03 155.456 1042.95 158.442 1058.4C160.392 1066.2 163.817 1075.26 170.285 1080.46C172.209 1080.91 172.209 1080.91 174.086 1080.46C174.791 1080.37 175.497 1080.28 176.224 1080.19C176.773 1080.1 177.321 1080.01 177.887 1079.91C175.405 1084.4 171.403 1087.64 166.484 1089.14C165.947 1089.14 165.409 1089.14 164.855 1089.14C164.676 1097.92 164.497 1106.7 164.312 1115.75C161.446 1115.75 158.579 1115.75 155.625 1115.75C155.642 1114.84 155.659 1113.93 155.677 1112.99C155.729 1109.96 155.767 1106.93 155.794 1103.9C155.811 1102.06 155.834 1100.23 155.871 1098.39C155.91 1096.28 155.929 1094.16 155.943 1092.05C155.96 1091.4 155.977 1090.74 155.994 1090.07C155.996 1085.67 155.085 1083.32 152.367 1079.91C146.291 1069.47 145.92 1057.86 148.023 1046.25C148.147 1045.87 148.271 1045.5 148.399 1045.11C148.653 1042.72 147.897 1040.72 147.194 1038.45C147.049 1037.96 146.903 1037.47 146.754 1036.97C146.133 1034.87 145.499 1032.78 144.864 1030.69C144.402 1029.16 143.949 1027.63 143.495 1026.1C143.351 1025.64 143.207 1025.17 143.058 1024.69C142.156 1021.64 141.914 1019.03 142.051 1015.84C142.988 1016.66 143.924 1017.47 144.861 1018.28C145.925 1019.19 145.925 1019.19 147.48 1020.19C147.665 1019.6 147.665 1019.6 147.854 1019C148.701 1017.18 149.817 1016.11 151.281 1014.76C151.328 1015.12 151.375 1015.48 151.423 1015.86C152.161 1020.9 153.576 1025.65 155.082 1030.5C156.759 1029.04 157.775 1027.22 158.879 1025.32C159.086 1024.96 159.294 1024.61 159.508 1024.25C159.953 1023.49 160.397 1022.73 160.84 1021.98C162 1020 163.171 1018.02 164.34 1016.04C164.572 1015.65 164.803 1015.26 165.042 1014.85C177.088 994.476 177.088 994.476 186.574 988.152Z" fill="#305B26"/>
<path id="Vector_42" d="M113.816 1115.75C146.248 1115.75 178.679 1115.75 212.094 1115.75C212.094 1120.05 212.094 1124.35 212.094 1128.78C200.79 1128.83 189.486 1128.87 178.181 1128.89C172.932 1128.9 167.683 1128.92 162.434 1128.95C157.858 1128.97 153.281 1128.98 148.705 1128.99C146.283 1128.99 143.861 1129 141.439 1129.01C139.157 1129.03 136.874 1129.03 134.591 1129.03C133.757 1129.03 132.922 1129.03 132.087 1129.04C126.895 1129.09 122.199 1128.89 117.942 1125.6C115.448 1122.53 113.816 1119.83 113.816 1115.75Z" fill="#674C41"/>
<path id="Vector_43" d="M99.1561 1007.16C103.871 1009.48 109.305 1012.74 111.507 1017.66C112.433 1019.62 113.611 1021.37 114.8 1023.17C115.325 1023.98 115.849 1024.78 116.372 1025.58C116.656 1026.02 116.94 1026.45 117.232 1026.9C119.004 1029.63 120.752 1032.38 122.504 1035.12C125.811 1040.29 125.811 1040.29 129.142 1045.45C129.6 1046.16 130.056 1046.87 130.512 1047.57C131.838 1049.63 133.179 1051.68 134.538 1053.72C135.362 1054.95 136.178 1056.2 136.994 1057.44C137.596 1058.35 138.207 1059.26 138.818 1060.16C139.183 1060.72 139.548 1061.28 139.923 1061.85C140.255 1062.35 140.587 1062.85 140.928 1063.36C141.508 1064.71 141.508 1064.71 141.137 1065.92C140.218 1067.16 139.215 1067.83 137.911 1068.65C137.467 1068.93 137.023 1069.21 136.566 1069.5C136.226 1069.71 135.886 1069.92 135.535 1070.14C133.779 1069.4 132.988 1068.74 132.035 1067.1C131.684 1066.5 131.684 1066.5 131.325 1065.9C131.08 1065.47 130.834 1065.05 130.58 1064.61C130.047 1063.71 129.511 1062.81 128.975 1061.91C128.708 1061.47 128.441 1061.02 128.165 1060.56C127.088 1058.78 125.943 1057.06 124.777 1055.34C122.183 1051.51 119.698 1047.61 117.219 1043.69C114.923 1040.07 112.607 1036.47 110.267 1032.87C109.06 1031.02 107.882 1029.15 106.758 1027.25C107.061 1039.01 111.552 1051.36 116.557 1061.88C117.074 1063.08 117.074 1063.08 117.074 1064.17C115.947 1063.79 114.822 1063.41 113.7 1063.02C112.168 1062.51 112.168 1062.51 110.488 1062.14C106.213 1061.03 106.213 1061.03 104.87 1059.38C104.245 1057.92 103.874 1056.49 103.5 1054.94C103.281 1054.18 103.058 1053.43 102.834 1052.67C102.59 1051.82 102.348 1050.97 102.109 1050.12C102.001 1049.74 101.893 1049.36 101.782 1048.97C99.2471 1039.3 98.9377 1029.72 99.0543 1019.78C99.0625 1018.55 99.07 1017.32 99.0766 1016.08C99.0943 1013.11 99.1213 1010.13 99.1561 1007.16Z" fill="#508C45"/>
<path id="Vector_44" d="M94.8126 1059.28C94.9917 1059.28 95.1709 1059.28 95.3555 1059.28C95.4416 1059.89 95.5277 1060.49 95.6164 1061.11C96.9933 1070.32 99.5321 1078.28 104.043 1086.43C104.345 1086.98 104.646 1087.53 104.957 1088.09C109.658 1096.03 116.611 1101.29 125.219 1104.35C124.931 1103.92 124.931 1103.92 124.638 1103.49C123.766 1102.21 122.897 1100.92 122.029 1099.63C121.576 1098.97 121.576 1098.97 121.115 1098.29C120.824 1097.85 120.534 1097.42 120.235 1096.98C119.967 1096.58 119.7 1096.19 119.425 1095.78C118.703 1094.57 118.703 1094.57 117.617 1091.86C120.574 1089.71 120.574 1089.71 123.59 1087.52C126.033 1088.74 126.033 1088.74 127.105 1090.37C127.344 1090.73 127.583 1091.09 127.829 1091.46C128.079 1091.84 128.329 1092.23 128.587 1092.63C128.849 1093.02 129.111 1093.42 129.381 1093.83C130.216 1095.09 131.043 1096.36 131.87 1097.63C132.435 1098.49 133.001 1099.35 133.567 1100.2C134.952 1102.31 136.331 1104.41 137.707 1106.52C139.263 1104.96 139.462 1103.1 139.947 1101.02C140.046 1100.61 140.144 1100.2 140.246 1099.78C140.489 1098.77 140.727 1097.76 140.965 1096.75C141.144 1096.75 141.323 1096.75 141.508 1096.75C141.523 1098.28 141.533 1099.82 141.542 1101.36C141.546 1101.79 141.551 1102.22 141.556 1102.66C141.564 1104.78 141.493 1106.79 141.152 1108.88C140.809 1110.78 140.809 1110.78 141.506 1112.08C141.764 1112.37 142.022 1112.67 142.288 1112.97C143.68 1114.6 143.68 1114.6 143.68 1115.75C131.702 1116.18 121.102 1114.67 111.95 1106.32C101.565 1096.35 95.0268 1081.64 94.7171 1067.18C94.6964 1064.55 94.7397 1061.92 94.8126 1059.28Z" fill="#305B26"/>
<path id="Vector_45" d="M245.758 1089.14C246.027 1089.68 246.027 1089.68 246.301 1090.23C245.752 1090.33 245.752 1090.33 245.193 1090.43C228.365 1093.48 215.637 1099.49 202.634 1110.75C198.391 1114.36 195.467 1116.51 189.736 1116.11C188.86 1116.02 187.988 1115.89 187.117 1115.75C191.891 1107.46 199.538 1100.9 208.836 1098.37C208.601 1097.7 208.601 1097.7 208.361 1097.01C208.159 1096.42 207.958 1095.83 207.75 1095.22C207.549 1094.63 207.347 1094.05 207.139 1093.44C206.664 1091.86 206.664 1091.86 206.664 1090.23C198.152 1093.17 190.587 1097.76 184.945 1104.89C184.402 1103.26 184.402 1103.26 184.89 1101.97C189.17 1094.02 194.717 1090.5 203.172 1087.92C217.007 1083.95 232.193 1084.04 245.758 1089.14Z" fill="#5B9C51"/>
<path id="Vector_46" d="M227.84 1011.5C230.547 1012.85 232.453 1014.75 233.812 1017.47C233.87 1018.35 233.893 1019.24 233.9 1020.12C233.905 1020.67 233.91 1021.22 233.916 1021.79C233.918 1022.39 233.92 1022.98 233.923 1023.6C233.926 1024.21 233.929 1024.82 233.932 1025.45C233.937 1026.74 233.941 1028.03 233.943 1029.33C233.948 1031.31 233.965 1033.29 233.982 1035.28C233.986 1036.53 233.989 1037.79 233.991 1039.04C233.997 1039.64 234.004 1040.23 234.011 1040.85C234.009 1041.4 234.008 1041.95 234.006 1042.52C234.009 1043.25 234.009 1043.25 234.012 1043.99C233.946 1044.38 233.88 1044.76 233.812 1045.16C231.903 1046.44 231.114 1046.38 228.856 1046.38C228.204 1046.37 227.553 1046.37 226.882 1046.37C226.202 1046.37 225.521 1046.36 224.82 1046.35C224.137 1046.35 223.454 1046.35 222.751 1046.35C217.676 1046.33 217.676 1046.33 216.437 1045.71C216.382 1041.75 216.344 1037.78 216.318 1033.82C216.307 1032.48 216.292 1031.13 216.274 1029.78C216.247 1027.84 216.235 1025.91 216.225 1023.97C216.209 1023.07 216.209 1023.07 216.191 1022.15C216.19 1018.78 216.332 1016.77 218.609 1014.21C221.664 1011.52 223.816 1011.05 227.84 1011.5Z" fill="#F8D368"/>
<path id="Vector_47" d="M173 1023.45C174.154 1023.7 175.308 1023.96 176.461 1024.23C177.425 1024.44 177.425 1024.44 178.409 1024.66C180.059 1025.07 180.059 1025.07 181.145 1025.62C180.786 1028.55 180.159 1031.33 179.394 1034.19C179.272 1034.65 179.15 1035.11 179.024 1035.58C178.624 1037.1 178.22 1038.61 177.817 1040.12C177.537 1041.18 177.258 1042.23 176.979 1043.28C176.246 1046.05 175.511 1048.81 174.775 1051.58C174.024 1054.4 173.275 1057.23 172.526 1060.05C171.058 1065.59 169.586 1071.12 168.113 1076.66C167.576 1076.66 167.038 1076.66 166.484 1076.66C165.532 1075.54 165.532 1075.54 164.55 1074.08C164.225 1073.6 163.899 1073.12 163.564 1072.63C161.644 1069.57 161.449 1067.73 162.141 1064.17C162.884 1061.02 163.723 1057.9 164.569 1054.78C164.812 1053.88 165.055 1052.97 165.297 1052.06C165.932 1049.69 166.572 1047.32 167.212 1044.95C167.866 1042.53 168.516 1040.11 169.166 1037.68C170.44 1032.94 171.719 1028.19 173 1023.45Z" fill="#4F8B44"/>
<path id="Vector_48" d="M219.336 1046.13C219.854 1046.13 220.371 1046.14 220.904 1046.14C221.744 1046.15 221.744 1046.15 222.601 1046.15C223.481 1046.17 223.481 1046.17 224.378 1046.18C224.969 1046.19 225.56 1046.19 226.169 1046.2C227.631 1046.21 229.093 1046.23 230.555 1046.25C228.855 1049.75 226.15 1052.32 223.348 1054.98C215.562 1062.47 211.41 1071.1 208.836 1081.54C205.611 1082.08 202.385 1082.62 199.062 1083.17C200.377 1071.87 204.491 1061.33 212.094 1052.77C212.53 1052.27 212.966 1051.78 213.415 1051.27C217.87 1046.27 217.87 1046.27 219.336 1046.13Z" fill="#437A3A"/>
<path id="Vector_49" d="M146.938 976.207C147.914 977.184 147.719 978.675 147.841 980C147.906 980.696 147.972 981.392 148.039 982.109C148.108 982.876 148.177 983.642 148.246 984.409C148.318 985.191 148.391 985.974 148.463 986.757C148.615 988.401 148.765 990.046 148.913 991.691C149.104 993.794 149.297 995.896 149.492 997.999C149.642 999.617 149.79 1001.24 149.938 1002.85C150.009 1003.63 150.08 1004.4 150.152 1005.18C150.252 1006.27 150.35 1007.35 150.448 1008.44C150.504 1009.06 150.56 1009.68 150.618 1010.31C150.971 1015.39 150.971 1015.39 149.109 1017.95C148.807 1018.37 148.505 1018.8 148.193 1019.23C147.84 1019.71 147.84 1019.71 147.481 1020.19C145.168 1019.3 143.309 1017.98 142.051 1015.84C141.349 1012.96 141.114 1010.04 140.863 1007.09C140.781 1006.24 140.697 1005.39 140.611 1004.54C140.44 1002.81 140.275 1001.08 140.117 999.351C139.901 997.023 139.65 994.7 139.385 992.377C139.308 991.696 139.23 991.014 139.151 990.312C139.007 989.044 138.863 987.776 138.718 986.508C138.363 983.232 138.181 980.046 138.25 976.75C141.162 976.389 144.001 976.085 146.938 976.207Z" fill="#F8D46A"/>
<path id="Vector_50" d="M211.551 995.754C212.094 996.84 212.094 996.84 211.81 997.9C211.581 998.518 211.581 998.518 211.347 999.147C209.764 1003.44 209.77 1007.78 209.732 1012.3C209.723 1013.07 209.708 1013.85 209.687 1014.62C209.54 1020.17 209.749 1025.65 213.654 1030.01C213.997 1030.35 214.339 1030.69 214.692 1031.05C216.786 1033.24 216.837 1035.08 216.772 1038.04C216.74 1038.6 216.708 1039.16 216.675 1039.73C216.658 1040.31 216.641 1040.89 216.623 1041.48C216.579 1042.89 216.516 1044.3 216.437 1045.71C210.934 1043.85 207.083 1040.65 204.405 1035.41C203.355 1032.86 203.303 1030.39 203.277 1027.66C203.272 1027.22 203.268 1026.78 203.264 1026.33C203.256 1025.4 203.25 1024.47 203.246 1023.54C203.24 1022.6 203.229 1021.67 203.213 1020.73C203.044 1010.93 204.835 1003.26 211.551 995.754Z" fill="#BCBDBC"/>
<path id="Vector_51" d="M130.648 971.32C130.828 971.32 131.007 971.32 131.191 971.32C131.238 971.84 131.285 972.36 131.334 972.896C132.19 981.385 134.117 992.164 140.422 998.469C140.695 999.845 140.695 999.845 140.884 1001.57C140.954 1002.19 141.024 1002.81 141.096 1003.45C141.165 1004.1 141.234 1004.75 141.304 1005.43C141.377 1006.07 141.45 1006.72 141.525 1007.38C141.817 1010.03 142.097 1012.63 142.051 1015.3C139.839 1013.71 138.361 1011.96 136.927 1009.67C136.716 1009.33 136.506 1009 136.29 1008.66C131.43 1000.75 129.261 992.69 129.393 983.401C129.391 982.775 129.389 982.149 129.388 981.503C129.41 977.942 129.729 974.762 130.648 971.32Z" fill="#BCBDBB"/>
<path id="Vector_52" d="M150.738 1014.76C150.917 1014.76 151.097 1014.76 151.281 1014.76C151.328 1015.12 151.375 1015.48 151.423 1015.86C152.001 1019.81 152.96 1023.52 154.171 1027.31C155.134 1030.4 155.645 1032.1 154.17 1035.03C153.779 1035.69 153.381 1036.34 152.978 1036.99C151.568 1039.28 150.408 1041.47 149.652 1044.08C148.566 1043.54 148.566 1043.54 148.188 1042.64C148.075 1042.25 147.962 1041.86 147.845 1041.46C147.715 1041.02 147.584 1040.58 147.45 1040.12C147.313 1039.64 147.176 1039.16 147.035 1038.67C146.892 1038.17 146.749 1037.68 146.601 1037.17C146.299 1036.12 145.999 1035.07 145.701 1034.02C145.246 1032.42 144.781 1030.83 144.314 1029.24C144.021 1028.22 143.729 1027.2 143.438 1026.18C143.299 1025.71 143.16 1025.23 143.016 1024.75C142.16 1021.68 141.92 1019.03 142.051 1015.84C143.456 1017.06 143.456 1017.06 144.861 1018.28C145.925 1019.19 145.925 1019.19 147.48 1020.19C147.682 1019.6 147.682 1019.6 147.888 1019C148.629 1017.33 149.531 1016.12 150.738 1014.76Z" fill="#447A3A"/>
<path id="Vector_53" d="M141.508 1095.12C143.72 1096.77 145.931 1098.43 148.138 1100.1C148.698 1100.52 148.698 1100.52 149.269 1100.95C150.035 1101.53 150.802 1102.11 151.568 1102.69C151.937 1102.96 152.305 1103.24 152.685 1103.53C153.181 1103.9 153.181 1103.9 153.687 1104.28C154.548 1104.93 154.548 1104.93 155.625 1105.43C155.625 1108.84 155.625 1112.24 155.625 1115.75C151.152 1116.11 148.997 1115.47 145.546 1112.66C145.161 1112.37 144.776 1112.09 144.379 1111.79C141.631 1109.65 141.631 1109.65 141.122 1107.94C140.964 1106.51 140.951 1105.19 141.031 1103.76C141.057 1103.25 141.083 1102.75 141.11 1102.23C141.141 1101.71 141.171 1101.19 141.202 1100.65C141.231 1100.12 141.259 1099.59 141.288 1099.04C141.359 1097.73 141.432 1096.42 141.508 1095.12Z" fill="#4F8B44"/>
<path id="Vector_54" d="M216.438 1033.76C219.152 1034.85 219.152 1034.85 220.781 1035.7C223.639 1037.07 226.522 1037.16 229.638 1037.32C230.041 1037.35 230.443 1037.37 230.857 1037.4C231.842 1037.45 232.827 1037.51 233.812 1037.56C233.856 1038.81 233.888 1040.05 233.914 1041.3C233.943 1042.33 233.943 1042.33 233.972 1043.4C233.919 1043.98 233.867 1044.56 233.812 1045.16C231.903 1046.44 231.114 1046.38 228.856 1046.38C228.205 1046.37 227.553 1046.37 226.882 1046.37C226.202 1046.37 225.521 1046.36 224.82 1046.35C224.137 1046.35 223.454 1046.35 222.751 1046.35C217.676 1046.33 217.676 1046.33 216.438 1045.71C216.438 1041.77 216.438 1037.82 216.438 1033.76Z" fill="#F6C143"/>
<path id="Vector_55" d="M140.965 1000.1C141.836 1000.84 142.704 1001.58 143.561 1002.33C144.416 1003.06 145.303 1003.75 146.208 1004.41C149.009 1006.59 150.547 1008.16 151.01 1011.77C151.039 1015.34 149.818 1017.57 147.48 1020.19C145.205 1019.09 143.347 1018.07 142.051 1015.84C140.832 1010.7 140.803 1005.36 140.965 1000.1Z" fill="#F4C144"/>
<path id="Vector_56" d="M243.586 1034.3C243.765 1034.66 243.944 1035.02 244.129 1035.39C242.571 1039.71 239.243 1042.95 235.393 1045.32C234.355 1045.71 234.355 1045.71 232.727 1045.16C233.085 1045.16 233.443 1045.16 233.812 1045.16C233.812 1042.66 233.812 1040.15 233.812 1037.56C235.562 1037.19 237.312 1036.82 239.062 1036.45C240.812 1035.95 242.084 1035.31 243.586 1034.3Z" fill="#BCBDBB"/>
<path id="Vector_57" d="M150.195 1008.24C151.27 1008.78 152.345 1009.32 153.453 1009.87C152.775 1011.75 152.001 1013.21 150.738 1014.76C150.205 1012.56 150.151 1010.5 150.195 1008.24Z" fill="#BEBDB7"/>
<path id="Vector_58" d="M142.051 950.688C142.409 950.688 142.767 950.688 143.137 950.688C143.137 952.121 143.137 953.554 143.137 955.031C142.778 954.315 142.42 953.598 142.051 952.859C141.155 953.576 140.259 954.293 139.336 955.031C140.08 953.43 140.899 952.032 142.051 950.688Z" fill="#DEDFDE"/>
<path id="Vector_59" d="M215.895 991.953C216.253 992.132 216.611 992.311 216.98 992.496C215.547 993.93 214.114 995.363 212.637 996.84C212.458 996.302 212.278 995.765 212.094 995.211C213.348 994.136 214.602 993.061 215.895 991.953Z" fill="#E0E0E0"/>
</g>
</g>
<defs>
<clipPath id="clip0_48_2">
<rect width="1000" height="1200" fill="white"/>
</clipPath>
</defs>
</svg>
